<svg width="374" height="360" viewBox="0 0 374 360" fill="none" xmlns="http://www.w3.org/2000/svg">
<g filter="url(#filter0_df_36_9967)">
<g filter="url(#filter1_d_36_9967)">
<rect width="152.104" height="152.104" transform="matrix(0.866025 0.5 -0.866025 0.5 186.726 50.9748)" fill="url(#paint0_linear_36_9967)"/>
<rect width="152.104" height="152.104" transform="matrix(0.866025 0.5 -0.866025 0.5 186.726 50.9748)" fill="url(#paint1_linear_36_9967)"/>
</g>
<g filter="url(#filter2_d_36_9967)">
<rect width="152.104" height="152.104" transform="matrix(0.866025 0.5 -0.866025 0.5 186.726 2)" fill="url(#paint2_linear_36_9967)"/>
<rect width="152.104" height="152.104" transform="matrix(0.866025 0.5 -0.866025 0.5 186.726 2)" fill="url(#paint3_linear_36_9967)"/>
</g>
<g filter="url(#filter3_d_36_9967)">
<path d="M115.096 114.896C109.976 114.896 105.475 113.872 101.592 111.824C97.752 109.733 94.744 106.832 92.568 103.12C90.4347 99.3653 89.368 94.992 89.368 90C89.368 85.008 90.4347 80.656 92.568 76.944C94.744 73.1893 97.752 70.288 101.592 68.24C105.475 66.1493 109.976 65.104 115.096 65.104C120.216 65.104 124.696 66.1493 128.536 68.24C132.419 70.288 135.427 73.1893 137.56 76.944C139.736 80.656 140.824 85.008 140.824 90C140.824 94.992 139.736 99.3653 137.56 103.12C135.427 106.832 132.419 109.733 128.536 111.824C124.696 113.872 120.216 114.896 115.096 114.896ZM115.096 113.872C117.315 113.872 119.341 113.296 121.176 112.144C123.011 110.992 124.589 109.371 125.912 107.28C127.192 105.189 128.173 102.672 128.856 99.728C129.581 96.784 129.944 93.52 129.944 89.936C129.944 86.352 129.581 83.088 128.856 80.144C128.173 77.1573 127.192 74.6187 125.912 72.528C124.589 70.4373 123.011 68.816 121.176 67.664C119.341 66.512 117.315 65.936 115.096 65.936C112.877 65.936 110.851 66.512 109.016 67.664C107.181 68.816 105.624 70.4373 104.344 72.528C103.021 74.6187 101.997 77.1573 101.272 80.144C100.589 83.088 100.248 86.352 100.248 89.936C100.248 93.52 100.589 96.784 101.272 99.728C101.997 102.672 103.021 105.189 104.344 107.28C105.624 109.371 107.181 110.992 109.016 112.144C110.851 113.296 112.877 113.872 115.096 113.872ZM140.408 114L140.536 113.36H140.728C142.264 113.36 143.501 112.891 144.44 111.952C145.378 111.013 145.848 109.776 145.848 108.24V71.76C145.848 70.224 145.378 68.9867 144.44 68.048C143.501 67.1093 142.264 66.64 140.728 66.64L140.664 66H174.904L176.824 78.928H176.248C174.968 70.864 169.89 66.832 161.016 66.832H155.704V86.096H160.696C162.829 86.096 164.536 85.4347 165.816 84.112C167.096 82.7467 167.736 80.9973 167.736 78.864H168.376V94.864H167.736C167.736 92.56 167.032 90.6613 165.624 89.168C164.216 87.6747 162.36 86.928 160.056 86.928H155.704V108.752C155.704 110.16 156.194 111.291 157.176 112.144C158.157 112.955 159.373 113.36 160.824 113.36L160.888 114H140.408ZM175.629 114V113.36L198.989 66.832H195.725C191.202 66.832 187.618 67.856 184.973 69.904C182.37 71.9093 180.792 74.9173 180.237 78.928H179.597L181.517 66H209.485V66.64L186.189 113.168H196.877C201.016 113.168 204.301 112.123 206.733 110.032C209.165 107.941 210.722 104.528 211.405 99.792H212.045L210.125 114H175.629ZM211.297 114L211.361 113.36H211.425C212.961 113.36 214.198 112.955 215.137 112.144C216.076 111.333 216.545 110.16 216.545 108.624V71.76C216.545 70.224 216.076 68.9867 215.137 68.048C214.198 67.1093 212.961 66.64 211.425 66.64L211.361 66H245.665L247.585 78.864H246.945C245.665 70.8427 240.609 66.832 231.777 66.832H226.401V85.328H232.161C234.294 85.328 236.001 84.688 237.281 83.408C238.561 82.0853 239.201 80.3573 239.201 78.224H239.841V93.968H239.201C239.158 91.664 238.433 89.7867 237.025 88.336C235.617 86.8853 233.761 86.16 231.457 86.16H226.401V108.624C226.401 111.653 227.894 113.168 230.881 113.168H233.569C237.708 113.168 240.993 112.101 243.425 109.968C245.857 107.835 247.414 104.485 248.097 99.92H248.737L246.817 114H211.297ZM290.25 114.896L256.714 72.144C256.415 71.76 256.074 71.376 255.69 70.992C255.348 70.608 255.028 70.288 254.73 70.032V106.64C254.73 108.475 255.284 110.053 256.394 111.376C257.503 112.699 258.975 113.36 260.81 113.36V114H247.498V113.36C249.375 113.36 250.868 112.699 251.978 111.376C253.087 110.053 253.642 108.453 253.642 106.576V69.136C251.722 67.6853 249.695 66.8533 247.562 66.64V66H264.01L289.162 98.448V73.36C289.162 71.5253 288.607 69.9467 287.498 68.624C286.388 67.3013 284.916 66.64 283.082 66.64V66H296.33V66.64C294.495 66.64 293.023 67.3013 291.914 68.624C290.804 69.9467 290.25 71.5253 290.25 73.36V114.896Z" fill="white"/>
</g>
<path d="M82.192 147.092L82.136 146.756H87.4L87.344 147.092C86.952 147.092 86.6347 147.139 86.392 147.232C86.1493 147.325 85.9253 147.54 85.72 147.876C85.5147 148.212 85.2813 148.744 85.02 149.472C84.7587 150.181 84.4227 151.161 84.012 152.412L81.492 160.084H79.84L76.172 149.976L73.092 160.084H71.44L67.8 150.788C67.352 149.649 66.9413 148.819 66.568 148.296C66.1947 147.773 65.8307 147.447 65.476 147.316C65.1213 147.167 64.748 147.092 64.356 147.092L64.3 146.756H71.244L71.188 147.092C70.516 147.092 70.0587 147.204 69.816 147.428C69.5733 147.633 69.452 147.941 69.452 148.352C69.452 148.856 69.5733 149.5 69.816 150.284C70.0587 151.068 70.376 151.955 70.768 152.944L72.924 158.376L75.808 148.94C75.7333 148.697 75.6027 148.436 75.416 148.156C75.248 147.876 75.0053 147.633 74.688 147.428C74.3893 147.204 73.9973 147.092 73.512 147.092L73.456 146.756H79.924L79.868 147.092C79.196 147.092 78.7387 147.204 78.496 147.428C78.2533 147.633 78.132 147.941 78.132 148.352C78.132 148.856 78.2627 149.5 78.524 150.284C78.7853 151.068 79.0933 151.955 79.448 152.944L81.324 158.376L83.508 151.656C83.7693 150.872 83.9373 150.247 84.012 149.78C84.1053 149.295 84.152 148.903 84.152 148.604C84.152 148.156 84.012 147.792 83.732 147.512C83.452 147.232 82.9387 147.092 82.192 147.092ZM92.3225 139.392V151.488C92.4345 150.704 92.6585 149.929 92.9945 149.164C93.3492 148.38 93.8345 147.736 94.4505 147.232C95.0852 146.728 95.8599 146.476 96.7745 146.476C98.2119 146.476 99.2852 146.868 99.9945 147.652C100.704 148.417 101.059 149.519 101.059 150.956V155.38C101.059 156.649 101.105 157.592 101.199 158.208C101.292 158.824 101.507 159.225 101.843 159.412C102.179 159.58 102.711 159.664 103.439 159.664L103.495 160H96.6905L96.7465 159.664C97.3252 159.664 97.7732 159.617 98.0905 159.524C98.4079 159.431 98.6319 159.235 98.7625 158.936C98.9119 158.637 99.0052 158.189 99.0425 157.592C99.0799 156.976 99.0985 156.155 99.0985 155.128V151.236C99.0985 150.023 98.9119 149.071 98.5385 148.38C98.1652 147.689 97.4652 147.344 96.4385 147.344C95.7852 147.344 95.2159 147.54 94.7305 147.932C94.2639 148.324 93.8719 148.837 93.5545 149.472C93.2559 150.088 93.0132 150.76 92.8265 151.488C92.6399 152.216 92.5092 152.925 92.4345 153.616C92.3599 154.288 92.3225 154.876 92.3225 155.38C92.3225 156.351 92.3412 157.125 92.3785 157.704C92.4159 158.264 92.5092 158.684 92.6585 158.964C92.8079 159.244 93.0412 159.431 93.3585 159.524C93.6759 159.617 94.1145 159.664 94.6745 159.664L94.7305 160H87.8985L87.9545 159.664C88.5332 159.664 88.9812 159.617 89.2985 159.524C89.6345 159.431 89.8772 159.244 90.0265 158.964C90.1759 158.665 90.2692 158.227 90.3065 157.648C90.3439 157.069 90.3625 156.295 90.3625 155.324V146C90.3625 144.637 90.3345 143.555 90.2785 142.752C90.2412 141.949 90.1292 141.352 89.9425 140.96C89.7559 140.568 89.4759 140.316 89.1025 140.204C88.7479 140.073 88.2439 140.008 87.5905 140.008L87.5345 139.7C87.5345 139.7 87.7679 139.672 88.2345 139.616C88.7199 139.56 89.3265 139.513 90.0545 139.476C90.7825 139.42 91.5385 139.392 92.3225 139.392ZM116.207 152.916H107.023V153.392C107.023 154.792 107.228 155.94 107.639 156.836C108.049 157.732 108.591 158.395 109.263 158.824C109.935 159.253 110.653 159.468 111.419 159.468C112.203 159.468 112.959 159.3 113.687 158.964C114.433 158.609 115.021 158.031 115.451 157.228L115.871 157.452C115.348 158.479 114.648 159.207 113.771 159.636C112.912 160.065 111.988 160.28 110.999 160.28C109.953 160.28 108.964 160.028 108.031 159.524C107.097 159.001 106.341 158.227 105.763 157.2C105.184 156.173 104.895 154.904 104.895 153.392C104.895 152.123 105.128 150.965 105.595 149.92C106.061 148.875 106.724 148.044 107.583 147.428C108.46 146.793 109.515 146.476 110.747 146.476C111.96 146.476 112.968 146.765 113.771 147.344C114.573 147.923 115.18 148.697 115.591 149.668C116.001 150.639 116.207 151.721 116.207 152.916ZM110.775 147.036C109.636 147.036 108.768 147.521 108.171 148.492C107.573 149.463 107.209 150.667 107.079 152.104H114.051C113.995 150.573 113.715 149.351 113.211 148.436C112.707 147.503 111.895 147.036 110.775 147.036ZM126.794 146.336C127.224 146.336 127.625 146.439 127.998 146.644C128.372 146.831 128.558 147.111 128.558 147.484C128.558 147.857 128.437 148.147 128.194 148.352C127.952 148.539 127.7 148.632 127.438 148.632C127.158 148.632 126.916 148.576 126.71 148.464C126.524 148.333 126.309 148.212 126.066 148.1C125.842 147.969 125.516 147.904 125.086 147.904C124.582 147.904 124.144 148.231 123.77 148.884C123.397 149.519 123.108 150.349 122.902 151.376C122.716 152.403 122.622 153.476 122.622 154.596C122.622 155.772 122.641 156.705 122.678 157.396C122.734 158.087 122.837 158.591 122.986 158.908C123.136 159.225 123.369 159.431 123.686 159.524C124.004 159.617 124.442 159.664 125.002 159.664L125.058 160H118.254L118.31 159.664C118.852 159.664 119.281 159.617 119.598 159.524C119.916 159.431 120.149 159.225 120.298 158.908C120.448 158.591 120.541 158.087 120.578 157.396C120.634 156.705 120.662 155.772 120.662 154.596V152.972C120.662 151.609 120.634 150.536 120.578 149.752C120.541 148.949 120.429 148.361 120.242 147.988C120.074 147.615 119.804 147.381 119.43 147.288C119.076 147.176 118.581 147.12 117.946 147.12L117.89 146.812C117.89 146.812 118.124 146.784 118.59 146.728C119.057 146.672 119.645 146.616 120.354 146.56C121.082 146.504 121.838 146.476 122.622 146.476V150.592C122.828 149.267 123.285 148.231 123.994 147.484C124.722 146.719 125.656 146.336 126.794 146.336ZM140.161 152.916H130.977V153.392C130.977 154.792 131.182 155.94 131.593 156.836C132.003 157.732 132.545 158.395 133.217 158.824C133.889 159.253 134.607 159.468 135.373 159.468C136.157 159.468 136.913 159.3 137.641 158.964C138.387 158.609 138.975 158.031 139.405 157.228L139.825 157.452C139.302 158.479 138.602 159.207 137.725 159.636C136.866 160.065 135.942 160.28 134.953 160.28C133.907 160.28 132.918 160.028 131.985 159.524C131.051 159.001 130.295 158.227 129.717 157.2C129.138 156.173 128.849 154.904 128.849 153.392C128.849 152.123 129.082 150.965 129.549 149.92C130.015 148.875 130.678 148.044 131.537 147.428C132.414 146.793 133.469 146.476 134.701 146.476C135.914 146.476 136.922 146.765 137.725 147.344C138.527 147.923 139.134 148.697 139.545 149.668C139.955 150.639 140.161 151.721 140.161 152.916ZM134.729 147.036C133.59 147.036 132.722 147.521 132.125 148.492C131.527 149.463 131.163 150.667 131.033 152.104H138.005C137.949 150.573 137.669 149.351 137.165 148.436C136.661 147.503 135.849 147.036 134.729 147.036ZM152.765 159.468C153.679 159.468 154.417 159.263 154.977 158.852C155.537 158.441 155.817 157.872 155.817 157.144C155.817 156.528 155.649 156.033 155.313 155.66C154.977 155.287 154.547 154.969 154.025 154.708C153.502 154.447 152.942 154.195 152.345 153.952C151.766 153.709 151.215 153.439 150.693 153.14C150.17 152.823 149.741 152.421 149.405 151.936C149.069 151.432 148.901 150.797 148.901 150.032C148.901 149.267 149.106 148.623 149.517 148.1C149.946 147.559 150.487 147.157 151.141 146.896C151.813 146.616 152.503 146.476 153.213 146.476C153.885 146.476 154.585 146.551 155.313 146.7C156.059 146.849 156.629 147.036 157.021 147.26C157.021 147.857 156.983 148.483 156.909 149.136C156.834 149.789 156.759 150.359 156.685 150.844L156.349 150.76C156.349 149.883 156.209 149.192 155.929 148.688C155.649 148.165 155.275 147.792 154.809 147.568C154.361 147.344 153.875 147.232 153.353 147.232C152.699 147.232 152.121 147.428 151.617 147.82C151.113 148.212 150.861 148.819 150.861 149.64C150.861 150.2 151.029 150.657 151.365 151.012C151.701 151.367 152.13 151.675 152.653 151.936C153.175 152.179 153.726 152.421 154.305 152.664C154.902 152.907 155.462 153.187 155.985 153.504C156.507 153.821 156.937 154.223 157.273 154.708C157.609 155.175 157.777 155.781 157.777 156.528C157.777 157.368 157.553 158.068 157.105 158.628C156.657 159.169 156.059 159.58 155.313 159.86C154.585 160.14 153.801 160.28 152.961 160.28C152.27 160.28 151.542 160.187 150.777 160C150.03 159.795 149.386 159.487 148.845 159.076C148.845 158.479 148.873 157.9 148.929 157.34C148.985 156.761 149.05 156.239 149.125 155.772L149.461 155.828C149.461 156.705 149.629 157.415 149.965 157.956C150.301 158.479 150.721 158.861 151.225 159.104C151.729 159.347 152.242 159.468 152.765 159.468ZM164.024 146.476V155.38C164.024 156.351 164.043 157.125 164.08 157.704C164.118 158.264 164.211 158.684 164.36 158.964C164.51 159.244 164.743 159.431 165.06 159.524C165.378 159.617 165.816 159.664 166.376 159.664L166.432 160H159.6L159.656 159.664C160.235 159.664 160.683 159.617 161 159.524C161.336 159.431 161.579 159.244 161.728 158.964C161.878 158.665 161.971 158.227 162.008 157.648C162.046 157.069 162.064 156.295 162.064 155.324V153.084C162.064 151.721 162.036 150.639 161.98 149.836C161.943 149.033 161.831 148.436 161.644 148.044C161.458 147.652 161.178 147.4 160.804 147.288C160.45 147.157 159.946 147.092 159.292 147.092L159.236 146.784C159.236 146.784 159.47 146.756 159.936 146.7C160.422 146.644 161.028 146.597 161.756 146.56C162.484 146.504 163.24 146.476 164.024 146.476ZM161.364 141.996C161.364 141.567 161.523 141.193 161.84 140.876C162.158 140.559 162.531 140.4 162.96 140.4C163.39 140.4 163.763 140.559 164.08 140.876C164.398 141.193 164.556 141.567 164.556 141.996C164.556 142.425 164.398 142.799 164.08 143.116C163.763 143.433 163.39 143.592 162.96 143.592C162.531 143.592 162.158 143.433 161.84 143.116C161.523 142.799 161.364 142.425 161.364 141.996ZM180.527 151.488C180.62 150.704 180.826 149.929 181.143 149.164C181.479 148.38 181.927 147.736 182.487 147.232C183.066 146.728 183.775 146.476 184.615 146.476C185.959 146.476 186.976 146.868 187.667 147.652C188.358 148.417 188.703 149.519 188.703 150.956V155.38C188.703 156.649 188.75 157.592 188.843 158.208C188.936 158.824 189.151 159.225 189.487 159.412C189.823 159.58 190.355 159.664 191.083 159.664L191.139 160H184.531L184.587 159.664C185.11 159.664 185.52 159.617 185.819 159.524C186.118 159.431 186.332 159.235 186.463 158.936C186.594 158.637 186.668 158.189 186.687 157.592C186.724 156.976 186.743 156.155 186.743 155.128V151.236C186.743 150.023 186.566 149.071 186.211 148.38C185.875 147.689 185.24 147.344 184.307 147.344C183.71 147.344 183.196 147.54 182.767 147.932C182.338 148.324 181.974 148.837 181.675 149.472C181.395 150.088 181.171 150.76 181.003 151.488C180.835 152.216 180.714 152.925 180.639 153.616C180.564 154.288 180.527 154.876 180.527 155.38C180.527 156.351 180.546 157.125 180.583 157.704C180.62 158.264 180.714 158.684 180.863 158.964C181.012 159.244 181.246 159.431 181.563 159.524C181.88 159.617 182.319 159.664 182.879 159.664L182.935 160H176.355L176.411 159.664C176.934 159.664 177.344 159.617 177.643 159.524C177.942 159.431 178.156 159.235 178.287 158.936C178.418 158.637 178.492 158.189 178.511 157.592C178.548 156.976 178.567 156.155 178.567 155.128V151.236C178.567 150.023 178.39 149.071 178.035 148.38C177.699 147.689 177.064 147.344 176.131 147.344C175.534 147.344 175.02 147.54 174.591 147.932C174.162 148.324 173.798 148.837 173.499 149.472C173.219 150.088 172.995 150.76 172.827 151.488C172.659 152.216 172.538 152.925 172.463 153.616C172.388 154.288 172.351 154.876 172.351 155.38C172.351 156.351 172.37 157.125 172.407 157.704C172.444 158.264 172.538 158.684 172.687 158.964C172.836 159.244 173.07 159.431 173.387 159.524C173.704 159.617 174.143 159.664 174.703 159.664L174.759 160H167.927L167.983 159.664C168.562 159.664 169.01 159.617 169.327 159.524C169.663 159.431 169.906 159.244 170.055 158.964C170.204 158.665 170.298 158.227 170.335 157.648C170.372 157.069 170.391 156.295 170.391 155.324V153.084C170.391 151.721 170.363 150.639 170.307 149.836C170.27 149.033 170.158 148.436 169.971 148.044C169.784 147.652 169.504 147.4 169.131 147.288C168.776 147.157 168.272 147.092 167.619 147.092L167.563 146.784C167.563 146.784 167.796 146.756 168.263 146.7C168.748 146.644 169.355 146.597 170.083 146.56C170.811 146.504 171.567 146.476 172.351 146.476V151.488C172.444 150.704 172.65 149.929 172.967 149.164C173.303 148.38 173.751 147.736 174.311 147.232C174.89 146.728 175.599 146.476 176.439 146.476C177.783 146.476 178.8 146.868 179.491 147.652C180.182 148.436 180.527 149.715 180.527 151.488ZM200.781 146.476C201.733 146.476 202.545 146.681 203.217 147.092C203.889 147.503 204.421 148.053 204.813 148.744C205.223 149.416 205.522 150.163 205.709 150.984C205.895 151.787 205.989 152.599 205.989 153.42C205.989 154.708 205.718 155.875 205.177 156.92C204.635 157.947 203.889 158.768 202.937 159.384C201.985 159.981 200.893 160.28 199.661 160.28C198.951 160.28 198.345 160.215 197.841 160.084C197.337 159.953 196.879 159.767 196.469 159.524V162.828C196.469 163.836 196.487 164.639 196.525 165.236C196.562 165.852 196.655 166.309 196.805 166.608C196.973 166.907 197.215 167.103 197.533 167.196C197.85 167.289 198.289 167.336 198.849 167.336L198.905 167.672H192.129L192.185 167.336C192.726 167.336 193.155 167.289 193.473 167.196C193.79 167.103 194.023 166.907 194.173 166.608C194.322 166.309 194.415 165.852 194.453 165.236C194.49 164.639 194.509 163.836 194.509 162.828V151.012C194.509 150.116 194.49 149.407 194.453 148.884C194.415 148.361 194.322 147.979 194.173 147.736C194.023 147.475 193.79 147.307 193.473 147.232C193.155 147.157 192.726 147.12 192.185 147.12L192.129 146.812C192.129 146.812 192.325 146.784 192.717 146.728C193.127 146.672 193.659 146.616 194.313 146.56C194.966 146.504 195.685 146.476 196.469 146.476V150.144C196.655 149.565 196.917 148.996 197.253 148.436C197.607 147.876 198.074 147.409 198.653 147.036C199.231 146.663 199.941 146.476 200.781 146.476ZM199.297 159.468C200.193 159.468 200.93 159.291 201.509 158.936C202.106 158.581 202.573 158.115 202.909 157.536C203.263 156.939 203.506 156.285 203.637 155.576C203.786 154.867 203.861 154.148 203.861 153.42C203.861 152.841 203.814 152.207 203.721 151.516C203.627 150.807 203.45 150.144 203.189 149.528C202.946 148.893 202.591 148.371 202.125 147.96C201.677 147.549 201.079 147.344 200.333 147.344C199.735 147.344 199.213 147.512 198.765 147.848C198.335 148.165 197.971 148.585 197.673 149.108C197.374 149.631 197.131 150.181 196.945 150.76C196.777 151.339 196.655 151.88 196.581 152.384C196.506 152.888 196.469 153.299 196.469 153.616V157.984C196.73 158.451 197.122 158.815 197.645 159.076C198.167 159.337 198.718 159.468 199.297 159.468ZM211.661 139.392V155.128C211.661 156.155 211.679 156.976 211.717 157.592C211.754 158.189 211.847 158.637 211.997 158.936C212.165 159.235 212.407 159.431 212.725 159.524C213.042 159.617 213.481 159.664 214.041 159.664L214.097 160H207.237L207.293 159.664C207.871 159.664 208.319 159.617 208.637 159.524C208.973 159.431 209.215 159.235 209.365 158.936C209.514 158.637 209.607 158.189 209.645 157.592C209.682 156.976 209.701 156.155 209.701 155.128V144.432C209.701 143.424 209.682 142.621 209.645 142.024C209.607 141.427 209.514 140.988 209.365 140.708C209.215 140.428 208.973 140.251 208.637 140.176C208.319 140.083 207.871 140.036 207.293 140.036L207.237 139.728C207.237 139.728 207.442 139.7 207.853 139.644C208.263 139.588 208.805 139.532 209.477 139.476C210.167 139.42 210.895 139.392 211.661 139.392ZM219.999 146.476V155.38C219.999 156.351 220.018 157.125 220.055 157.704C220.093 158.264 220.186 158.684 220.335 158.964C220.485 159.244 220.718 159.431 221.035 159.524C221.353 159.617 221.791 159.664 222.351 159.664L222.407 160H215.575L215.631 159.664C216.21 159.664 216.658 159.617 216.975 159.524C217.311 159.431 217.554 159.244 217.703 158.964C217.853 158.665 217.946 158.227 217.983 157.648C218.021 157.069 218.039 156.295 218.039 155.324V153.084C218.039 151.721 218.011 150.639 217.955 149.836C217.918 149.033 217.806 148.436 217.619 148.044C217.433 147.652 217.153 147.4 216.779 147.288C216.425 147.157 215.921 147.092 215.267 147.092L215.211 146.784C215.211 146.784 215.445 146.756 215.911 146.7C216.397 146.644 217.003 146.597 217.731 146.56C218.459 146.504 219.215 146.476 219.999 146.476ZM217.339 141.996C217.339 141.567 217.498 141.193 217.815 140.876C218.133 140.559 218.506 140.4 218.935 140.4C219.365 140.4 219.738 140.559 220.055 140.876C220.373 141.193 220.531 141.567 220.531 141.996C220.531 142.425 220.373 142.799 220.055 143.116C219.738 143.433 219.365 143.592 218.935 143.592C218.506 143.592 218.133 143.433 217.815 143.116C217.498 142.799 217.339 142.425 217.339 141.996ZM234.178 157.228L234.598 157.452C234.075 158.479 233.394 159.207 232.554 159.636C231.714 160.065 230.799 160.28 229.81 160.28C228.783 160.28 227.813 160.028 226.898 159.524C225.983 159.001 225.237 158.227 224.658 157.2C224.098 156.173 223.818 154.904 223.818 153.392C223.818 152.123 224.042 150.965 224.49 149.92C224.957 148.875 225.647 148.044 226.562 147.428C227.477 146.793 228.625 146.476 230.006 146.476C230.771 146.476 231.499 146.56 232.19 146.728C232.899 146.896 233.478 147.148 233.926 147.484C234.374 147.82 234.598 148.24 234.598 148.744C234.598 149.043 234.505 149.276 234.318 149.444C234.131 149.612 233.879 149.696 233.562 149.696C233.226 149.696 232.965 149.612 232.778 149.444C232.61 149.257 232.461 149.033 232.33 148.772C232.218 148.492 232.078 148.221 231.91 147.96C231.761 147.699 231.537 147.484 231.238 147.316C230.958 147.129 230.557 147.036 230.034 147.036C229.101 147.036 228.326 147.307 227.71 147.848C227.113 148.371 226.665 149.089 226.366 150.004C226.086 150.919 225.946 151.936 225.946 153.056C225.946 154.568 226.142 155.8 226.534 156.752C226.945 157.685 227.477 158.376 228.13 158.824C228.783 159.253 229.483 159.468 230.23 159.468C230.995 159.468 231.742 159.3 232.47 158.964C233.198 158.609 233.767 158.031 234.178 157.228ZM240.371 146.476V155.38C240.371 156.351 240.39 157.125 240.427 157.704C240.465 158.264 240.558 158.684 240.707 158.964C240.857 159.244 241.09 159.431 241.407 159.524C241.725 159.617 242.163 159.664 242.723 159.664L242.779 160H235.947L236.003 159.664C236.582 159.664 237.03 159.617 237.347 159.524C237.683 159.431 237.926 159.244 238.075 158.964C238.225 158.665 238.318 158.227 238.355 157.648C238.393 157.069 238.411 156.295 238.411 155.324V153.084C238.411 151.721 238.383 150.639 238.327 149.836C238.29 149.033 238.178 148.436 237.991 148.044C237.805 147.652 237.525 147.4 237.151 147.288C236.797 147.157 236.293 147.092 235.639 147.092L235.583 146.784C235.583 146.784 235.817 146.756 236.283 146.7C236.769 146.644 237.375 146.597 238.103 146.56C238.831 146.504 239.587 146.476 240.371 146.476ZM237.711 141.996C237.711 141.567 237.87 141.193 238.187 140.876C238.505 140.559 238.878 140.4 239.307 140.4C239.737 140.4 240.11 140.559 240.427 140.876C240.745 141.193 240.903 141.567 240.903 141.996C240.903 142.425 240.745 142.799 240.427 143.116C240.11 143.433 239.737 143.592 239.307 143.592C238.878 143.592 238.505 143.433 238.187 143.116C237.87 142.799 237.711 142.425 237.711 141.996ZM247.998 143.312V146.756H251.442V147.372H247.998V158.04C247.998 158.451 248.091 158.768 248.278 158.992C248.465 159.216 248.707 159.328 249.006 159.328C249.379 159.328 249.753 159.281 250.126 159.188C250.499 159.076 250.919 158.927 251.386 158.74L251.442 159.048C250.919 159.384 250.369 159.673 249.79 159.916C249.211 160.159 248.605 160.28 247.97 160.28C247.354 160.28 246.878 160.131 246.542 159.832C246.206 159.533 246.038 158.973 246.038 158.152V147.372H244.358V146.756C245.105 146.756 245.674 146.607 246.066 146.308C246.458 145.991 246.747 145.571 246.934 145.048C247.121 144.525 247.27 143.965 247.382 143.368L247.998 143.312ZM254.168 165.88C255.157 165.88 255.96 165.497 256.576 164.732C257.192 163.967 257.808 162.828 258.424 161.316L254.252 150.788C253.804 149.649 253.393 148.819 253.02 148.296C252.646 147.773 252.282 147.447 251.928 147.316C251.573 147.167 251.2 147.092 250.808 147.092L250.752 146.756H257.696L257.64 147.092C256.968 147.092 256.51 147.204 256.268 147.428C256.025 147.633 255.904 147.941 255.904 148.352C255.904 148.856 256.025 149.5 256.268 150.284C256.51 151.068 256.828 151.955 257.22 152.944L259.376 158.376L261.56 151.656C261.821 150.872 261.989 150.247 262.064 149.78C262.157 149.295 262.204 148.903 262.204 148.604C262.204 148.156 262.064 147.792 261.784 147.512C261.504 147.232 260.99 147.092 260.244 147.092L260.188 146.756H265.452L265.396 147.092C265.004 147.092 264.686 147.139 264.444 147.232C264.201 147.325 263.977 147.54 263.772 147.876C263.566 148.212 263.333 148.744 263.072 149.472C262.81 150.181 262.474 151.161 262.064 152.412L259.544 160.084C258.722 162.604 257.761 164.545 256.66 165.908C255.558 167.271 254.41 167.952 253.216 167.952C252.712 167.952 252.273 167.849 251.9 167.644C251.526 167.439 251.34 167.131 251.34 166.72C251.34 166.309 251.461 166.001 251.704 165.796C251.965 165.609 252.208 165.516 252.432 165.516C252.842 165.516 253.15 165.572 253.356 165.684C253.561 165.815 253.832 165.88 254.168 165.88ZM285.136 151.488C285.229 150.704 285.434 149.929 285.752 149.164C286.088 148.38 286.536 147.736 287.096 147.232C287.674 146.728 288.384 146.476 289.224 146.476C290.568 146.476 291.585 146.868 292.276 147.652C292.966 148.417 293.312 149.519 293.312 150.956V155.38C293.312 156.649 293.358 157.592 293.452 158.208C293.545 158.824 293.76 159.225 294.096 159.412C294.432 159.58 294.964 159.664 295.692 159.664L295.748 160H289.14L289.196 159.664C289.718 159.664 290.129 159.617 290.428 159.524C290.726 159.431 290.941 159.235 291.072 158.936C291.202 158.637 291.277 158.189 291.296 157.592C291.333 156.976 291.352 156.155 291.352 155.128V151.236C291.352 150.023 291.174 149.071 290.82 148.38C290.484 147.689 289.849 147.344 288.916 147.344C288.318 147.344 287.805 147.54 287.376 147.932C286.946 148.324 286.582 148.837 286.284 149.472C286.004 150.088 285.78 150.76 285.612 151.488C285.444 152.216 285.322 152.925 285.248 153.616C285.173 154.288 285.136 154.876 285.136 155.38C285.136 156.351 285.154 157.125 285.192 157.704C285.229 158.264 285.322 158.684 285.472 158.964C285.621 159.244 285.854 159.431 286.172 159.524C286.489 159.617 286.928 159.664 287.488 159.664L287.544 160H280.964L281.02 159.664C281.542 159.664 281.953 159.617 282.252 159.524C282.55 159.431 282.765 159.235 282.896 158.936C283.026 158.637 283.101 158.189 283.12 157.592C283.157 156.976 283.176 156.155 283.176 155.128V151.236C283.176 150.023 282.998 149.071 282.644 148.38C282.308 147.689 281.673 147.344 280.74 147.344C280.142 147.344 279.629 147.54 279.2 147.932C278.77 148.324 278.406 148.837 278.108 149.472C277.828 150.088 277.604 150.76 277.436 151.488C277.268 152.216 277.146 152.925 277.072 153.616C276.997 154.288 276.96 154.876 276.96 155.38C276.96 156.351 276.978 157.125 277.016 157.704C277.053 158.264 277.146 158.684 277.296 158.964C277.445 159.244 277.678 159.431 277.996 159.524C278.313 159.617 278.752 159.664 279.312 159.664L279.368 160H272.536L272.592 159.664C273.17 159.664 273.618 159.617 273.936 159.524C274.272 159.431 274.514 159.244 274.664 158.964C274.813 158.665 274.906 158.227 274.944 157.648C274.981 157.069 275 156.295 275 155.324V153.084C275 151.721 274.972 150.639 274.916 149.836C274.878 149.033 274.766 148.436 274.58 148.044C274.393 147.652 274.113 147.4 273.74 147.288C273.385 147.157 272.881 147.092 272.228 147.092L272.172 146.784C272.172 146.784 272.405 146.756 272.872 146.7C273.357 146.644 273.964 146.597 274.692 146.56C275.42 146.504 276.176 146.476 276.96 146.476V151.488C277.053 150.704 277.258 149.929 277.576 149.164C277.912 148.38 278.36 147.736 278.92 147.232C279.498 146.728 280.208 146.476 281.048 146.476C282.392 146.476 283.409 146.868 284.1 147.652C284.79 148.436 285.136 149.715 285.136 151.488ZM308.469 152.916H299.285V153.392C299.285 154.792 299.491 155.94 299.901 156.836C300.312 157.732 300.853 158.395 301.525 158.824C302.197 159.253 302.916 159.468 303.681 159.468C304.465 159.468 305.221 159.3 305.949 158.964C306.696 158.609 307.284 158.031 307.713 157.228L308.133 157.452C307.611 158.479 306.911 159.207 306.033 159.636C305.175 160.065 304.251 160.28 303.261 160.28C302.216 160.28 301.227 160.028 300.293 159.524C299.36 159.001 298.604 158.227 298.025 157.2C297.447 156.173 297.157 154.904 297.157 153.392C297.157 152.123 297.391 150.965 297.857 149.92C298.324 148.875 298.987 148.044 299.845 147.428C300.723 146.793 301.777 146.476 303.009 146.476C304.223 146.476 305.231 146.765 306.033 147.344C306.836 147.923 307.443 148.697 307.853 149.668C308.264 150.639 308.469 151.721 308.469 152.916ZM303.037 147.036C301.899 147.036 301.031 147.521 300.433 148.492C299.836 149.463 299.472 150.667 299.341 152.104H306.313C306.257 150.573 305.977 149.351 305.473 148.436C304.969 147.503 304.157 147.036 303.037 147.036ZM321.745 152.916H312.561V153.392C312.561 154.792 312.766 155.94 313.177 156.836C313.588 157.732 314.129 158.395 314.801 158.824C315.473 159.253 316.192 159.468 316.957 159.468C317.741 159.468 318.497 159.3 319.225 158.964C319.972 158.609 320.56 158.031 320.989 157.228L321.409 157.452C320.886 158.479 320.186 159.207 319.309 159.636C318.45 160.065 317.526 160.28 316.537 160.28C315.492 160.28 314.502 160.028 313.569 159.524C312.636 159.001 311.88 158.227 311.301 157.2C310.722 156.173 310.433 154.904 310.433 153.392C310.433 152.123 310.666 150.965 311.133 149.92C311.6 148.875 312.262 148.044 313.121 147.428C313.998 146.793 315.053 146.476 316.285 146.476C317.498 146.476 318.506 146.765 319.309 147.344C320.112 147.923 320.718 148.697 321.129 149.668C321.54 150.639 321.745 151.721 321.745 152.916ZM316.313 147.036C315.174 147.036 314.306 147.521 313.709 148.492C313.112 149.463 312.748 150.667 312.617 152.104H319.589C319.533 150.573 319.253 149.351 318.749 148.436C318.245 147.503 317.433 147.036 316.313 147.036ZM327.517 143.312V146.756H330.961V147.372H327.517V158.04C327.517 158.451 327.61 158.768 327.797 158.992C327.984 159.216 328.226 159.328 328.525 159.328C328.898 159.328 329.272 159.281 329.645 159.188C330.018 159.076 330.438 158.927 330.905 158.74L330.961 159.048C330.438 159.384 329.888 159.673 329.309 159.916C328.73 160.159 328.124 160.28 327.489 160.28C326.873 160.28 326.397 160.131 326.061 159.832C325.725 159.533 325.557 158.973 325.557 158.152V147.372H323.877V146.756C324.624 146.756 325.193 146.607 325.585 146.308C325.977 145.991 326.266 145.571 326.453 145.048C326.64 144.525 326.789 143.965 326.901 143.368L327.517 143.312ZM336.29 159.468C337.205 159.468 337.942 159.263 338.502 158.852C339.062 158.441 339.342 157.872 339.342 157.144C339.342 156.528 339.174 156.033 338.838 155.66C338.502 155.287 338.073 154.969 337.55 154.708C337.028 154.447 336.468 154.195 335.87 153.952C335.292 153.709 334.741 153.439 334.218 153.14C333.696 152.823 333.266 152.421 332.93 151.936C332.594 151.432 332.426 150.797 332.426 150.032C332.426 149.267 332.632 148.623 333.042 148.1C333.472 147.559 334.013 147.157 334.666 146.896C335.338 146.616 336.029 146.476 336.738 146.476C337.41 146.476 338.11 146.551 338.838 146.7C339.585 146.849 340.154 147.036 340.546 147.26C340.546 147.857 340.509 148.483 340.434 149.136C340.36 149.789 340.285 150.359 340.21 150.844L339.874 150.76C339.874 149.883 339.734 149.192 339.454 148.688C339.174 148.165 338.801 147.792 338.334 147.568C337.886 147.344 337.401 147.232 336.878 147.232C336.225 147.232 335.646 147.428 335.142 147.82C334.638 148.212 334.386 148.819 334.386 149.64C334.386 150.2 334.554 150.657 334.89 151.012C335.226 151.367 335.656 151.675 336.178 151.936C336.701 152.179 337.252 152.421 337.83 152.664C338.428 152.907 338.988 153.187 339.51 153.504C340.033 153.821 340.462 154.223 340.798 154.708C341.134 155.175 341.302 155.781 341.302 156.528C341.302 157.368 341.078 158.068 340.63 158.628C340.182 159.169 339.585 159.58 338.838 159.86C338.11 160.14 337.326 160.28 336.486 160.28C335.796 160.28 335.068 160.187 334.302 160C333.556 159.795 332.912 159.487 332.37 159.076C332.37 158.479 332.398 157.9 332.454 157.34C332.51 156.761 332.576 156.239 332.65 155.772L332.986 155.828C332.986 156.705 333.154 157.415 333.49 157.956C333.826 158.479 334.246 158.861 334.75 159.104C335.254 159.347 335.768 159.468 336.29 159.468ZM76.48 190.228L76.9 190.452C76.3773 191.479 75.696 192.207 74.856 192.636C74.016 193.065 73.1013 193.28 72.112 193.28C71.0853 193.28 70.1147 193.028 69.2 192.524C68.2853 192.001 67.5387 191.227 66.96 190.2C66.4 189.173 66.12 187.904 66.12 186.392C66.12 185.123 66.344 183.965 66.792 182.92C67.2587 181.875 67.9493 181.044 68.864 180.428C69.7787 179.793 70.9267 179.476 72.308 179.476C73.0733 179.476 73.8013 179.56 74.492 179.728C75.2013 179.896 75.78 180.148 76.228 180.484C76.676 180.82 76.9 181.24 76.9 181.744C76.9 182.043 76.8067 182.276 76.62 182.444C76.4333 182.612 76.1813 182.696 75.864 182.696C75.528 182.696 75.2667 182.612 75.08 182.444C74.912 182.257 74.7627 182.033 74.632 181.772C74.52 181.492 74.38 181.221 74.212 180.96C74.0627 180.699 73.8387 180.484 73.54 180.316C73.26 180.129 72.8587 180.036 72.336 180.036C71.4027 180.036 70.628 180.307 70.012 180.848C69.4147 181.371 68.9667 182.089 68.668 183.004C68.388 183.919 68.248 184.936 68.248 186.056C68.248 187.568 68.444 188.8 68.836 189.752C69.2467 190.685 69.7787 191.376 70.432 191.824C71.0853 192.253 71.7853 192.468 72.532 192.468C73.2973 192.468 74.044 192.3 74.772 191.964C75.5 191.609 76.0693 191.031 76.48 190.228ZM86.7895 179.336C87.2188 179.336 87.6201 179.439 87.9935 179.644C88.3668 179.831 88.5535 180.111 88.5535 180.484C88.5535 180.857 88.4321 181.147 88.1895 181.352C87.9468 181.539 87.6948 181.632 87.4335 181.632C87.1535 181.632 86.9108 181.576 86.7055 181.464C86.5188 181.333 86.3041 181.212 86.0615 181.1C85.8375 180.969 85.5108 180.904 85.0815 180.904C84.5775 180.904 84.1388 181.231 83.7655 181.884C83.3921 182.519 83.1028 183.349 82.8975 184.376C82.7108 185.403 82.6175 186.476 82.6175 187.596C82.6175 188.772 82.6361 189.705 82.6735 190.396C82.7295 191.087 82.8321 191.591 82.9815 191.908C83.1308 192.225 83.3641 192.431 83.6815 192.524C83.9988 192.617 84.4375 192.664 84.9975 192.664L85.0535 193H78.2495L78.3055 192.664C78.8468 192.664 79.2761 192.617 79.5935 192.524C79.9108 192.431 80.1441 192.225 80.2935 191.908C80.4428 191.591 80.5361 191.087 80.5735 190.396C80.6295 189.705 80.6575 188.772 80.6575 187.596V185.972C80.6575 184.609 80.6295 183.536 80.5735 182.752C80.5361 181.949 80.4241 181.361 80.2375 180.988C80.0695 180.615 79.7988 180.381 79.4255 180.288C79.0708 180.176 78.5761 180.12 77.9415 180.12L77.8855 179.812C77.8855 179.812 78.1188 179.784 78.5855 179.728C79.0521 179.672 79.6401 179.616 80.3495 179.56C81.0775 179.504 81.8335 179.476 82.6175 179.476V183.592C82.8228 182.267 83.2801 181.231 83.9895 180.484C84.7175 179.719 85.6508 179.336 86.7895 179.336ZM100.156 185.916H90.9717V186.392C90.9717 187.792 91.1771 188.94 91.5877 189.836C91.9984 190.732 92.5397 191.395 93.2117 191.824C93.8837 192.253 94.6024 192.468 95.3677 192.468C96.1517 192.468 96.9077 192.3 97.6357 191.964C98.3824 191.609 98.9704 191.031 99.3997 190.228L99.8197 190.452C99.2971 191.479 98.5971 192.207 97.7197 192.636C96.8611 193.065 95.9371 193.28 94.9477 193.28C93.9024 193.28 92.9131 193.028 91.9797 192.524C91.0464 192.001 90.2904 191.227 89.7117 190.2C89.1331 189.173 88.8437 187.904 88.8437 186.392C88.8437 185.123 89.0771 183.965 89.5437 182.92C90.0104 181.875 90.6731 181.044 91.5317 180.428C92.4091 179.793 93.4637 179.476 94.6957 179.476C95.9091 179.476 96.9171 179.765 97.7197 180.344C98.5224 180.923 99.1291 181.697 99.5397 182.668C99.9504 183.639 100.156 184.721 100.156 185.916ZM94.7237 180.036C93.5851 180.036 92.7171 180.521 92.1197 181.492C91.5224 182.463 91.1584 183.667 91.0277 185.104H97.9997C97.9437 183.573 97.6637 182.351 97.1597 181.436C96.6557 180.503 95.8437 180.036 94.7237 180.036ZM112.536 183.956V186.784C112.536 188.109 112.554 189.136 112.592 189.864C112.648 190.592 112.76 191.105 112.928 191.404C113.096 191.684 113.348 191.824 113.684 191.824C113.926 191.824 114.15 191.787 114.356 191.712C114.561 191.619 114.757 191.525 114.944 191.432L115.084 191.712C115.084 191.712 114.897 191.833 114.524 192.076C114.15 192.3 113.637 192.533 112.984 192.776C112.349 193.019 111.64 193.14 110.856 193.14C110.781 192.785 110.716 192.263 110.66 191.572C110.604 190.881 110.576 190.153 110.576 189.388C110.37 190.004 110.09 190.611 109.736 191.208C109.4 191.805 108.942 192.3 108.364 192.692C107.785 193.084 107.038 193.28 106.124 193.28C105.022 193.28 104.126 192.972 103.436 192.356C102.745 191.74 102.4 190.881 102.4 189.78C102.4 188.884 102.67 188.1 103.212 187.428C103.753 186.737 104.621 186.205 105.816 185.832C107.01 185.44 108.597 185.244 110.576 185.244V184.236C110.576 183.433 110.501 182.724 110.352 182.108C110.221 181.473 109.95 180.979 109.54 180.624C109.148 180.269 108.569 180.092 107.804 180.092C107.281 180.092 106.87 180.195 106.572 180.4C106.273 180.587 106.03 180.82 105.844 181.1C105.676 181.38 105.526 181.669 105.396 181.968C105.265 182.248 105.106 182.491 104.92 182.696C104.752 182.883 104.509 182.976 104.192 182.976C103.557 182.976 103.24 182.659 103.24 182.024C103.24 181.483 103.464 181.025 103.912 180.652C104.36 180.279 104.938 179.989 105.648 179.784C106.376 179.579 107.132 179.476 107.916 179.476C109.241 179.476 110.342 179.84 111.22 180.568C112.097 181.277 112.536 182.407 112.536 183.956ZM106.572 192.412C107.3 192.412 107.916 192.197 108.42 191.768C108.924 191.339 109.325 190.788 109.624 190.116C109.941 189.444 110.174 188.735 110.324 187.988C110.473 187.223 110.557 186.523 110.576 185.888C109.101 185.907 107.916 186.103 107.02 186.476C106.142 186.849 105.508 187.335 105.116 187.932C104.724 188.529 104.528 189.183 104.528 189.892C104.528 190.583 104.696 191.18 105.032 191.684C105.368 192.169 105.881 192.412 106.572 192.412ZM120.161 176.312V179.756H123.605V180.372H120.161V191.04C120.161 191.451 120.254 191.768 120.441 191.992C120.627 192.216 120.87 192.328 121.169 192.328C121.542 192.328 121.915 192.281 122.289 192.188C122.662 192.076 123.082 191.927 123.549 191.74L123.605 192.048C123.082 192.384 122.531 192.673 121.953 192.916C121.374 193.159 120.767 193.28 120.133 193.28C119.517 193.28 119.041 193.131 118.705 192.832C118.369 192.533 118.201 191.973 118.201 191.152V180.372H116.521V179.756C117.267 179.756 117.837 179.607 118.229 179.308C118.621 178.991 118.91 178.571 119.097 178.048C119.283 177.525 119.433 176.965 119.545 176.368L120.161 176.312ZM129.242 179.476V188.38C129.242 189.351 129.261 190.125 129.298 190.704C129.335 191.264 129.429 191.684 129.578 191.964C129.727 192.244 129.961 192.431 130.278 192.524C130.595 192.617 131.034 192.664 131.594 192.664L131.65 193H124.818L124.874 192.664C125.453 192.664 125.901 192.617 126.218 192.524C126.554 192.431 126.797 192.244 126.946 191.964C127.095 191.665 127.189 191.227 127.226 190.648C127.263 190.069 127.282 189.295 127.282 188.324V186.084C127.282 184.721 127.254 183.639 127.198 182.836C127.161 182.033 127.049 181.436 126.862 181.044C126.675 180.652 126.395 180.4 126.022 180.288C125.667 180.157 125.163 180.092 124.51 180.092L124.454 179.784C124.454 179.784 124.687 179.756 125.154 179.7C125.639 179.644 126.246 179.597 126.974 179.56C127.702 179.504 128.458 179.476 129.242 179.476ZM126.582 174.996C126.582 174.567 126.741 174.193 127.058 173.876C127.375 173.559 127.749 173.4 128.178 173.4C128.607 173.4 128.981 173.559 129.298 173.876C129.615 174.193 129.774 174.567 129.774 174.996C129.774 175.425 129.615 175.799 129.298 176.116C128.981 176.433 128.607 176.592 128.178 176.592C127.749 176.592 127.375 176.433 127.058 176.116C126.741 175.799 126.582 175.425 126.582 174.996ZM140.733 180.092L140.677 179.756H145.941L145.885 180.092C145.493 180.092 145.175 180.139 144.933 180.232C144.69 180.325 144.466 180.54 144.261 180.876C144.055 181.212 143.822 181.744 143.561 182.472C143.299 183.181 142.963 184.161 142.553 185.412L140.033 193.084H138.381L134.741 183.788C134.293 182.649 133.882 181.819 133.509 181.296C133.135 180.773 132.771 180.447 132.417 180.316C132.062 180.167 131.689 180.092 131.297 180.092L131.241 179.756H138.185L138.129 180.092C137.457 180.092 136.999 180.204 136.757 180.428C136.514 180.633 136.393 180.941 136.393 181.352C136.393 181.856 136.514 182.5 136.757 183.284C136.999 184.068 137.317 184.955 137.709 185.944L139.865 191.376L142.049 184.656C142.31 183.872 142.478 183.247 142.553 182.78C142.646 182.295 142.693 181.903 142.693 181.604C142.693 181.156 142.553 180.792 142.273 180.512C141.993 180.232 141.479 180.092 140.733 180.092ZM151.009 179.476V188.38C151.009 189.351 151.027 190.125 151.065 190.704C151.102 191.264 151.195 191.684 151.345 191.964C151.494 192.244 151.727 192.431 152.045 192.524C152.362 192.617 152.801 192.664 153.361 192.664L153.417 193H146.585L146.641 192.664C147.219 192.664 147.667 192.617 147.985 192.524C148.321 192.431 148.563 192.244 148.713 191.964C148.862 191.665 148.955 191.227 148.993 190.648C149.03 190.069 149.049 189.295 149.049 188.324V186.084C149.049 184.721 149.021 183.639 148.965 182.836C148.927 182.033 148.815 181.436 148.629 181.044C148.442 180.652 148.162 180.4 147.789 180.288C147.434 180.157 146.93 180.092 146.277 180.092L146.221 179.784C146.221 179.784 146.454 179.756 146.921 179.7C147.406 179.644 148.013 179.597 148.741 179.56C149.469 179.504 150.225 179.476 151.009 179.476ZM148.349 174.996C148.349 174.567 148.507 174.193 148.825 173.876C149.142 173.559 149.515 173.4 149.945 173.4C150.374 173.4 150.747 173.559 151.065 173.876C151.382 174.193 151.541 174.567 151.541 174.996C151.541 175.425 151.382 175.799 151.065 176.116C150.747 176.433 150.374 176.592 149.945 176.592C149.515 176.592 149.142 176.433 148.825 176.116C148.507 175.799 148.349 175.425 148.349 174.996ZM158.635 176.312V179.756H162.079V180.372H158.635V191.04C158.635 191.451 158.729 191.768 158.915 191.992C159.102 192.216 159.345 192.328 159.643 192.328C160.017 192.328 160.39 192.281 160.763 192.188C161.137 192.076 161.557 191.927 162.023 191.74L162.079 192.048C161.557 192.384 161.006 192.673 160.427 192.916C159.849 193.159 159.242 193.28 158.607 193.28C157.991 193.28 157.515 193.131 157.179 192.832C156.843 192.533 156.675 191.973 156.675 191.152V180.372H154.995V179.756C155.742 179.756 156.311 179.607 156.703 179.308C157.095 178.991 157.385 178.571 157.571 178.048C157.758 177.525 157.907 176.965 158.019 176.368L158.635 176.312ZM164.805 198.88C165.794 198.88 166.597 198.497 167.213 197.732C167.829 196.967 168.445 195.828 169.061 194.316L164.889 183.788C164.441 182.649 164.03 181.819 163.657 181.296C163.284 180.773 162.92 180.447 162.565 180.316C162.21 180.167 161.837 180.092 161.445 180.092L161.389 179.756H168.333L168.277 180.092C167.605 180.092 167.148 180.204 166.905 180.428C166.662 180.633 166.541 180.941 166.541 181.352C166.541 181.856 166.662 182.5 166.905 183.284C167.148 184.068 167.465 184.955 167.857 185.944L170.013 191.376L172.197 184.656C172.458 183.872 172.626 183.247 172.701 182.78C172.794 182.295 172.841 181.903 172.841 181.604C172.841 181.156 172.701 180.792 172.421 180.512C172.141 180.232 171.628 180.092 170.881 180.092L170.825 179.756H176.089L176.033 180.092C175.641 180.092 175.324 180.139 175.081 180.232C174.838 180.325 174.614 180.54 174.409 180.876C174.204 181.212 173.97 181.744 173.709 182.472C173.448 183.181 173.112 184.161 172.701 185.412L170.181 193.084C169.36 195.604 168.398 197.545 167.297 198.908C166.196 200.271 165.048 200.952 163.853 200.952C163.349 200.952 162.91 200.849 162.537 200.644C162.164 200.439 161.977 200.131 161.977 199.72C161.977 199.309 162.098 199.001 162.341 198.796C162.602 198.609 162.845 198.516 163.069 198.516C163.48 198.516 163.788 198.572 163.993 198.684C164.198 198.815 164.469 198.88 164.805 198.88Z" fill="white"/>
</g>
<defs>
<filter id="filter0_df_36_9967" x="51" y="0.1" width="294.302" height="210.979" filterUnits="userSpaceOnUse" color-interpolation-filters="sRGB">
<feFlood flood-opacity="0" result="BackgroundImageFix"/>
<feColorMatrix in="SourceAlpha" type="matrix" values="0 0 0 0 0 0 0 0 0 0 0 0 0 0 0 0 0 0 127 0" result="hardAlpha"/>
<feOffset dy="4"/>
<feGaussianBlur stdDeviation="2"/>
<feComposite in2="hardAlpha" operator="out"/>
<feColorMatrix type="matrix" values="0 0 0 0 0 0 0 0 0 0 0 0 0 0 0 0 0 0 0.25 0"/>
<feBlend mode="normal" in2="BackgroundImageFix" result="effect1_dropShadow_36_9967"/>
<feBlend mode="normal" in="SourceGraphic" in2="effect1_dropShadow_36_9967" result="shape"/>
<feGaussianBlur stdDeviation="0.95" result="effect2_foregroundBlur_36_9967"/>
</filter>
<filter id="filter1_d_36_9967" x="7.62939e-06" y="50.9748" width="373.452" height="308.104" filterUnits="userSpaceOnUse" color-interpolation-filters="sRGB">
<feFlood flood-opacity="0" result="BackgroundImageFix"/>
<feColorMatrix in="SourceAlpha" type="matrix" values="0 0 0 0 0 0 0 0 0 0 0 0 0 0 0 0 0 0 127 0" result="hardAlpha"/>
<feOffset dy="101"/>
<feGaussianBlur stdDeviation="27.5"/>
<feComposite in2="hardAlpha" operator="out"/>
<feColorMatrix type="matrix" values="0 0 0 0 0 0 0 0 0 0 0 0 0 0 0 0 0 0 0.25 0"/>
<feBlend mode="normal" in2="BackgroundImageFix" result="effect1_dropShadow_36_9967"/>
<feBlend mode="normal" in="SourceGraphic" in2="effect1_dropShadow_36_9967" result="shape"/>
</filter>
<filter id="filter2_d_36_9967" x="7.62939e-06" y="2" width="373.452" height="308.104" filterUnits="userSpaceOnUse" color-interpolation-filters="sRGB">
<feFlood flood-opacity="0" result="BackgroundImageFix"/>
<feColorMatrix in="SourceAlpha" type="matrix" values="0 0 0 0 0 0 0 0 0 0 0 0 0 0 0 0 0 0 127 0" result="hardAlpha"/>
<feOffset dy="101"/>
<feGaussianBlur stdDeviation="27.5"/>
<feComposite in2="hardAlpha" operator="out"/>
<feColorMatrix type="matrix" values="0 0 0 0 0 0 0 0 0 0 0 0 0 0 0 0 0 0 0.25 0"/>
<feBlend mode="normal" in2="BackgroundImageFix" result="effect1_dropShadow_36_9967"/>
<feBlend mode="normal" in="SourceGraphic" in2="effect1_dropShadow_36_9967" result="shape"/>
</filter>
<filter id="filter3_d_36_9967" x="82.068" y="61.804" width="221.562" height="64.392" filterUnits="userSpaceOnUse" color-interpolation-filters="sRGB">
<feFlood flood-opacity="0" result="BackgroundImageFix"/>
<feColorMatrix in="SourceAlpha" type="matrix" values="0 0 0 0 0 0 0 0 0 0 0 0 0 0 0 0 0 0 127 0" result="hardAlpha"/>
<feOffset dy="4"/>
<feGaussianBlur stdDeviation="3.65"/>
<feComposite in2="hardAlpha" operator="out"/>
<feColorMatrix type="matrix" values="0 0 0 0 0 0 0 0 0 0 0 0 0 0 0 0 0 0 0.25 0"/>
<feBlend mode="normal" in2="BackgroundImageFix" result="effect1_dropShadow_36_9967"/>
<feBlend mode="normal" in="SourceGraphic" in2="effect1_dropShadow_36_9967" result="shape"/>
</filter>
<linearGradient id="paint0_linear_36_9967" x1="0" y1="0" x2="152.104" y2="152.104" gradientUnits="userSpaceOnUse">
<stop stop-color="#C4C4C4" stop-opacity="0.22"/>
<stop offset="0.841856" stop-color="#C4C4C4" stop-opacity="0"/>
</linearGradient>
<linearGradient id="paint1_linear_36_9967" x1="0" y1="0" x2="152.104" y2="152.104" gradientUnits="userSpaceOnUse">
<stop stop-color="#C4C4C4" stop-opacity="0.22"/>
<stop offset="0.841856" stop-color="#C4C4C4" stop-opacity="0"/>
</linearGradient>
<linearGradient id="paint2_linear_36_9967" x1="0" y1="0" x2="152.104" y2="152.104" gradientUnits="userSpaceOnUse">
<stop stop-color="#C4C4C4" stop-opacity="0.22"/>
<stop offset="0.841856" stop-color="#C4C4C4" stop-opacity="0"/>
</linearGradient>
<linearGradient id="paint3_linear_36_9967" x1="0" y1="0" x2="152.104" y2="152.104" gradientUnits="userSpaceOnUse">
<stop stop-color="#C4C4C4" stop-opacity="0.22"/>
<stop offset="0.841856" stop-color="#C4C4C4" stop-opacity="0"/>
</linearGradient>
</defs>
</svg>
