<svg width="394" height="276" viewBox="0 0 394 276" fill="none" xmlns="http://www.w3.org/2000/svg">
<rect width="164.148" height="164.148" transform="matrix(0.866025 0.5 -0.866025 0.5 197.156 52.8525)" fill="url(#paint0_linear_258_2235)"/>
<g filter="url(#filter0_d_258_2235)">
<rect width="164.148" height="164.148" transform="matrix(0.866025 0.5 -0.866025 0.5 197.156 52.8525)" fill="url(#paint1_linear_258_2235)" shape-rendering="crispEdges"/>
</g>
<rect width="164.148" height="164.148" transform="matrix(0.866025 0.5 -0.866025 0.5 197.156 0)" fill="url(#paint2_linear_258_2235)"/>
<rect width="164.148" height="164.148" transform="matrix(0.866025 0.5 -0.866025 0.5 197.156 0)" fill="url(#paint3_linear_258_2235)"/>
<path d="M91.393 123.014L91.341 122.702H96.229L96.177 123.014C95.813 123.014 95.5183 123.057 95.293 123.144C95.0677 123.231 94.8597 123.43 94.669 123.742C94.4783 124.054 94.2617 124.548 94.019 125.224C93.7763 125.883 93.4643 126.793 93.083 127.954L90.743 135.078H89.209L85.803 125.692L82.943 135.078H81.409L78.029 126.446C77.613 125.389 77.2317 124.617 76.885 124.132C76.5383 123.647 76.2003 123.343 75.871 123.222C75.5417 123.083 75.195 123.014 74.831 123.014L74.779 122.702H81.227L81.175 123.014C80.551 123.014 80.1263 123.118 79.901 123.326C79.6757 123.517 79.563 123.803 79.563 124.184C79.563 124.652 79.6757 125.25 79.901 125.978C80.1263 126.706 80.421 127.529 80.785 128.448L82.787 133.492L85.465 124.73C85.3957 124.505 85.2743 124.262 85.101 124.002C84.945 123.742 84.7197 123.517 84.425 123.326C84.1477 123.118 83.7837 123.014 83.333 123.014L83.281 122.702H89.287L89.235 123.014C88.611 123.014 88.1863 123.118 87.961 123.326C87.7357 123.517 87.623 123.803 87.623 124.184C87.623 124.652 87.7443 125.25 87.987 125.978C88.2297 126.706 88.5157 127.529 88.845 128.448L90.587 133.492L92.615 127.252C92.8577 126.524 93.0137 125.943 93.083 125.51C93.1697 125.059 93.213 124.695 93.213 124.418C93.213 124.002 93.083 123.664 92.823 123.404C92.563 123.144 92.0863 123.014 91.393 123.014ZM100.8 115.864V127.096C100.904 126.368 101.112 125.649 101.424 124.938C101.753 124.21 102.204 123.612 102.776 123.144C103.365 122.676 104.085 122.442 104.934 122.442C106.269 122.442 107.265 122.806 107.924 123.534C108.583 124.245 108.912 125.267 108.912 126.602V130.71C108.912 131.889 108.955 132.764 109.042 133.336C109.129 133.908 109.328 134.281 109.64 134.454C109.952 134.61 110.446 134.688 111.122 134.688L111.174 135H104.856L104.908 134.688C105.445 134.688 105.861 134.645 106.156 134.558C106.451 134.471 106.659 134.289 106.78 134.012C106.919 133.735 107.005 133.319 107.04 132.764C107.075 132.192 107.092 131.429 107.092 130.476V126.862C107.092 125.735 106.919 124.851 106.572 124.21C106.225 123.569 105.575 123.248 104.622 123.248C104.015 123.248 103.487 123.43 103.036 123.794C102.603 124.158 102.239 124.635 101.944 125.224C101.667 125.796 101.441 126.42 101.268 127.096C101.095 127.772 100.973 128.431 100.904 129.072C100.835 129.696 100.8 130.242 100.8 130.71C100.8 131.611 100.817 132.331 100.852 132.868C100.887 133.388 100.973 133.778 101.112 134.038C101.251 134.298 101.467 134.471 101.762 134.558C102.057 134.645 102.464 134.688 102.984 134.688L103.036 135H96.6919L96.7439 134.688C97.2812 134.688 97.6972 134.645 97.9919 134.558C98.3039 134.471 98.5292 134.298 98.6679 134.038C98.8066 133.761 98.8932 133.353 98.9279 132.816C98.9626 132.279 98.9799 131.559 98.9799 130.658V122C98.9799 120.735 98.9539 119.729 98.9019 118.984C98.8672 118.239 98.7632 117.684 98.5899 117.32C98.4166 116.956 98.1566 116.722 97.8099 116.618C97.4806 116.497 97.0126 116.436 96.4059 116.436L96.3539 116.15C96.3539 116.15 96.5706 116.124 97.0039 116.072C97.4546 116.02 98.0179 115.977 98.6939 115.942C99.3699 115.89 100.072 115.864 100.8 115.864ZM122.978 128.422H114.45V128.864C114.45 130.164 114.641 131.23 115.022 132.062C115.403 132.894 115.906 133.509 116.53 133.908C117.154 134.307 117.821 134.506 118.532 134.506C119.26 134.506 119.962 134.35 120.638 134.038C121.331 133.709 121.877 133.171 122.276 132.426L122.666 132.634C122.181 133.587 121.531 134.263 120.716 134.662C119.919 135.061 119.061 135.26 118.142 135.26C117.171 135.26 116.253 135.026 115.386 134.558C114.519 134.073 113.817 133.353 113.28 132.4C112.743 131.447 112.474 130.268 112.474 128.864C112.474 127.685 112.691 126.611 113.124 125.64C113.557 124.669 114.173 123.898 114.97 123.326C115.785 122.737 116.764 122.442 117.908 122.442C119.035 122.442 119.971 122.711 120.716 123.248C121.461 123.785 122.025 124.505 122.406 125.406C122.787 126.307 122.978 127.313 122.978 128.422ZM117.934 122.962C116.877 122.962 116.071 123.413 115.516 124.314C114.961 125.215 114.623 126.333 114.502 127.668H120.976C120.924 126.247 120.664 125.111 120.196 124.262C119.728 123.395 118.974 122.962 117.934 122.962ZM132.81 122.312C133.208 122.312 133.581 122.407 133.928 122.598C134.274 122.771 134.448 123.031 134.448 123.378C134.448 123.725 134.335 123.993 134.11 124.184C133.884 124.357 133.65 124.444 133.408 124.444C133.148 124.444 132.922 124.392 132.732 124.288C132.558 124.167 132.359 124.054 132.134 123.95C131.926 123.829 131.622 123.768 131.224 123.768C130.756 123.768 130.348 124.071 130.002 124.678C129.655 125.267 129.386 126.039 129.196 126.992C129.022 127.945 128.936 128.942 128.936 129.982C128.936 131.074 128.953 131.941 128.988 132.582C129.04 133.223 129.135 133.691 129.274 133.986C129.412 134.281 129.629 134.471 129.924 134.558C130.218 134.645 130.626 134.688 131.146 134.688L131.198 135H124.88L124.932 134.688C125.434 134.688 125.833 134.645 126.128 134.558C126.422 134.471 126.639 134.281 126.778 133.986C126.916 133.691 127.003 133.223 127.038 132.582C127.09 131.941 127.116 131.074 127.116 129.982V128.474C127.116 127.209 127.09 126.212 127.038 125.484C127.003 124.739 126.899 124.193 126.726 123.846C126.57 123.499 126.318 123.283 125.972 123.196C125.642 123.092 125.183 123.04 124.594 123.04L124.542 122.754C124.542 122.754 124.758 122.728 125.192 122.676C125.625 122.624 126.171 122.572 126.83 122.52C127.506 122.468 128.208 122.442 128.936 122.442V126.264C129.126 125.033 129.551 124.071 130.21 123.378C130.886 122.667 131.752 122.312 132.81 122.312ZM145.221 128.422H136.693V128.864C136.693 130.164 136.884 131.23 137.265 132.062C137.646 132.894 138.149 133.509 138.773 133.908C139.397 134.307 140.064 134.506 140.775 134.506C141.503 134.506 142.205 134.35 142.881 134.038C143.574 133.709 144.12 133.171 144.519 132.426L144.909 132.634C144.424 133.587 143.774 134.263 142.959 134.662C142.162 135.061 141.304 135.26 140.385 135.26C139.414 135.26 138.496 135.026 137.629 134.558C136.762 134.073 136.06 133.353 135.523 132.4C134.986 131.447 134.717 130.268 134.717 128.864C134.717 127.685 134.934 126.611 135.367 125.64C135.8 124.669 136.416 123.898 137.213 123.326C138.028 122.737 139.007 122.442 140.151 122.442C141.278 122.442 142.214 122.711 142.959 123.248C143.704 123.785 144.268 124.505 144.649 125.406C145.03 126.307 145.221 127.313 145.221 128.422ZM140.177 122.962C139.12 122.962 138.314 123.413 137.759 124.314C137.204 125.215 136.866 126.333 136.745 127.668H143.219C143.167 126.247 142.907 125.111 142.439 124.262C141.971 123.395 141.217 122.962 140.177 122.962ZM156.925 134.506C157.774 134.506 158.459 134.315 158.979 133.934C159.499 133.553 159.759 133.024 159.759 132.348C159.759 131.776 159.603 131.317 159.291 130.97C158.979 130.623 158.58 130.329 158.095 130.086C157.609 129.843 157.089 129.609 156.535 129.384C155.997 129.159 155.486 128.907 155.001 128.63C154.515 128.335 154.117 127.963 153.805 127.512C153.493 127.044 153.337 126.455 153.337 125.744C153.337 125.033 153.527 124.435 153.909 123.95C154.307 123.447 154.81 123.075 155.417 122.832C156.041 122.572 156.682 122.442 157.341 122.442C157.965 122.442 158.615 122.511 159.291 122.65C159.984 122.789 160.513 122.962 160.877 123.17C160.877 123.725 160.842 124.305 160.773 124.912C160.703 125.519 160.634 126.047 160.565 126.498L160.253 126.42C160.253 125.605 160.123 124.964 159.863 124.496C159.603 124.011 159.256 123.664 158.823 123.456C158.407 123.248 157.956 123.144 157.471 123.144C156.864 123.144 156.327 123.326 155.859 123.69C155.391 124.054 155.157 124.617 155.157 125.38C155.157 125.9 155.313 126.325 155.625 126.654C155.937 126.983 156.335 127.269 156.821 127.512C157.306 127.737 157.817 127.963 158.355 128.188C158.909 128.413 159.429 128.673 159.915 128.968C160.4 129.263 160.799 129.635 161.111 130.086C161.423 130.519 161.579 131.083 161.579 131.776C161.579 132.556 161.371 133.206 160.955 133.726C160.539 134.229 159.984 134.61 159.291 134.87C158.615 135.13 157.887 135.26 157.107 135.26C156.465 135.26 155.789 135.173 155.079 135C154.385 134.809 153.787 134.523 153.285 134.142C153.285 133.587 153.311 133.05 153.363 132.53C153.415 131.993 153.475 131.507 153.545 131.074L153.857 131.126C153.857 131.941 154.013 132.599 154.325 133.102C154.637 133.587 155.027 133.943 155.495 134.168C155.963 134.393 156.439 134.506 156.925 134.506ZM167.38 122.442V130.71C167.38 131.611 167.398 132.331 167.432 132.868C167.467 133.388 167.554 133.778 167.692 134.038C167.831 134.298 168.048 134.471 168.342 134.558C168.637 134.645 169.044 134.688 169.564 134.688L169.616 135H163.272L163.324 134.688C163.862 134.688 164.278 134.645 164.572 134.558C164.884 134.471 165.11 134.298 165.248 134.038C165.387 133.761 165.474 133.353 165.508 132.816C165.543 132.279 165.56 131.559 165.56 130.658V128.578C165.56 127.313 165.534 126.307 165.482 125.562C165.448 124.817 165.344 124.262 165.17 123.898C164.997 123.534 164.737 123.3 164.39 123.196C164.061 123.075 163.593 123.014 162.986 123.014L162.934 122.728C162.934 122.728 163.151 122.702 163.584 122.65C164.035 122.598 164.598 122.555 165.274 122.52C165.95 122.468 166.652 122.442 167.38 122.442ZM164.91 118.282C164.91 117.883 165.058 117.537 165.352 117.242C165.647 116.947 165.994 116.8 166.392 116.8C166.791 116.8 167.138 116.947 167.432 117.242C167.727 117.537 167.874 117.883 167.874 118.282C167.874 118.681 167.727 119.027 167.432 119.322C167.138 119.617 166.791 119.764 166.392 119.764C165.994 119.764 165.647 119.617 165.352 119.322C165.058 119.027 164.91 118.681 164.91 118.282ZM182.704 127.096C182.791 126.368 182.982 125.649 183.276 124.938C183.588 124.21 184.004 123.612 184.524 123.144C185.062 122.676 185.72 122.442 186.5 122.442C187.748 122.442 188.693 122.806 189.334 123.534C189.976 124.245 190.296 125.267 190.296 126.602V130.71C190.296 131.889 190.34 132.764 190.426 133.336C190.513 133.908 190.712 134.281 191.024 134.454C191.336 134.61 191.83 134.688 192.506 134.688L192.558 135H186.422L186.474 134.688C186.96 134.688 187.341 134.645 187.618 134.558C187.896 134.471 188.095 134.289 188.216 134.012C188.338 133.735 188.407 133.319 188.424 132.764C188.459 132.192 188.476 131.429 188.476 130.476V126.862C188.476 125.735 188.312 124.851 187.982 124.21C187.67 123.569 187.081 123.248 186.214 123.248C185.66 123.248 185.183 123.43 184.784 123.794C184.386 124.158 184.048 124.635 183.77 125.224C183.51 125.796 183.302 126.42 183.146 127.096C182.99 127.772 182.878 128.431 182.808 129.072C182.739 129.696 182.704 130.242 182.704 130.71C182.704 131.611 182.722 132.331 182.756 132.868C182.791 133.388 182.878 133.778 183.016 134.038C183.155 134.298 183.372 134.471 183.666 134.558C183.961 134.645 184.368 134.688 184.888 134.688L184.94 135H178.83L178.882 134.688C179.368 134.688 179.749 134.645 180.026 134.558C180.304 134.471 180.503 134.289 180.624 134.012C180.746 133.735 180.815 133.319 180.832 132.764C180.867 132.192 180.884 131.429 180.884 130.476V126.862C180.884 125.735 180.72 124.851 180.39 124.21C180.078 123.569 179.489 123.248 178.622 123.248C178.068 123.248 177.591 123.43 177.192 123.794C176.794 124.158 176.456 124.635 176.178 125.224C175.918 125.796 175.71 126.42 175.554 127.096C175.398 127.772 175.286 128.431 175.216 129.072C175.147 129.696 175.112 130.242 175.112 130.71C175.112 131.611 175.13 132.331 175.164 132.868C175.199 133.388 175.286 133.778 175.424 134.038C175.563 134.298 175.78 134.471 176.074 134.558C176.369 134.645 176.776 134.688 177.296 134.688L177.348 135H171.004L171.056 134.688C171.594 134.688 172.01 134.645 172.304 134.558C172.616 134.471 172.842 134.298 172.98 134.038C173.119 133.761 173.206 133.353 173.24 132.816C173.275 132.279 173.292 131.559 173.292 130.658V128.578C173.292 127.313 173.266 126.307 173.214 125.562C173.18 124.817 173.076 124.262 172.902 123.898C172.729 123.534 172.469 123.3 172.122 123.196C171.793 123.075 171.325 123.014 170.718 123.014L170.666 122.728C170.666 122.728 170.883 122.702 171.316 122.65C171.767 122.598 172.33 122.555 173.006 122.52C173.682 122.468 174.384 122.442 175.112 122.442V127.096C175.199 126.368 175.39 125.649 175.684 124.938C175.996 124.21 176.412 123.612 176.932 123.144C177.47 122.676 178.128 122.442 178.908 122.442C180.156 122.442 181.101 122.806 181.742 123.534C182.384 124.262 182.704 125.449 182.704 127.096ZM201.511 122.442C202.395 122.442 203.149 122.633 203.773 123.014C204.397 123.395 204.891 123.907 205.255 124.548C205.636 125.172 205.914 125.865 206.087 126.628C206.26 127.373 206.347 128.127 206.347 128.89C206.347 130.086 206.096 131.169 205.593 132.14C205.09 133.093 204.397 133.856 203.513 134.428C202.629 134.983 201.615 135.26 200.471 135.26C199.812 135.26 199.249 135.199 198.781 135.078C198.313 134.957 197.888 134.783 197.507 134.558V137.626C197.507 138.562 197.524 139.307 197.559 139.862C197.594 140.434 197.68 140.859 197.819 141.136C197.975 141.413 198.2 141.595 198.495 141.682C198.79 141.769 199.197 141.812 199.717 141.812L199.769 142.124H193.477L193.529 141.812C194.032 141.812 194.43 141.769 194.725 141.682C195.02 141.595 195.236 141.413 195.375 141.136C195.514 140.859 195.6 140.434 195.635 139.862C195.67 139.307 195.687 138.562 195.687 137.626V126.654C195.687 125.822 195.67 125.163 195.635 124.678C195.6 124.193 195.514 123.837 195.375 123.612C195.236 123.369 195.02 123.213 194.725 123.144C194.43 123.075 194.032 123.04 193.529 123.04L193.477 122.754C193.477 122.754 193.659 122.728 194.023 122.676C194.404 122.624 194.898 122.572 195.505 122.52C196.112 122.468 196.779 122.442 197.507 122.442V125.848C197.68 125.311 197.923 124.782 198.235 124.262C198.564 123.742 198.998 123.309 199.535 122.962C200.072 122.615 200.731 122.442 201.511 122.442ZM200.133 134.506C200.965 134.506 201.65 134.341 202.187 134.012C202.742 133.683 203.175 133.249 203.487 132.712C203.816 132.157 204.042 131.551 204.163 130.892C204.302 130.233 204.371 129.566 204.371 128.89C204.371 128.353 204.328 127.763 204.241 127.122C204.154 126.463 203.99 125.848 203.747 125.276C203.522 124.687 203.192 124.201 202.759 123.82C202.343 123.439 201.788 123.248 201.095 123.248C200.54 123.248 200.055 123.404 199.639 123.716C199.24 124.011 198.902 124.401 198.625 124.886C198.348 125.371 198.122 125.883 197.949 126.42C197.793 126.957 197.68 127.46 197.611 127.928C197.542 128.396 197.507 128.777 197.507 129.072V133.128C197.75 133.561 198.114 133.899 198.599 134.142C199.084 134.385 199.596 134.506 200.133 134.506ZM211.614 115.864V130.476C211.614 131.429 211.631 132.192 211.666 132.764C211.701 133.319 211.787 133.735 211.926 134.012C212.082 134.289 212.307 134.471 212.602 134.558C212.897 134.645 213.304 134.688 213.824 134.688L213.876 135H207.506L207.558 134.688C208.095 134.688 208.511 134.645 208.806 134.558C209.118 134.471 209.343 134.289 209.482 134.012C209.621 133.735 209.707 133.319 209.742 132.764C209.777 132.192 209.794 131.429 209.794 130.476V120.544C209.794 119.608 209.777 118.863 209.742 118.308C209.707 117.753 209.621 117.346 209.482 117.086C209.343 116.826 209.118 116.661 208.806 116.592C208.511 116.505 208.095 116.462 207.558 116.462L207.506 116.176C207.506 116.176 207.697 116.15 208.078 116.098C208.459 116.046 208.962 115.994 209.586 115.942C210.227 115.89 210.903 115.864 211.614 115.864ZM219.357 122.442V130.71C219.357 131.611 219.374 132.331 219.409 132.868C219.444 133.388 219.53 133.778 219.669 134.038C219.808 134.298 220.024 134.471 220.319 134.558C220.614 134.645 221.021 134.688 221.541 134.688L221.593 135H215.249L215.301 134.688C215.838 134.688 216.254 134.645 216.549 134.558C216.861 134.471 217.086 134.298 217.225 134.038C217.364 133.761 217.45 133.353 217.485 132.816C217.52 132.279 217.537 131.559 217.537 130.658V128.578C217.537 127.313 217.511 126.307 217.459 125.562C217.424 124.817 217.32 124.262 217.147 123.898C216.974 123.534 216.714 123.3 216.367 123.196C216.038 123.075 215.57 123.014 214.963 123.014L214.911 122.728C214.911 122.728 215.128 122.702 215.561 122.65C216.012 122.598 216.575 122.555 217.251 122.52C217.927 122.468 218.629 122.442 219.357 122.442ZM216.887 118.282C216.887 117.883 217.034 117.537 217.329 117.242C217.624 116.947 217.97 116.8 218.369 116.8C218.768 116.8 219.114 116.947 219.409 117.242C219.704 117.537 219.851 117.883 219.851 118.282C219.851 118.681 219.704 119.027 219.409 119.322C219.114 119.617 218.768 119.764 218.369 119.764C217.97 119.764 217.624 119.617 217.329 119.322C217.034 119.027 216.887 118.681 216.887 118.282ZM232.523 132.426L232.913 132.634C232.427 133.587 231.795 134.263 231.015 134.662C230.235 135.061 229.385 135.26 228.467 135.26C227.513 135.26 226.612 135.026 225.763 134.558C224.913 134.073 224.22 133.353 223.683 132.4C223.163 131.447 222.903 130.268 222.903 128.864C222.903 127.685 223.111 126.611 223.527 125.64C223.96 124.669 224.601 123.898 225.451 123.326C226.3 122.737 227.366 122.442 228.649 122.442C229.359 122.442 230.035 122.52 230.677 122.676C231.335 122.832 231.873 123.066 232.289 123.378C232.705 123.69 232.913 124.08 232.913 124.548C232.913 124.825 232.826 125.042 232.653 125.198C232.479 125.354 232.245 125.432 231.951 125.432C231.639 125.432 231.396 125.354 231.223 125.198C231.067 125.025 230.928 124.817 230.807 124.574C230.703 124.314 230.573 124.063 230.417 123.82C230.278 123.577 230.07 123.378 229.793 123.222C229.533 123.049 229.16 122.962 228.675 122.962C227.808 122.962 227.089 123.213 226.517 123.716C225.962 124.201 225.546 124.869 225.269 125.718C225.009 126.567 224.879 127.512 224.879 128.552C224.879 129.956 225.061 131.1 225.425 131.984C225.806 132.851 226.3 133.492 226.907 133.908C227.513 134.307 228.163 134.506 228.857 134.506C229.567 134.506 230.261 134.35 230.937 134.038C231.613 133.709 232.141 133.171 232.523 132.426ZM238.274 122.442V130.71C238.274 131.611 238.291 132.331 238.326 132.868C238.361 133.388 238.447 133.778 238.586 134.038C238.725 134.298 238.941 134.471 239.236 134.558C239.531 134.645 239.938 134.688 240.458 134.688L240.51 135H234.166L234.218 134.688C234.755 134.688 235.171 134.645 235.466 134.558C235.778 134.471 236.003 134.298 236.142 134.038C236.281 133.761 236.367 133.353 236.402 132.816C236.437 132.279 236.454 131.559 236.454 130.658V128.578C236.454 127.313 236.428 126.307 236.376 125.562C236.341 124.817 236.237 124.262 236.064 123.898C235.891 123.534 235.631 123.3 235.284 123.196C234.955 123.075 234.487 123.014 233.88 123.014L233.828 122.728C233.828 122.728 234.045 122.702 234.478 122.65C234.929 122.598 235.492 122.555 236.168 122.52C236.844 122.468 237.546 122.442 238.274 122.442ZM235.804 118.282C235.804 117.883 235.951 117.537 236.246 117.242C236.541 116.947 236.887 116.8 237.286 116.8C237.685 116.8 238.031 116.947 238.326 117.242C238.621 117.537 238.768 117.883 238.768 118.282C238.768 118.681 238.621 119.027 238.326 119.322C238.031 119.617 237.685 119.764 237.286 119.764C236.887 119.764 236.541 119.617 236.246 119.322C235.951 119.027 235.804 118.681 235.804 118.282ZM245.356 119.504V122.702H248.554V123.274H245.356V133.18C245.356 133.561 245.443 133.856 245.616 134.064C245.789 134.272 246.015 134.376 246.292 134.376C246.639 134.376 246.985 134.333 247.332 134.246C247.679 134.142 248.069 134.003 248.502 133.83L248.554 134.116C248.069 134.428 247.557 134.697 247.02 134.922C246.483 135.147 245.919 135.26 245.33 135.26C244.758 135.26 244.316 135.121 244.004 134.844C243.692 134.567 243.536 134.047 243.536 133.284V123.274H241.976V122.702C242.669 122.702 243.198 122.563 243.562 122.286C243.926 121.991 244.195 121.601 244.368 121.116C244.541 120.631 244.68 120.111 244.784 119.556L245.356 119.504ZM251.085 140.46C252.003 140.46 252.749 140.105 253.321 139.394C253.893 138.683 254.465 137.626 255.037 136.222L251.163 126.446C250.747 125.389 250.365 124.617 250.019 124.132C249.672 123.647 249.334 123.343 249.005 123.222C248.675 123.083 248.329 123.014 247.965 123.014L247.913 122.702H254.361L254.309 123.014C253.685 123.014 253.26 123.118 253.035 123.326C252.809 123.517 252.697 123.803 252.697 124.184C252.697 124.652 252.809 125.25 253.035 125.978C253.26 126.706 253.555 127.529 253.919 128.448L255.921 133.492L257.949 127.252C258.191 126.524 258.347 125.943 258.417 125.51C258.503 125.059 258.547 124.695 258.547 124.418C258.547 124.002 258.417 123.664 258.157 123.404C257.897 123.144 257.42 123.014 256.727 123.014L256.675 122.702H261.563L261.511 123.014C261.147 123.014 260.852 123.057 260.627 123.144C260.401 123.231 260.193 123.43 260.003 123.742C259.812 124.054 259.595 124.548 259.353 125.224C259.11 125.883 258.798 126.793 258.417 127.954L256.077 135.078C255.314 137.418 254.421 139.221 253.399 140.486C252.376 141.751 251.31 142.384 250.201 142.384C249.733 142.384 249.325 142.289 248.979 142.098C248.632 141.907 248.459 141.621 248.459 141.24C248.459 140.859 248.571 140.573 248.797 140.382C249.039 140.209 249.265 140.122 249.473 140.122C249.854 140.122 250.14 140.174 250.331 140.278C250.521 140.399 250.773 140.46 251.085 140.46ZM279.841 127.096C279.927 126.368 280.118 125.649 280.413 124.938C280.725 124.21 281.141 123.612 281.661 123.144C282.198 122.676 282.857 122.442 283.637 122.442C284.885 122.442 285.829 122.806 286.471 123.534C287.112 124.245 287.433 125.267 287.433 126.602V130.71C287.433 131.889 287.476 132.764 287.563 133.336C287.649 133.908 287.849 134.281 288.161 134.454C288.473 134.61 288.967 134.688 289.643 134.688L289.695 135H283.559L283.611 134.688C284.096 134.688 284.477 134.645 284.755 134.558C285.032 134.471 285.231 134.289 285.353 134.012C285.474 133.735 285.543 133.319 285.561 132.764C285.595 132.192 285.613 131.429 285.613 130.476V126.862C285.613 125.735 285.448 124.851 285.119 124.21C284.807 123.569 284.217 123.248 283.351 123.248C282.796 123.248 282.319 123.43 281.921 123.794C281.522 124.158 281.184 124.635 280.907 125.224C280.647 125.796 280.439 126.42 280.283 127.096C280.127 127.772 280.014 128.431 279.945 129.072C279.875 129.696 279.841 130.242 279.841 130.71C279.841 131.611 279.858 132.331 279.893 132.868C279.927 133.388 280.014 133.778 280.153 134.038C280.291 134.298 280.508 134.471 280.803 134.558C281.097 134.645 281.505 134.688 282.025 134.688L282.077 135H275.967L276.019 134.688C276.504 134.688 276.885 134.645 277.163 134.558C277.44 134.471 277.639 134.289 277.761 134.012C277.882 133.735 277.951 133.319 277.969 132.764C278.003 132.192 278.021 131.429 278.021 130.476V126.862C278.021 125.735 277.856 124.851 277.527 124.21C277.215 123.569 276.625 123.248 275.759 123.248C275.204 123.248 274.727 123.43 274.329 123.794C273.93 124.158 273.592 124.635 273.315 125.224C273.055 125.796 272.847 126.42 272.691 127.096C272.535 127.772 272.422 128.431 272.353 129.072C272.283 129.696 272.249 130.242 272.249 130.71C272.249 131.611 272.266 132.331 272.301 132.868C272.335 133.388 272.422 133.778 272.561 134.038C272.699 134.298 272.916 134.471 273.211 134.558C273.505 134.645 273.913 134.688 274.433 134.688L274.485 135H268.141L268.193 134.688C268.73 134.688 269.146 134.645 269.441 134.558C269.753 134.471 269.978 134.298 270.117 134.038C270.255 133.761 270.342 133.353 270.377 132.816C270.411 132.279 270.429 131.559 270.429 130.658V128.578C270.429 127.313 270.403 126.307 270.351 125.562C270.316 124.817 270.212 124.262 270.039 123.898C269.865 123.534 269.605 123.3 269.259 123.196C268.929 123.075 268.461 123.014 267.855 123.014L267.803 122.728C267.803 122.728 268.019 122.702 268.453 122.65C268.903 122.598 269.467 122.555 270.143 122.52C270.819 122.468 271.521 122.442 272.249 122.442V127.096C272.335 126.368 272.526 125.649 272.821 124.938C273.133 124.21 273.549 123.612 274.069 123.144C274.606 122.676 275.265 122.442 276.045 122.442C277.293 122.442 278.237 122.806 278.879 123.534C279.52 124.262 279.841 125.449 279.841 127.096ZM301.508 128.422H292.98V128.864C292.98 130.164 293.17 131.23 293.552 132.062C293.933 132.894 294.436 133.509 295.06 133.908C295.684 134.307 296.351 134.506 297.062 134.506C297.79 134.506 298.492 134.35 299.168 134.038C299.861 133.709 300.407 133.171 300.806 132.426L301.196 132.634C300.71 133.587 300.06 134.263 299.246 134.662C298.448 135.061 297.59 135.26 296.672 135.26C295.701 135.26 294.782 135.026 293.916 134.558C293.049 134.073 292.347 133.353 291.81 132.4C291.272 131.447 291.004 130.268 291.004 128.864C291.004 127.685 291.22 126.611 291.654 125.64C292.087 124.669 292.702 123.898 293.5 123.326C294.314 122.737 295.294 122.442 296.438 122.442C297.564 122.442 298.5 122.711 299.246 123.248C299.991 123.785 300.554 124.505 300.936 125.406C301.317 126.307 301.508 127.313 301.508 128.422ZM296.464 122.962C295.406 122.962 294.6 123.413 294.046 124.314C293.491 125.215 293.153 126.333 293.032 127.668H299.506C299.454 126.247 299.194 125.111 298.726 124.262C298.258 123.395 297.504 122.962 296.464 122.962ZM313.835 128.422H305.307V128.864C305.307 130.164 305.498 131.23 305.879 132.062C306.261 132.894 306.763 133.509 307.387 133.908C308.011 134.307 308.679 134.506 309.389 134.506C310.117 134.506 310.819 134.35 311.495 134.038C312.189 133.709 312.735 133.171 313.133 132.426L313.523 132.634C313.038 133.587 312.388 134.263 311.573 134.662C310.776 135.061 309.918 135.26 308.999 135.26C308.029 135.26 307.11 135.026 306.243 134.558C305.377 134.073 304.675 133.353 304.137 132.4C303.6 131.447 303.331 130.268 303.331 128.864C303.331 127.685 303.548 126.611 303.981 125.64C304.415 124.669 305.03 123.898 305.827 123.326C306.642 122.737 307.621 122.442 308.765 122.442C309.892 122.442 310.828 122.711 311.573 123.248C312.319 123.785 312.882 124.505 313.263 125.406C313.645 126.307 313.835 127.313 313.835 128.422ZM308.791 122.962C307.734 122.962 306.928 123.413 306.373 124.314C305.819 125.215 305.481 126.333 305.359 127.668H311.833C311.781 126.247 311.521 125.111 311.053 124.262C310.585 123.395 309.831 122.962 308.791 122.962ZM319.195 119.504V122.702H322.393V123.274H319.195V133.18C319.195 133.561 319.282 133.856 319.455 134.064C319.628 134.272 319.854 134.376 320.131 134.376C320.478 134.376 320.824 134.333 321.171 134.246C321.518 134.142 321.908 134.003 322.341 133.83L322.393 134.116C321.908 134.428 321.396 134.697 320.859 134.922C320.322 135.147 319.758 135.26 319.169 135.26C318.597 135.26 318.155 135.121 317.843 134.844C317.531 134.567 317.375 134.047 317.375 133.284V123.274H315.815V122.702C316.508 122.702 317.037 122.563 317.401 122.286C317.765 121.991 318.034 121.601 318.207 121.116C318.38 120.631 318.519 120.111 318.623 119.556L319.195 119.504ZM327.342 134.506C328.191 134.506 328.876 134.315 329.396 133.934C329.916 133.553 330.176 133.024 330.176 132.348C330.176 131.776 330.02 131.317 329.708 130.97C329.396 130.623 328.997 130.329 328.512 130.086C328.026 129.843 327.506 129.609 326.952 129.384C326.414 129.159 325.903 128.907 325.418 128.63C324.932 128.335 324.534 127.963 324.222 127.512C323.91 127.044 323.754 126.455 323.754 125.744C323.754 125.033 323.944 124.435 324.326 123.95C324.724 123.447 325.227 123.075 325.834 122.832C326.458 122.572 327.099 122.442 327.758 122.442C328.382 122.442 329.032 122.511 329.708 122.65C330.401 122.789 330.93 122.962 331.294 123.17C331.294 123.725 331.259 124.305 331.19 124.912C331.12 125.519 331.051 126.047 330.982 126.498L330.67 126.42C330.67 125.605 330.54 124.964 330.28 124.496C330.02 124.011 329.673 123.664 329.24 123.456C328.824 123.248 328.373 123.144 327.888 123.144C327.281 123.144 326.744 123.326 326.276 123.69C325.808 124.054 325.574 124.617 325.574 125.38C325.574 125.9 325.73 126.325 326.042 126.654C326.354 126.983 326.752 127.269 327.238 127.512C327.723 127.737 328.234 127.963 328.772 128.188C329.326 128.413 329.846 128.673 330.332 128.968C330.817 129.263 331.216 129.635 331.528 130.086C331.84 130.519 331.996 131.083 331.996 131.776C331.996 132.556 331.788 133.206 331.372 133.726C330.956 134.229 330.401 134.61 329.708 134.87C329.032 135.13 328.304 135.26 327.524 135.26C326.882 135.26 326.206 135.173 325.496 135C324.802 134.809 324.204 134.523 323.702 134.142C323.702 133.587 323.728 133.05 323.78 132.53C323.832 131.993 323.892 131.507 323.962 131.074L324.274 131.126C324.274 131.941 324.43 132.599 324.742 133.102C325.054 133.587 325.444 133.943 325.912 134.168C326.38 134.393 326.856 134.506 327.342 134.506ZM163.343 163.426L163.733 163.634C163.248 164.587 162.615 165.263 161.835 165.662C161.055 166.061 160.206 166.26 159.287 166.26C158.334 166.26 157.432 166.026 156.583 165.558C155.734 165.073 155.04 164.353 154.503 163.4C153.983 162.447 153.723 161.268 153.723 159.864C153.723 158.685 153.931 157.611 154.347 156.64C154.78 155.669 155.422 154.898 156.271 154.326C157.12 153.737 158.186 153.442 159.469 153.442C160.18 153.442 160.856 153.52 161.497 153.676C162.156 153.832 162.693 154.066 163.109 154.378C163.525 154.69 163.733 155.08 163.733 155.548C163.733 155.825 163.646 156.042 163.473 156.198C163.3 156.354 163.066 156.432 162.771 156.432C162.459 156.432 162.216 156.354 162.043 156.198C161.887 156.025 161.748 155.817 161.627 155.574C161.523 155.314 161.393 155.063 161.237 154.82C161.098 154.577 160.89 154.378 160.613 154.222C160.353 154.049 159.98 153.962 159.495 153.962C158.628 153.962 157.909 154.213 157.337 154.716C156.782 155.201 156.366 155.869 156.089 156.718C155.829 157.567 155.699 158.512 155.699 159.552C155.699 160.956 155.881 162.1 156.245 162.984C156.626 163.851 157.12 164.492 157.727 164.908C158.334 165.307 158.984 165.506 159.677 165.506C160.388 165.506 161.081 165.35 161.757 165.038C162.433 164.709 162.962 164.171 163.343 163.426ZM172.916 153.312C173.315 153.312 173.687 153.407 174.034 153.598C174.381 153.771 174.554 154.031 174.554 154.378C174.554 154.725 174.441 154.993 174.216 155.184C173.991 155.357 173.757 155.444 173.514 155.444C173.254 155.444 173.029 155.392 172.838 155.288C172.665 155.167 172.465 155.054 172.24 154.95C172.032 154.829 171.729 154.768 171.33 154.768C170.862 154.768 170.455 155.071 170.108 155.678C169.761 156.267 169.493 157.039 169.302 157.992C169.129 158.945 169.042 159.942 169.042 160.982C169.042 162.074 169.059 162.941 169.094 163.582C169.146 164.223 169.241 164.691 169.38 164.986C169.519 165.281 169.735 165.471 170.03 165.558C170.325 165.645 170.732 165.688 171.252 165.688L171.304 166H164.986L165.038 165.688C165.541 165.688 165.939 165.645 166.234 165.558C166.529 165.471 166.745 165.281 166.884 164.986C167.023 164.691 167.109 164.223 167.144 163.582C167.196 162.941 167.222 162.074 167.222 160.982V159.474C167.222 158.209 167.196 157.212 167.144 156.484C167.109 155.739 167.005 155.193 166.832 154.846C166.676 154.499 166.425 154.283 166.078 154.196C165.749 154.092 165.289 154.04 164.7 154.04L164.648 153.754C164.648 153.754 164.865 153.728 165.298 153.676C165.731 153.624 166.277 153.572 166.936 153.52C167.612 153.468 168.314 153.442 169.042 153.442V157.264C169.233 156.033 169.657 155.071 170.316 154.378C170.992 153.667 171.859 153.312 172.916 153.312ZM185.328 159.422H176.8V159.864C176.8 161.164 176.99 162.23 177.372 163.062C177.753 163.894 178.256 164.509 178.88 164.908C179.504 165.307 180.171 165.506 180.882 165.506C181.61 165.506 182.312 165.35 182.988 165.038C183.681 164.709 184.227 164.171 184.626 163.426L185.016 163.634C184.53 164.587 183.88 165.263 183.066 165.662C182.268 166.061 181.41 166.26 180.492 166.26C179.521 166.26 178.602 166.026 177.736 165.558C176.869 165.073 176.167 164.353 175.63 163.4C175.092 162.447 174.824 161.268 174.824 159.864C174.824 158.685 175.04 157.611 175.474 156.64C175.907 155.669 176.522 154.898 177.32 154.326C178.134 153.737 179.114 153.442 180.258 153.442C181.384 153.442 182.32 153.711 183.066 154.248C183.811 154.785 184.374 155.505 184.756 156.406C185.137 157.307 185.328 158.313 185.328 159.422ZM180.284 153.962C179.226 153.962 178.42 154.413 177.866 155.314C177.311 156.215 176.973 157.333 176.852 158.668H183.326C183.274 157.247 183.014 156.111 182.546 155.262C182.078 154.395 181.324 153.962 180.284 153.962ZM196.823 157.602V160.228C196.823 161.459 196.841 162.412 196.875 163.088C196.927 163.764 197.031 164.241 197.187 164.518C197.343 164.778 197.577 164.908 197.889 164.908C198.115 164.908 198.323 164.873 198.513 164.804C198.704 164.717 198.886 164.631 199.059 164.544L199.189 164.804C199.189 164.804 199.016 164.917 198.669 165.142C198.323 165.35 197.846 165.567 197.239 165.792C196.65 166.017 195.991 166.13 195.263 166.13C195.194 165.801 195.133 165.315 195.081 164.674C195.029 164.033 195.003 163.357 195.003 162.646C194.813 163.218 194.553 163.781 194.223 164.336C193.911 164.891 193.487 165.35 192.949 165.714C192.412 166.078 191.719 166.26 190.869 166.26C189.847 166.26 189.015 165.974 188.373 165.402C187.732 164.83 187.411 164.033 187.411 163.01C187.411 162.178 187.663 161.45 188.165 160.826C188.668 160.185 189.474 159.691 190.583 159.344C191.693 158.98 193.166 158.798 195.003 158.798V157.862C195.003 157.117 194.934 156.458 194.795 155.886C194.674 155.297 194.423 154.837 194.041 154.508C193.677 154.179 193.14 154.014 192.429 154.014C191.944 154.014 191.563 154.109 191.285 154.3C191.008 154.473 190.783 154.69 190.609 154.95C190.453 155.21 190.315 155.479 190.193 155.756C190.072 156.016 189.925 156.241 189.751 156.432C189.595 156.605 189.37 156.692 189.075 156.692C188.486 156.692 188.191 156.397 188.191 155.808C188.191 155.305 188.399 154.881 188.815 154.534C189.231 154.187 189.769 153.919 190.427 153.728C191.103 153.537 191.805 153.442 192.533 153.442C193.764 153.442 194.787 153.78 195.601 154.456C196.416 155.115 196.823 156.163 196.823 157.602ZM191.285 165.454C191.961 165.454 192.533 165.255 193.001 164.856C193.469 164.457 193.842 163.946 194.119 163.322C194.414 162.698 194.631 162.039 194.769 161.346C194.908 160.635 194.986 159.985 195.003 159.396C193.634 159.413 192.533 159.595 191.701 159.942C190.887 160.289 190.297 160.739 189.933 161.294C189.569 161.849 189.387 162.455 189.387 163.114C189.387 163.755 189.543 164.31 189.855 164.778C190.167 165.229 190.644 165.454 191.285 165.454ZM203.904 150.504V153.702H207.102V154.274H203.904V164.18C203.904 164.561 203.99 164.856 204.164 165.064C204.337 165.272 204.562 165.376 204.84 165.376C205.186 165.376 205.533 165.333 205.88 165.246C206.226 165.142 206.616 165.003 207.05 164.83L207.102 165.116C206.616 165.428 206.105 165.697 205.568 165.922C205.03 166.147 204.467 166.26 203.878 166.26C203.306 166.26 202.864 166.121 202.552 165.844C202.24 165.567 202.084 165.047 202.084 164.284V154.274H200.524V153.702C201.217 153.702 201.746 153.563 202.11 153.286C202.474 152.991 202.742 152.601 202.916 152.116C203.089 151.631 203.228 151.111 203.332 150.556L203.904 150.504ZM212.336 153.442V161.71C212.336 162.611 212.354 163.331 212.388 163.868C212.423 164.388 212.51 164.778 212.648 165.038C212.787 165.298 213.004 165.471 213.298 165.558C213.593 165.645 214 165.688 214.52 165.688L214.572 166H208.228L208.28 165.688C208.818 165.688 209.234 165.645 209.528 165.558C209.84 165.471 210.066 165.298 210.204 165.038C210.343 164.761 210.43 164.353 210.464 163.816C210.499 163.279 210.516 162.559 210.516 161.658V159.578C210.516 158.313 210.49 157.307 210.438 156.562C210.404 155.817 210.3 155.262 210.126 154.898C209.953 154.534 209.693 154.3 209.346 154.196C209.017 154.075 208.549 154.014 207.942 154.014L207.89 153.728C207.89 153.728 208.107 153.702 208.54 153.65C208.991 153.598 209.554 153.555 210.23 153.52C210.906 153.468 211.608 153.442 212.336 153.442ZM209.866 149.282C209.866 148.883 210.014 148.537 210.308 148.242C210.603 147.947 210.95 147.8 211.348 147.8C211.747 147.8 212.094 147.947 212.388 148.242C212.683 148.537 212.83 148.883 212.83 149.282C212.83 149.681 212.683 150.027 212.388 150.322C212.094 150.617 211.747 150.764 211.348 150.764C210.95 150.764 210.603 150.617 210.308 150.322C210.014 150.027 209.866 149.681 209.866 149.282ZM223.006 154.014L222.954 153.702H227.842L227.79 154.014C227.426 154.014 227.132 154.057 226.906 154.144C226.681 154.231 226.473 154.43 226.282 154.742C226.092 155.054 225.875 155.548 225.632 156.224C225.39 156.883 225.078 157.793 224.696 158.954L222.356 166.078H220.822L217.442 157.446C217.026 156.389 216.645 155.617 216.298 155.132C215.952 154.647 215.614 154.343 215.284 154.222C214.955 154.083 214.608 154.014 214.244 154.014L214.192 153.702H220.64L220.588 154.014C219.964 154.014 219.54 154.118 219.314 154.326C219.089 154.517 218.976 154.803 218.976 155.184C218.976 155.652 219.089 156.25 219.314 156.978C219.54 157.706 219.834 158.529 220.198 159.448L222.2 164.492L224.228 158.252C224.471 157.524 224.627 156.943 224.696 156.51C224.783 156.059 224.826 155.695 224.826 155.418C224.826 155.002 224.696 154.664 224.436 154.404C224.176 154.144 223.7 154.014 223.006 154.014ZM232.548 153.442V161.71C232.548 162.611 232.566 163.331 232.6 163.868C232.635 164.388 232.722 164.778 232.86 165.038C232.999 165.298 233.216 165.471 233.51 165.558C233.805 165.645 234.212 165.688 234.732 165.688L234.784 166H228.44L228.492 165.688C229.03 165.688 229.446 165.645 229.74 165.558C230.052 165.471 230.278 165.298 230.416 165.038C230.555 164.761 230.642 164.353 230.676 163.816C230.711 163.279 230.728 162.559 230.728 161.658V159.578C230.728 158.313 230.702 157.307 230.65 156.562C230.616 155.817 230.512 155.262 230.338 154.898C230.165 154.534 229.905 154.3 229.558 154.196C229.229 154.075 228.761 154.014 228.154 154.014L228.102 153.728C228.102 153.728 228.319 153.702 228.752 153.65C229.203 153.598 229.766 153.555 230.442 153.52C231.118 153.468 231.82 153.442 232.548 153.442ZM230.078 149.282C230.078 148.883 230.226 148.537 230.52 148.242C230.815 147.947 231.162 147.8 231.56 147.8C231.959 147.8 232.306 147.947 232.6 148.242C232.895 148.537 233.042 148.883 233.042 149.282C233.042 149.681 232.895 150.027 232.6 150.322C232.306 150.617 231.959 150.764 231.56 150.764C231.162 150.764 230.815 150.617 230.52 150.322C230.226 150.027 230.078 149.681 230.078 149.282ZM239.63 150.504V153.702H242.828V154.274H239.63V164.18C239.63 164.561 239.717 164.856 239.89 165.064C240.064 165.272 240.289 165.376 240.566 165.376C240.913 165.376 241.26 165.333 241.606 165.246C241.953 165.142 242.343 165.003 242.776 164.83L242.828 165.116C242.343 165.428 241.832 165.697 241.294 165.922C240.757 166.147 240.194 166.26 239.604 166.26C239.032 166.26 238.59 166.121 238.278 165.844C237.966 165.567 237.81 165.047 237.81 164.284V154.274H236.25V153.702C236.944 153.702 237.472 153.563 237.836 153.286C238.2 152.991 238.469 152.601 238.642 152.116C238.816 151.631 238.954 151.111 239.058 150.556L239.63 150.504ZM245.359 171.46C246.278 171.46 247.023 171.105 247.595 170.394C248.167 169.683 248.739 168.626 249.311 167.222L245.437 157.446C245.021 156.389 244.64 155.617 244.293 155.132C243.946 154.647 243.608 154.343 243.279 154.222C242.95 154.083 242.603 154.014 242.239 154.014L242.187 153.702H248.635L248.583 154.014C247.959 154.014 247.534 154.118 247.309 154.326C247.084 154.517 246.971 154.803 246.971 155.184C246.971 155.652 247.084 156.25 247.309 156.978C247.534 157.706 247.829 158.529 248.193 159.448L250.195 164.492L252.223 158.252C252.466 157.524 252.622 156.943 252.691 156.51C252.778 156.059 252.821 155.695 252.821 155.418C252.821 155.002 252.691 154.664 252.431 154.404C252.171 154.144 251.694 154.014 251.001 154.014L250.949 153.702H255.837L255.785 154.014C255.421 154.014 255.126 154.057 254.901 154.144C254.676 154.231 254.468 154.43 254.277 154.742C254.086 155.054 253.87 155.548 253.627 156.224C253.384 156.883 253.072 157.793 252.691 158.954L250.351 166.078C249.588 168.418 248.696 170.221 247.673 171.486C246.65 172.751 245.584 173.384 244.475 173.384C244.007 173.384 243.6 173.289 243.253 173.098C242.906 172.907 242.733 172.621 242.733 172.24C242.733 171.859 242.846 171.573 243.071 171.382C243.314 171.209 243.539 171.122 243.747 171.122C244.128 171.122 244.414 171.174 244.605 171.278C244.796 171.399 245.047 171.46 245.359 171.46Z" fill="white"/>
<g filter="url(#filter1_d_258_2235)">
<path d="M125.34 91.84C120.54 91.84 116.32 90.88 112.68 88.96C109.08 87 106.26 84.28 104.22 80.8C102.22 77.28 101.22 73.18 101.22 68.5C101.22 63.82 102.22 59.74 104.22 56.26C106.26 52.74 109.08 50.02 112.68 48.1C116.32 46.14 120.54 45.16 125.34 45.16C130.14 45.16 134.34 46.14 137.94 48.1C141.58 50.02 144.4 52.74 146.4 56.26C148.44 59.74 149.46 63.82 149.46 68.5C149.46 73.18 148.44 77.28 146.4 80.8C144.4 84.28 141.58 87 137.94 88.96C134.34 90.88 130.14 91.84 125.34 91.84ZM125.34 90.88C127.42 90.88 129.32 90.34 131.04 89.26C132.76 88.18 134.24 86.66 135.48 84.7C136.68 82.74 137.6 80.38 138.24 77.62C138.92 74.86 139.26 71.8 139.26 68.44C139.26 65.08 138.92 62.02 138.24 59.26C137.6 56.46 136.68 54.08 135.48 52.12C134.24 50.16 132.76 48.64 131.04 47.56C129.32 46.48 127.42 45.94 125.34 45.94C123.26 45.94 121.36 46.48 119.64 47.56C117.92 48.64 116.46 50.16 115.26 52.12C114.02 54.08 113.06 56.46 112.38 59.26C111.74 62.02 111.42 65.08 111.42 68.44C111.42 71.8 111.74 74.86 112.38 77.62C113.06 80.38 114.02 82.74 115.26 84.7C116.46 86.66 117.92 88.18 119.64 89.26C121.36 90.34 123.26 90.88 125.34 90.88ZM149.07 91L149.19 90.4H149.37C150.81 90.4 151.97 89.96 152.85 89.08C153.73 88.2 154.17 87.04 154.17 85.6V51.4C154.17 49.96 153.73 48.8 152.85 47.92C151.97 47.04 150.81 46.6 149.37 46.6L149.31 46H181.41L183.21 58.12H182.67C181.47 50.56 176.71 46.78 168.39 46.78H163.41V64.84H168.09C170.09 64.84 171.69 64.22 172.89 62.98C174.09 61.7 174.69 60.06 174.69 58.06H175.29V73.06H174.69C174.69 70.9 174.03 69.12 172.71 67.72C171.39 66.32 169.65 65.62 167.49 65.62H163.41V86.08C163.41 87.4 163.87 88.46 164.79 89.26C165.71 90.02 166.85 90.4 168.21 90.4L168.27 91H149.07ZM182.09 91V90.4L203.99 46.78H200.93C196.69 46.78 193.33 47.74 190.85 49.66C188.41 51.54 186.93 54.36 186.41 58.12H185.81L187.61 46H213.83V46.6L191.99 90.22H202.01C205.89 90.22 208.97 89.24 211.25 87.28C213.53 85.32 214.99 82.12 215.63 77.68H216.23L214.43 91H182.09ZM215.528 91L215.588 90.4H215.648C217.088 90.4 218.248 90.02 219.128 89.26C220.008 88.5 220.448 87.4 220.448 85.96V51.4C220.448 49.96 220.008 48.8 219.128 47.92C218.248 47.04 217.088 46.6 215.648 46.6L215.588 46H247.748L249.548 58.06H248.948C247.748 50.54 243.008 46.78 234.728 46.78H229.688V64.12H235.088C237.088 64.12 238.688 63.52 239.888 62.32C241.088 61.08 241.688 59.46 241.688 57.46H242.288V72.22H241.688C241.648 70.06 240.968 68.3 239.648 66.94C238.328 65.58 236.588 64.9 234.428 64.9H229.688V85.96C229.688 88.8 231.088 90.22 233.888 90.22H236.408C240.288 90.22 243.368 89.22 245.648 87.22C247.928 85.22 249.388 82.08 250.028 77.8H250.628L248.828 91H215.528ZM289.546 91.84L258.106 51.76C257.826 51.4 257.506 51.04 257.146 50.68C256.826 50.32 256.526 50.02 256.246 49.78V84.1C256.246 85.82 256.766 87.3 257.806 88.54C258.846 89.78 260.226 90.4 261.946 90.4V91H249.466V90.4C251.226 90.4 252.626 89.78 253.666 88.54C254.706 87.3 255.226 85.8 255.226 84.04V48.94C253.426 47.58 251.526 46.8 249.526 46.6V46H264.946L288.526 76.42V52.9C288.526 51.18 288.006 49.7 286.966 48.46C285.926 47.22 284.546 46.6 282.826 46.6V46H295.246V46.6C293.526 46.6 292.146 47.22 291.106 48.46C290.066 49.7 289.546 51.18 289.546 52.9V91.84Z" fill="white"/>
</g>
<defs>
<filter id="filter0_d_258_2235" x="0.900002" y="2.75254" width="392.512" height="272.347" filterUnits="userSpaceOnUse" color-interpolation-filters="sRGB">
<feFlood flood-opacity="0" result="BackgroundImageFix"/>
<feColorMatrix in="SourceAlpha" type="matrix" values="0 0 0 0 0 0 0 0 0 0 0 0 0 0 0 0 0 0 127 0" result="hardAlpha"/>
<feOffset dy="4"/>
<feGaussianBlur stdDeviation="27.05"/>
<feComposite in2="hardAlpha" operator="out"/>
<feColorMatrix type="matrix" values="0 0 0 0 0 0 0 0 0 0 0 0 0 0 0 0 0 0 0.08 0"/>
<feBlend mode="normal" in2="BackgroundImageFix" result="effect1_dropShadow_258_2235"/>
<feBlend mode="normal" in="SourceGraphic" in2="effect1_dropShadow_258_2235" result="shape"/>
</filter>
<filter id="filter1_d_258_2235" x="93.92" y="41.8602" width="208.626" height="61.2797" filterUnits="userSpaceOnUse" color-interpolation-filters="sRGB">
<feFlood flood-opacity="0" result="BackgroundImageFix"/>
<feColorMatrix in="SourceAlpha" type="matrix" values="0 0 0 0 0 0 0 0 0 0 0 0 0 0 0 0 0 0 127 0" result="hardAlpha"/>
<feOffset dy="4"/>
<feGaussianBlur stdDeviation="3.65"/>
<feComposite in2="hardAlpha" operator="out"/>
<feColorMatrix type="matrix" values="0 0 0 0 0 0 0 0 0 0 0 0 0 0 0 0 0 0 0.25 0"/>
<feBlend mode="normal" in2="BackgroundImageFix" result="effect1_dropShadow_258_2235"/>
<feBlend mode="normal" in="SourceGraphic" in2="effect1_dropShadow_258_2235" result="shape"/>
</filter>
<linearGradient id="paint0_linear_258_2235" x1="0" y1="0" x2="164.148" y2="164.148" gradientUnits="userSpaceOnUse">
<stop stop-color="#C4C4C4" stop-opacity="0.22"/>
<stop offset="0.841856" stop-color="#C4C4C4" stop-opacity="0"/>
</linearGradient>
<linearGradient id="paint1_linear_258_2235" x1="0" y1="0" x2="164.148" y2="164.148" gradientUnits="userSpaceOnUse">
<stop stop-color="#C4C4C4" stop-opacity="0.22"/>
<stop offset="0.841856" stop-color="#C4C4C4" stop-opacity="0"/>
</linearGradient>
<linearGradient id="paint2_linear_258_2235" x1="0" y1="0" x2="164.148" y2="164.148" gradientUnits="userSpaceOnUse">
<stop stop-color="#C4C4C4" stop-opacity="0.22"/>
<stop offset="0.841856" stop-color="#C4C4C4" stop-opacity="0"/>
</linearGradient>
<linearGradient id="paint3_linear_258_2235" x1="0" y1="0" x2="164.148" y2="164.148" gradientUnits="userSpaceOnUse">
<stop stop-color="#C4C4C4" stop-opacity="0.22"/>
<stop offset="0.841856" stop-color="#C4C4C4" stop-opacity="0"/>
</linearGradient>
</defs>
</svg>
