<svg width="75" height="69" viewBox="0 0 75 69" fill="none" xmlns="http://www.w3.org/2000/svg">
<g filter="url(#filter0_d_211_3665)">
<path d="M36.96 6.5H37.56L37.86 6.74V7.16L37.2 10.04L36.6 12.62L36.48 13.1V13.4L36.84 14L37.74 15.74L38.22 16.52L38.94 17.9L39.54 18.92L40.38 20.48L40.86 21.32L41.58 22.7L42.18 23.72L43.02 25.28L43.5 26.12L44.94 28.76L45.6 29.96L46.08 30.8L46.8 32.12L47.28 32.96L47.76 33.86L47.88 34.4L48 35.06V35.78L47.88 36.68L47.46 37.94L46.86 38.9L46.32 39.5L45.9 39.98L45.12 40.64L44.16 41.3L43.26 41.84L42.3 42.32L41.46 42.68L40.56 43.04L39.9 43.22L39.6 43.16L39.24 42.74L38.82 42.08L38.1 41.12L37.44 40.34L36.96 39.74L36.06 38.78L35.76 38.48V38.36L35.52 38.24L34.92 37.58L34.56 37.28V37.16L34.32 37.04L33.48 36.2L32.88 35.72L31.92 34.94L30.12 33.56L29.22 32.84L28.38 32.18L26.4 30.56V30.44L26.16 30.32L25.38 29.6L25.2 29.48V29.36L24.96 29.24L24.72 29V28.88H24.6V28.76H24.48V28.64H24.36V28.52H24.24V28.4H24.12V28.28H24V28.16H23.88V28.04H23.76L23.34 27.56L22.62 26.72L22.14 26.06L21.54 25.22L20.82 23.84L20.46 23L20.22 22.22L20.1 21.44V20.06L20.34 19.1L20.58 18.8H20.94L21.24 19.1V19.64L21.18 19.88V20.54L21.36 21.38L21.78 22.34L22.32 23.24L22.98 24.08L23.52 24.68L24.84 26L25.5 26.54L26.04 27.02L26.64 27.5L27.72 28.34L29.4 29.54L30.54 30.32L31.5 30.98L33 32L33.6 32.42L34.74 33.2L35.7 33.98L36.36 34.52L38.4 36.56L38.94 37.22L39.36 37.7L40.08 38.66L40.62 39.5L40.92 40.04L42 39.68L42.9 39.2L43.44 38.78L44.04 38.18L44.46 37.58L44.82 36.8L45.12 35.78L45.24 35.24V34.76L44.88 34.22L44.34 33.26L43.92 32.6L43.5 31.88L43.14 31.28L42.66 30.44L39.6 25.34L38.4 23.3L37.98 22.64L37.5 21.8L37.2 21.32L36.78 20.6L36.42 20L35.76 18.92L35.34 18.2L34.74 17.18L34.26 16.4L33.3 14.72L33.12 14.3L33.18 13.88L34.2 10.88L34.5 10.1L33.72 10.34L32.88 10.58L31.5 11.18L30 11.96L29.4 12.32L28.02 13.1L27.06 13.04L25.74 12.86L24.42 12.74H21.06L19.38 12.92L17.88 13.22L16.02 13.7L14.82 14.18L13.86 14.6L12.54 15.32L11.7 15.86L10.86 16.46L10.08 17.06L9.3 17.78L7.98 19.1L7.32 19.94L6.42 21.14L6 21.8L5.4 22.76L4.8 23.9L4.26 25.04L3.54 27.14L3.18 28.82L3 30.26L2.94 31.22V32.72L3.06 34.16L3.36 35.9L3.78 37.46L4.26 38.9L5.04 40.64L5.7 41.84L6.36 42.86L7.08 43.88L7.56 44.48L8.28 45.32L9.96 47L10.74 47.6L11.34 48.08L12.3 48.74L12.96 49.16L14.22 49.88L15.84 50.66L17.46 51.26L19.08 51.74L21.24 52.16L22.56 52.28L22.86 52.34H25.5L27.3 52.16L29.04 51.86L30.36 51.5L32.16 50.9L33.78 50.18L35.34 49.34L36.42 48.62L37.14 48.08L37.74 47.6L38.58 46.88L39.12 46.34L39.54 46.04L39.84 46.1L40.08 46.34V46.76L39.3 47.84L38.64 48.62L37.44 49.82L36.78 50.36L35.58 51.26L34.68 51.8L33.3 52.58L31.44 53.3L30.12 53.72L28.62 54.08L26.58 54.38L24.54 54.5H23.82L21.84 54.38L20.4 54.2L18.06 53.78L16.86 53.48L14.64 52.7L12.48 51.74L11.4 51.14L10.38 50.54L9.3 49.82L8.04 48.86L7.92 48.8V48.68L7.68 48.56L7.08 48.02L6.96 47.96V47.84L6.72 47.72L5.76 46.76L5.34 46.28L4.8 45.68L4.08 44.72L3.48 43.88L2.88 42.86L2.28 41.72L1.62 40.34L1.02 38.72L0.54 36.92L0.18 35.06L0 33.2V30.86L0.18 28.82L0.48 27.08L0.84 25.52L1.56 23.36L2.34 21.62L2.82 20.66L3.66 19.28L4.14 18.56L4.62 17.96L5.4 17L6.06 16.28L6.96 15.38L7.62 14.84L8.22 14.3L9.36 13.52L10.14 12.98L11.58 12.2L12.54 11.72L13.38 11.36L15.18 10.7L16.56 10.28L18.36 9.86L20.7 9.5L22.56 9.32L23.58 9.26H28.44L28.74 9.02L30 8.3L31.02 7.82L32.46 7.34L34.2 6.92L36 6.62L36.96 6.5Z" fill="url(#paint0_linear_211_3665)" shape-rendering="crispEdges"/>
</g>
<defs>
<filter id="filter0_d_211_3665" x="0" y="0.9" width="74.6" height="67.2" filterUnits="userSpaceOnUse" color-interpolation-filters="sRGB">
<feFlood flood-opacity="0" result="BackgroundImageFix"/>
<feColorMatrix in="SourceAlpha" type="matrix" values="0 0 0 0 0 0 0 0 0 0 0 0 0 0 0 0 0 0 127 0" result="hardAlpha"/>
<feOffset dx="17" dy="4"/>
<feGaussianBlur stdDeviation="4.8"/>
<feComposite in2="hardAlpha" operator="out"/>
<feColorMatrix type="matrix" values="0 0 0 0 0 0 0 0 0 0 0 0 0 0 0 0 0 0 0.25 0"/>
<feBlend mode="normal" in2="BackgroundImageFix" result="effect1_dropShadow_211_3665"/>
<feBlend mode="normal" in="SourceGraphic" in2="effect1_dropShadow_211_3665" result="shape"/>
</filter>
<linearGradient id="paint0_linear_211_3665" x1="0" y1="30.5" x2="48" y2="30.5" gradientUnits="userSpaceOnUse">
<stop stop-color="white"/>
<stop offset="1" stop-color="white" stop-opacity="0.4"/>
</linearGradient>
</defs>
</svg>
