<svg width="962" height="1274" viewBox="0 0 962 1274" fill="none" xmlns="http://www.w3.org/2000/svg">
<g opacity="0.1">
<g filter="url(#filter0_f_214_2888)">
<path d="M426.221 381.21L408.491 396.263L648.153 805.316L673.179 773.63L426.221 381.21Z" fill="url(#paint0_linear_214_2888)"/>
</g>
<g style="mix-blend-mode:plus-lighter" opacity="0.3" filter="url(#filter1_f_214_2888)">
<path d="M475.831 315.805L450.498 335.438L688.235 745.651L725.776 706.424L475.831 315.805Z" fill="url(#paint1_linear_214_2888)"/>
</g>
<g style="mix-blend-mode:plus-lighter" opacity="0.86" filter="url(#filter2_f_214_2888)">
<path d="M444.134 313.384L412.141 337.03L648.192 748.259L696.696 702.427L444.134 313.384Z" fill="url(#paint2_linear_214_2888)"/>
</g>
<g style="mix-blend-mode:plus-lighter" opacity="0.31" filter="url(#filter3_f_214_2888)">
<path d="M389.857 605.664C406.85 623.652 496.047 550.571 531.003 509.942C565.959 469.312 618.343 377.832 601.351 359.844C584.358 341.856 504.423 404.171 469.467 444.8C434.511 485.43 372.864 587.675 389.857 605.664Z" fill="#50A0FF"/>
</g>
<g style="mix-blend-mode:plus-lighter" filter="url(#filter4_f_214_2888)">
<path d="M513.065 501.959L756.728 907.992" stroke="url(#paint3_linear_214_2888)" stroke-width="3.71446"/>
</g>
<g style="mix-blend-mode:plus-lighter" filter="url(#filter5_f_214_2888)">
<path d="M500.13 528.953L745.695 933.839" stroke="url(#paint4_linear_214_2888)" stroke-width="3.71446"/>
</g>
<g style="mix-blend-mode:plus-lighter" filter="url(#filter6_f_214_2888)">
<path d="M512.627 459.378L643.408 668.633" stroke="url(#paint5_linear_214_2888)" stroke-width="7.42891"/>
</g>
</g>
<g opacity="0.49" filter="url(#filter7_f_214_2888)">
<ellipse cx="0.388368" cy="0.697982" rx="0.388368" ry="0.697982" transform="matrix(-0.706366 0.707846 0.707846 0.706366 456.547 470.735)" fill="white"/>
</g>
<g opacity="0.49" filter="url(#filter8_f_214_2888)">
<ellipse cx="0.543663" cy="0.585183" rx="0.543663" ry="0.585183" transform="matrix(-0.976998 -0.213248 0.329717 0.94408 456.269 473.435)" fill="white"/>
</g>
<ellipse opacity="0.49" cx="0.198389" cy="0.307314" rx="0.198389" ry="0.307314" transform="matrix(-0.975016 0.222134 0.559439 0.828871 439.687 470.19)" fill="white"/>
<ellipse opacity="0.49" cx="0.66156" cy="0.830477" rx="0.66156" ry="0.830477" transform="matrix(-0.0675996 -0.997712 -0.902934 -0.429779 434.679 513.245)" fill="white"/>
<ellipse opacity="0.49" cx="0.480586" cy="0.268322" rx="0.480586" ry="0.268322" transform="matrix(0.68853 0.725207 0.765173 -0.643824 440.302 475.343)" fill="white"/>
<ellipse opacity="0.49" cx="0.862226" cy="0.928075" rx="0.862226" ry="0.928075" transform="matrix(-0.976998 -0.213248 0.329717 0.94408 490.659 505.21)" fill="white"/>
<ellipse opacity="0.49" cx="1.07551" cy="0.669348" rx="1.07551" ry="0.669348" transform="matrix(-0.583128 -0.81238 -0.956541 0.291598 443.623 457.028)" fill="white"/>
<ellipse opacity="0.49" cx="0.789303" cy="0.990837" rx="0.789303" ry="0.990837" transform="matrix(-0.0675996 -0.997712 -0.902934 -0.429779 461.468 513.225)" fill="white"/>
<ellipse opacity="0.49" cx="0.528129" cy="0.7708" rx="0.528129" ry="0.7708" transform="matrix(-0.12331 0.992368 0.853464 0.521152 520.071 581.525)" fill="white"/>
<ellipse opacity="0.49" cx="0.816021" cy="0.45515" rx="0.816021" ry="0.45515" transform="matrix(-0.723704 -0.69011 -0.65268 0.757634 574.722 609.698)" fill="white"/>
<ellipse opacity="0.49" cx="0.501934" cy="0.390029" rx="0.501934" ry="0.390029" transform="matrix(0.895447 0.445169 -0.0399895 -0.9992 472.149 559.143)" fill="white"/>
<ellipse opacity="0.49" cx="0.319247" cy="0.549674" rx="0.319247" ry="0.549674" transform="matrix(-0.460086 0.887874 0.773301 0.634039 588.789 578.113)" fill="white"/>
<ellipse opacity="0.49" cx="0.528129" cy="0.7708" rx="0.528129" ry="0.7708" transform="matrix(-0.12331 0.992368 0.853464 0.521152 535.07 540.137)" fill="white"/>
<ellipse opacity="0.49" cx="0.816021" cy="0.45515" rx="0.816021" ry="0.45515" transform="matrix(-0.723704 -0.69011 -0.65268 0.757634 623.523 664.982)" fill="white"/>
<ellipse opacity="0.49" cx="0.501934" cy="0.390029" rx="0.501934" ry="0.390029" transform="matrix(0.895447 0.445169 -0.0399895 -0.9992 431.643 533.684)" fill="white"/>
<ellipse opacity="0.49" cx="0.319247" cy="0.549674" rx="0.319247" ry="0.549674" transform="matrix(-0.460086 0.887874 0.773301 0.634039 607.882 557.566)" fill="white"/>
<ellipse opacity="0.49" cx="0.455047" cy="0.816079" rx="0.455047" ry="0.816079" transform="matrix(-0.753217 0.657772 0.692667 0.721258 540.268 591.422)" fill="white"/>
<ellipse opacity="0.49" cx="0.771363" cy="0.527306" rx="0.771363" ry="0.527306" transform="matrix(-0.524316 -0.851524 -0.991669 0.128815 568.271 622.563)" fill="white"/>
<ellipse opacity="0.49" cx="0.553728" cy="0.312163" rx="0.553728" ry="0.312163" transform="matrix(0.74431 0.667834 0.576525 -0.817079 469.735 546.371)" fill="white"/>
<ellipse opacity="0.49" cx="0.333052" cy="0.541421" rx="0.333052" ry="0.541421" transform="matrix(-0.948789 0.315911 0.591036 0.806645 602.305 587.452)" fill="white"/>
<ellipse opacity="0.49" cx="0.455047" cy="0.816079" rx="0.455047" ry="0.816079" transform="matrix(-0.753217 0.657772 0.692667 0.721258 555.277 550.038)" fill="white"/>
<ellipse opacity="0.49" cx="0.771363" cy="0.527306" rx="0.771363" ry="0.527306" transform="matrix(-0.524316 -0.851524 -0.991669 0.128815 617.075 677.856)" fill="white"/>
<ellipse opacity="0.49" cx="0.553728" cy="0.312163" rx="0.553728" ry="0.312163" transform="matrix(0.74431 0.667834 0.576525 -0.817079 429.227 520.914)" fill="white"/>
<ellipse opacity="0.49" cx="0.333052" cy="0.541421" rx="0.333052" ry="0.541421" transform="matrix(-0.948789 0.315911 0.591036 0.806645 621.389 566.892)" fill="white"/>
<ellipse opacity="0.49" cx="0.528129" cy="0.7708" rx="0.528129" ry="0.7708" transform="matrix(-0.12331 0.992368 0.853464 0.521152 495.17 542.641)" fill="white"/>
<ellipse opacity="0.49" cx="0.816021" cy="0.45515" rx="0.816021" ry="0.45515" transform="matrix(-0.723704 -0.69011 -0.65268 0.757634 611.99 618.852)" fill="white"/>
<ellipse opacity="0.49" cx="0.501934" cy="0.390029" rx="0.501934" ry="0.390029" transform="matrix(0.895447 0.445169 -0.0399895 -0.9992 453.924 566.121)" fill="white"/>
<ellipse opacity="0.49" cx="0.319247" cy="0.549674" rx="0.319247" ry="0.549674" transform="matrix(-0.460086 0.887874 0.773301 0.634039 577.101 551.571)" fill="white"/>
<ellipse opacity="0.49" cx="0.528129" cy="0.7708" rx="0.528129" ry="0.7708" transform="matrix(-0.12331 0.992368 0.853464 0.521152 510.177 501.255)" fill="white"/>
<ellipse opacity="0.49" cx="0.816021" cy="0.45515" rx="0.816021" ry="0.45515" transform="matrix(-0.723704 -0.69011 -0.65268 0.757634 660.799 674.144)" fill="white"/>
<ellipse opacity="0.49" cx="0.501934" cy="0.390029" rx="0.501934" ry="0.390029" transform="matrix(0.895447 0.445169 -0.0399895 -0.9992 413.42 540.664)" fill="white"/>
<ellipse opacity="0.49" cx="0.319247" cy="0.549674" rx="0.319247" ry="0.549674" transform="matrix(-0.460086 0.887874 0.773301 0.634039 596.204 531.03)" fill="white"/>
<ellipse opacity="0.49" cx="0.455047" cy="0.816079" rx="0.455047" ry="0.816079" transform="matrix(-0.753217 0.657772 0.692667 0.721258 530.925 554.135)" fill="white"/>
<ellipse opacity="0.49" cx="0.771363" cy="0.527306" rx="0.771363" ry="0.527306" transform="matrix(-0.524316 -0.851524 -0.991669 0.128815 607.224 647.302)" fill="white"/>
<ellipse opacity="0.49" cx="0.553728" cy="0.312163" rx="0.553728" ry="0.312163" transform="matrix(0.74431 0.667834 0.576525 -0.817079 444.864 541.551)" fill="white"/>
<ellipse opacity="0.49" cx="0.333052" cy="0.541421" rx="0.333052" ry="0.541421" transform="matrix(-0.948789 0.315911 0.591036 0.806645 602.135 564.691)" fill="white"/>
<ellipse opacity="0.49" cx="0.455047" cy="0.816079" rx="0.455047" ry="0.816079" transform="matrix(-0.753217 0.657772 0.692667 0.721258 545.926 512.744)" fill="white"/>
<ellipse opacity="0.49" cx="0.771363" cy="0.527306" rx="0.771363" ry="0.527306" transform="matrix(-0.524316 -0.851524 -0.991669 0.128815 656.022 702.584)" fill="white"/>
<ellipse opacity="0.49" cx="0.553728" cy="0.312163" rx="0.553728" ry="0.312163" transform="matrix(0.74431 0.667834 0.576525 -0.817079 404.358 516.096)" fill="white"/>
<ellipse opacity="0.49" cx="0.333052" cy="0.541421" rx="0.333052" ry="0.541421" transform="matrix(-0.948789 0.315911 0.591036 0.806645 621.222 544.134)" fill="white"/>
<ellipse opacity="0.49" cx="0.624234" cy="0.695258" rx="0.624234" ry="0.695258" transform="matrix(0.185431 0.982657 0.936131 0.351652 488.467 561.758)" fill="white"/>
<ellipse opacity="0.49" cx="0.78889" cy="0.500704" rx="0.78889" ry="0.500704" transform="matrix(-0.822669 -0.56852 -0.251143 0.96795 589.501 593.565)" fill="white"/>
<ellipse opacity="0.49" cx="0.442115" cy="0.456722" rx="0.442115" ry="0.456722" transform="matrix(0.968923 0.247362 -0.299793 -0.954004 472.524 577.708)" fill="white"/>
<ellipse opacity="0.49" cx="0.368281" cy="0.518102" rx="0.368281" ry="0.518102" transform="matrix(-0.0708183 0.997489 0.866565 0.499065 568.459 561.109)" fill="white"/>
<ellipse opacity="0.49" cx="0.758149" cy="0.84441" rx="0.758149" ry="0.84441" transform="matrix(0.185431 0.982657 0.936131 0.351652 505.28 515.369)" fill="white"/>
<ellipse opacity="0.49" cx="0.958128" cy="0.608119" rx="0.958128" ry="0.608119" transform="matrix(-0.822669 -0.56852 -0.251143 0.96795 644.207 655.536)" fill="white"/>
<ellipse opacity="0.49" cx="0.536961" cy="0.554701" rx="0.536961" ry="0.554701" transform="matrix(0.968923 0.247362 -0.299793 -0.954004 427.121 549.17)" fill="white"/>
<ellipse opacity="0.49" cx="0.447287" cy="0.629249" rx="0.447287" ry="0.629249" transform="matrix(-0.0708183 0.997489 0.866565 0.499065 589.855 538.072)" fill="white"/>
<ellipse opacity="0.49" cx="0.624234" cy="0.695258" rx="0.624234" ry="0.695258" transform="matrix(0.185431 0.982657 0.936131 0.351652 524.479 613.296)" fill="white"/>
<ellipse opacity="0.49" cx="0.78889" cy="0.500704" rx="0.78889" ry="0.500704" transform="matrix(-0.822669 -0.56852 -0.251143 0.96795 540.749 584.721)" fill="white"/>
<ellipse opacity="0.49" cx="0.442115" cy="0.456722" rx="0.442115" ry="0.456722" transform="matrix(0.968923 0.247362 -0.299793 -0.954004 495.145 566.058)" fill="white"/>
<ellipse opacity="0.49" cx="0.368281" cy="0.518102" rx="0.368281" ry="0.518102" transform="matrix(-0.0708183 0.997489 0.866565 0.499065 586.245 596.861)" fill="white"/>
<ellipse opacity="0.49" cx="0.624234" cy="0.695258" rx="0.624234" ry="0.695258" transform="matrix(0.185431 0.982657 0.936131 0.351652 539.488 571.918)" fill="white"/>
<ellipse opacity="0.49" cx="0.78889" cy="0.500704" rx="0.78889" ry="0.500704" transform="matrix(-0.822669 -0.56852 -0.251143 0.96795 589.549 640.005)" fill="white"/>
<ellipse opacity="0.49" cx="0.442115" cy="0.456722" rx="0.442115" ry="0.456722" transform="matrix(0.968923 0.247362 -0.299793 -0.954004 454.634 540.598)" fill="white"/>
<ellipse opacity="0.49" cx="0.368281" cy="0.518102" rx="0.368281" ry="0.518102" transform="matrix(-0.0708183 0.997489 0.866565 0.499065 605.332 576.303)" fill="white"/>
<ellipse opacity="0.49" cx="0.528129" cy="0.7708" rx="0.528129" ry="0.7708" transform="matrix(-0.12331 0.992368 0.853464 0.521152 470.28 503.761)" fill="white"/>
<ellipse opacity="0.49" cx="0.501934" cy="0.390029" rx="0.501934" ry="0.390029" transform="matrix(0.895447 0.445169 -0.0399895 -0.9992 435.709 573.114)" fill="white"/>
<ellipse opacity="0.49" cx="0.528129" cy="0.7708" rx="0.528129" ry="0.7708" transform="matrix(-0.12331 0.992368 0.853464 0.521152 485.278 462.368)" fill="white"/>
<ellipse opacity="0.49" cx="0.501934" cy="0.390029" rx="0.501934" ry="0.390029" transform="matrix(0.895447 0.445169 -0.0399895 -0.9992 395.196 547.647)" fill="white"/>
<ellipse opacity="0.49" cx="0.552666" cy="0.99115" rx="0.552666" ry="0.99115" transform="matrix(-0.753217 0.657772 0.692667 0.721258 527.269 511.08)" fill="white"/>
<ellipse opacity="0.49" cx="0.672518" cy="0.379131" rx="0.672518" ry="0.379131" transform="matrix(0.74431 0.667834 0.576525 -0.817079 412.527 530.338)" fill="white"/>
<ellipse opacity="0.49" cx="0.455047" cy="0.816079" rx="0.455047" ry="0.816079" transform="matrix(-0.753217 0.657772 0.692667 0.721258 536.583 475.458)" fill="white"/>
<ellipse opacity="0.49" cx="0.553728" cy="0.312163" rx="0.553728" ry="0.312163" transform="matrix(0.74431 0.667834 0.576525 -0.817079 379.487 511.276)" fill="white"/>
<ellipse opacity="0.49" cx="0.624234" cy="0.695258" rx="0.624234" ry="0.695258" transform="matrix(0.185431 0.982657 0.936131 0.351652 456.274 525.729)" fill="white"/>
<ellipse opacity="0.49" cx="0.442115" cy="0.456722" rx="0.442115" ry="0.456722" transform="matrix(0.968923 0.247362 -0.299793 -0.954004 460.29 591.419)" fill="white"/>
<ellipse opacity="0.49" cx="0.624234" cy="0.695258" rx="0.624234" ry="0.695258" transform="matrix(0.185431 0.982657 0.936131 0.351652 471.275 484.338)" fill="white"/>
<ellipse opacity="0.49" cx="0.442115" cy="0.456722" rx="0.442115" ry="0.456722" transform="matrix(0.968923 0.247362 -0.299793 -0.954004 419.774 565.954)" fill="white"/>
<ellipse opacity="0.49" cx="0.624234" cy="0.695258" rx="0.624234" ry="0.695258" transform="matrix(0.185431 0.982657 0.936131 0.351652 492.285 577.268)" fill="white"/>
<ellipse opacity="0.49" cx="0.442115" cy="0.456722" rx="0.442115" ry="0.456722" transform="matrix(0.968923 0.247362 -0.299793 -0.954004 482.908 579.772)" fill="white"/>
<ellipse opacity="0.49" cx="0.758149" cy="0.84441" rx="0.758149" ry="0.84441" transform="matrix(0.185431 0.982657 0.936131 0.351652 509.919 534.209)" fill="white"/>
<ellipse opacity="0.49" cx="0.536961" cy="0.554701" rx="0.536961" ry="0.554701" transform="matrix(0.968923 0.247362 -0.299793 -0.954004 439.721 551.669)" fill="white"/>
<g opacity="0.49" filter="url(#filter9_f_214_2888)">
<ellipse cx="4.79584" cy="8.61917" rx="4.79584" ry="8.61917" transform="matrix(-0.706366 0.707846 0.707846 0.706366 460.027 493)" fill="#DDFFE9"/>
</g>
<g opacity="0.49" filter="url(#filter10_f_214_2888)">
<ellipse cx="4.79584" cy="8.61917" rx="4.79584" ry="8.61917" transform="matrix(-0.706366 0.707846 0.707846 0.706366 118.492 953.377)" fill="#DDFFE9"/>
</g>
<g opacity="0.49" filter="url(#filter11_f_214_2888)">
<ellipse cx="4.79584" cy="8.61917" rx="4.79584" ry="8.61917" transform="matrix(-0.706366 0.707846 0.707846 0.706366 119.451 956.642)" fill="#DDFFE9"/>
</g>
<g opacity="0.4" filter="url(#filter12_f_214_2888)">
<ellipse cx="2.52557" cy="329.157" rx="2.52557" ry="329.157" transform="matrix(0.493824 -0.869562 -0.765112 -0.643897 863.719 832.597)" fill="#DDFFE9"/>
</g>
<defs>
<filter id="filter0_f_214_2888" x="363.917" y="336.637" width="353.835" height="513.253" filterUnits="userSpaceOnUse" color-interpolation-filters="sRGB">
<feFlood flood-opacity="0" result="BackgroundImageFix"/>
<feBlend mode="normal" in="SourceGraphic" in2="BackgroundImageFix" result="shape"/>
<feGaussianBlur stdDeviation="22.2867" result="effect1_foregroundBlur_214_2888"/>
</filter>
<filter id="filter1_f_214_2888" x="428.211" y="293.518" width="319.852" height="474.42" filterUnits="userSpaceOnUse" color-interpolation-filters="sRGB">
<feFlood flood-opacity="0" result="BackgroundImageFix"/>
<feBlend mode="normal" in="SourceGraphic" in2="BackgroundImageFix" result="shape"/>
<feGaussianBlur stdDeviation="11.1434" result="effect1_foregroundBlur_214_2888"/>
</filter>
<filter id="filter2_f_214_2888" x="371.282" y="272.525" width="366.274" height="516.593" filterUnits="userSpaceOnUse" color-interpolation-filters="sRGB">
<feFlood flood-opacity="0" result="BackgroundImageFix"/>
<feBlend mode="normal" in="SourceGraphic" in2="BackgroundImageFix" result="shape"/>
<feGaussianBlur stdDeviation="20.4295" result="effect1_foregroundBlur_214_2888"/>
</filter>
<filter id="filter3_f_214_2888" x="30.3655" y="0.0728149" width="930.876" height="964.976" filterUnits="userSpaceOnUse" color-interpolation-filters="sRGB">
<feFlood flood-opacity="0" result="BackgroundImageFix"/>
<feBlend mode="normal" in="SourceGraphic" in2="BackgroundImageFix" result="shape"/>
<feGaussianBlur stdDeviation="178.294" result="effect1_foregroundBlur_214_2888"/>
</filter>
<filter id="filter4_f_214_2888" x="481.971" y="471.286" width="305.851" height="467.379" filterUnits="userSpaceOnUse" color-interpolation-filters="sRGB">
<feFlood flood-opacity="0" result="BackgroundImageFix"/>
<feBlend mode="normal" in="SourceGraphic" in2="BackgroundImageFix" result="shape"/>
<feGaussianBlur stdDeviation="14.8578" result="effect1_foregroundBlur_214_2888"/>
</filter>
<filter id="filter5_f_214_2888" x="472.756" y="501.989" width="300.314" height="458.814" filterUnits="userSpaceOnUse" color-interpolation-filters="sRGB">
<feFlood flood-opacity="0" result="BackgroundImageFix"/>
<feBlend mode="normal" in="SourceGraphic" in2="BackgroundImageFix" result="shape"/>
<feGaussianBlur stdDeviation="13.0006" result="effect1_foregroundBlur_214_2888"/>
</filter>
<filter id="filter6_f_214_2888" x="483.899" y="431.446" width="188.238" height="265.119" filterUnits="userSpaceOnUse" color-interpolation-filters="sRGB">
<feFlood flood-opacity="0" result="BackgroundImageFix"/>
<feBlend mode="normal" in="SourceGraphic" in2="BackgroundImageFix" result="shape"/>
<feGaussianBlur stdDeviation="13.0006" result="effect1_foregroundBlur_214_2888"/>
</filter>
<filter id="filter7_f_214_2888" x="453.916" y="468.653" width="5.70186" height="5.70058" filterUnits="userSpaceOnUse" color-interpolation-filters="sRGB">
<feFlood flood-opacity="0" result="BackgroundImageFix"/>
<feBlend mode="normal" in="SourceGraphic" in2="BackgroundImageFix" result="shape"/>
<feGaussianBlur stdDeviation="1.14286" result="effect1_foregroundBlur_214_2888"/>
</filter>
<filter id="filter8_f_214_2888" x="453.08" y="471.021" width="5.70195" height="5.70058" filterUnits="userSpaceOnUse" color-interpolation-filters="sRGB">
<feFlood flood-opacity="0" result="BackgroundImageFix"/>
<feBlend mode="normal" in="SourceGraphic" in2="BackgroundImageFix" result="shape"/>
<feGaussianBlur stdDeviation="1.14286" result="effect1_foregroundBlur_214_2888"/>
</filter>
<filter id="filter9_f_214_2888" x="405.929" y="445.679" width="113.624" height="113.608" filterUnits="userSpaceOnUse" color-interpolation-filters="sRGB">
<feFlood flood-opacity="0" result="BackgroundImageFix"/>
<feBlend mode="normal" in="SourceGraphic" in2="BackgroundImageFix" result="shape"/>
<feGaussianBlur stdDeviation="24.9161" result="effect1_foregroundBlur_214_2888"/>
</filter>
<filter id="filter10_f_214_2888" x="64.3934" y="906.056" width="113.624" height="113.608" filterUnits="userSpaceOnUse" color-interpolation-filters="sRGB">
<feFlood flood-opacity="0" result="BackgroundImageFix"/>
<feBlend mode="normal" in="SourceGraphic" in2="BackgroundImageFix" result="shape"/>
<feGaussianBlur stdDeviation="24.9161" result="effect1_foregroundBlur_214_2888"/>
</filter>
<filter id="filter11_f_214_2888" x="65.3526" y="909.321" width="113.624" height="113.608" filterUnits="userSpaceOnUse" color-interpolation-filters="sRGB">
<feFlood flood-opacity="0" result="BackgroundImageFix"/>
<feBlend mode="normal" in="SourceGraphic" in2="BackgroundImageFix" result="shape"/>
<feGaussianBlur stdDeviation="24.9161" result="effect1_foregroundBlur_214_2888"/>
</filter>
<filter id="filter12_f_214_2888" x="279.553" y="324.778" width="667.141" height="587.361" filterUnits="userSpaceOnUse" color-interpolation-filters="sRGB">
<feFlood flood-opacity="0" result="BackgroundImageFix"/>
<feBlend mode="normal" in="SourceGraphic" in2="BackgroundImageFix" result="shape"/>
<feGaussianBlur stdDeviation="40.8629" result="effect1_foregroundBlur_214_2888"/>
</filter>
<linearGradient id="paint0_linear_214_2888" x1="366.053" y1="332.669" x2="843.297" y2="1063.34" gradientUnits="userSpaceOnUse">
<stop offset="0.214779" stop-color="#53A2FF"/>
<stop offset="0.781583" stop-color="#53A2FF" stop-opacity="0"/>
</linearGradient>
<linearGradient id="paint1_linear_214_2888" x1="406.89" y1="272.549" x2="876.857" y2="1008.25" gradientUnits="userSpaceOnUse">
<stop offset="0.214779" stop-color="#53A2FF"/>
<stop offset="0.781583" stop-color="#53A2FF" stop-opacity="0"/>
</linearGradient>
<linearGradient id="paint2_linear_214_2888" x1="367.509" y1="274.758" x2="833.74" y2="1012.96" gradientUnits="userSpaceOnUse">
<stop offset="0.214779" stop-color="#53A2FF"/>
<stop offset="0.781583" stop-color="#53A2FF" stop-opacity="0"/>
</linearGradient>
<linearGradient id="paint3_linear_214_2888" x1="552.475" y1="563.882" x2="671.878" y2="789.96" gradientUnits="userSpaceOnUse">
<stop stop-color="#81BBFF"/>
<stop offset="1" stop-color="#81BBFF" stop-opacity="0"/>
</linearGradient>
<linearGradient id="paint4_linear_214_2888" x1="517.153" y1="557.672" x2="660.592" y2="801.767" gradientUnits="userSpaceOnUse">
<stop stop-color="#81BBFF"/>
<stop offset="1" stop-color="#81BBFF" stop-opacity="0"/>
</linearGradient>
<linearGradient id="paint5_linear_214_2888" x1="530.468" y1="487.592" x2="684.352" y2="725.187" gradientUnits="userSpaceOnUse">
<stop stop-color="#81BBFF"/>
<stop offset="1" stop-color="#81BBFF" stop-opacity="0"/>
</linearGradient>
</defs>
</svg>
