<svg width="185" height="48" viewBox="0 0 185 48" fill="none" xmlns="http://www.w3.org/2000/svg">
<path d="M60.4531 7.45312H66.1719V42H60.4531V7.45312ZM80.6094 26.4375H68.0938V22.5938H80.6094V26.4375ZM82.0625 7.45312V11.7188H68.0938V7.45312H82.0625ZM112.728 7.45312V12L96.275 36.7031L95.3375 37.4531H112.728V42H89.7594V37.4531L106.212 12.75L107.197 12H89.7594V7.45312H112.728ZM123.191 7.45312H128.909V42H123.191V7.45312ZM143.347 26.4375H130.831V22.5938H143.347V26.4375ZM130.831 37.7344H144.8V42H130.831V37.7344ZM144.8 7.45312V11.7188H130.831V7.45312H144.8ZM174.153 7.45312H179.872V42H174.153L162.528 21.5625V10.7812L174.153 31.2656V7.45312ZM154.887 42V7.45312H160.606V42H154.887Z" fill="white"/>
<path d="M36.96 0H37.56L37.86 0.24V0.66L37.2 3.54L36.6 6.12L36.48 6.6V6.9L36.84 7.5L37.74 9.24L38.22 10.02L38.94 11.4L39.54 12.42L40.38 13.98L40.86 14.82L41.58 16.2L42.18 17.22L43.02 18.78L43.5 19.62L44.94 22.26L45.6 23.46L46.08 24.3L46.8 25.62L47.28 26.46L47.76 27.36L47.88 27.9L48 28.56V29.28L47.88 30.18L47.46 31.44L46.86 32.4L46.32 33L45.9 33.48L45.12 34.14L44.16 34.8L43.26 35.34L42.3 35.82L41.46 36.18L40.56 36.54L39.9 36.72L39.6 36.66L39.24 36.24L38.82 35.58L38.1 34.62L37.44 33.84L36.96 33.24L36.06 32.28L35.76 31.98V31.86L35.52 31.74L34.92 31.08L34.56 30.78V30.66L34.32 30.54L33.48 29.7L32.88 29.22L31.92 28.44L30.12 27.06L29.22 26.34L28.38 25.68L26.4 24.06V23.94L26.16 23.82L25.38 23.1L25.2 22.98V22.86L24.96 22.74L24.72 22.5V22.38H24.6V22.26H24.48V22.14H24.36V22.02H24.24V21.9H24.12V21.78H24V21.66H23.88V21.54H23.76L23.34 21.06L22.62 20.22L22.14 19.56L21.54 18.72L20.82 17.34L20.46 16.5L20.22 15.72L20.1 14.94V13.56L20.34 12.6L20.58 12.3H20.94L21.24 12.6V13.14L21.18 13.38V14.04L21.36 14.88L21.78 15.84L22.32 16.74L22.98 17.58L23.52 18.18L24.84 19.5L25.5 20.04L26.04 20.52L26.64 21L27.72 21.84L29.4 23.04L30.54 23.82L31.5 24.48L33 25.5L33.6 25.92L34.74 26.7L35.7 27.48L36.36 28.02L38.4 30.06L38.94 30.72L39.36 31.2L40.08 32.16L40.62 33L40.92 33.54L42 33.18L42.9 32.7L43.44 32.28L44.04 31.68L44.46 31.08L44.82 30.3L45.12 29.28L45.24 28.74V28.26L44.88 27.72L44.34 26.76L43.92 26.1L43.5 25.38L43.14 24.78L42.66 23.94L39.6 18.84L38.4 16.8L37.98 16.14L37.5 15.3L37.2 14.82L36.78 14.1L36.42 13.5L35.76 12.42L35.34 11.7L34.74 10.68L34.26 9.9L33.3 8.22L33.12 7.8L33.18 7.38L34.2 4.38L34.5 3.6L33.72 3.84L32.88 4.08L31.5 4.68L30 5.46L29.4 5.82L28.02 6.6L27.06 6.54L25.74 6.36L24.42 6.24H21.06L19.38 6.42L17.88 6.72L16.02 7.2L14.82 7.68L13.86 8.1L12.54 8.82L11.7 9.36L10.86 9.96L10.08 10.56L9.3 11.28L7.98 12.6L7.32 13.44L6.42 14.64L6 15.3L5.4 16.26L4.8 17.4L4.26 18.54L3.54 20.64L3.18 22.32L3 23.76L2.94 24.72V26.22L3.06 27.66L3.36 29.4L3.78 30.96L4.26 32.4L5.04 34.14L5.7 35.34L6.36 36.36L7.08 37.38L7.56 37.98L8.28 38.82L9.96 40.5L10.74 41.1L11.34 41.58L12.3 42.24L12.96 42.66L14.22 43.38L15.84 44.16L17.46 44.76L19.08 45.24L21.24 45.66L22.56 45.78L22.86 45.84H25.5L27.3 45.66L29.04 45.36L30.36 45L32.16 44.4L33.78 43.68L35.34 42.84L36.42 42.12L37.14 41.58L37.74 41.1L38.58 40.38L39.12 39.84L39.54 39.54L39.84 39.6L40.08 39.84V40.26L39.3 41.34L38.64 42.12L37.44 43.32L36.78 43.86L35.58 44.76L34.68 45.3L33.3 46.08L31.44 46.8L30.12 47.22L28.62 47.58L26.58 47.88L24.54 48H23.82L21.84 47.88L20.4 47.7L18.06 47.28L16.86 46.98L14.64 46.2L12.48 45.24L11.4 44.64L10.38 44.04L9.3 43.32L8.04 42.36L7.92 42.3V42.18L7.68 42.06L7.08 41.52L6.96 41.46V41.34L6.72 41.22L5.76 40.26L5.34 39.78L4.8 39.18L4.08 38.22L3.48 37.38L2.88 36.36L2.28 35.22L1.62 33.84L1.02 32.22L0.54 30.42L0.18 28.56L0 26.7V24.36L0.18 22.32L0.48 20.58L0.84 19.02L1.56 16.86L2.34 15.12L2.82 14.16L3.66 12.78L4.14 12.06L4.62 11.46L5.4 10.5L6.06 9.78L6.96 8.88L7.62 8.34L8.22 7.8L9.36 7.02L10.14 6.48L11.58 5.7L12.54 5.22L13.38 4.86L15.18 4.2L16.56 3.78L18.36 3.36L20.7 3L22.56 2.82L23.58 2.76H28.44L28.74 2.52L30 1.8L31.02 1.32L32.46 0.84L34.2 0.42L36 0.12L36.96 0Z" fill="white"/>
</svg>
