<svg width="1440" height="2466" viewBox="0 0 1440 2466" fill="none" xmlns="http://www.w3.org/2000/svg">
<ellipse opacity="0.49" cx="1.39075" cy="1.32527" rx="1.39075" ry="1.32527" transform="matrix(-0.810273 -0.586052 0.666547 -0.745463 1311.09 5.94678)" fill="#5FF3A8"/>
<ellipse opacity="0.49" cx="1.63348" cy="1.60782" rx="1.63348" ry="1.60782" transform="matrix(0.852905 -0.522066 0.614886 0.788616 1181.09 38.646)" fill="#5FF3A8"/>
<ellipse opacity="0.49" cx="1.65929" cy="1.58117" rx="1.65929" ry="1.58117" transform="matrix(-0.810273 -0.586052 0.666547 -0.745463 1255.95 26.1226)" fill="#5FF3A8"/>
<ellipse opacity="0.49" cx="1.24106" cy="1.14796" rx="1.24106" ry="1.14796" transform="matrix(0.88775 0.460326 -0.532588 0.846375 1261.53 151.176)" fill="#02FF58"/>
<ellipse opacity="0.49" cx="1.12569" cy="1.2613" rx="1.12569" ry="1.2613" transform="matrix(0.155292 -0.987869 0.989276 0.14606 1201.14 225.74)" fill="#02FF58"/>
<ellipse opacity="0.49" cx="0.791297" cy="0.834617" rx="0.791297" ry="0.834617" transform="matrix(-0.64691 0.762566 -0.823833 -0.566832 1318.78 88.5415)" fill="#02FF58"/>
<ellipse opacity="0.49" cx="0.855577" cy="0.768587" rx="0.855577" ry="0.768587" transform="matrix(0.964868 0.262734 -0.300236 0.953865 1113.87 198.953)" fill="#02FF58"/>
<ellipse opacity="0.49" cx="1.24106" cy="1.14796" rx="1.24106" ry="1.14796" transform="matrix(0.88775 0.460326 -0.532588 0.846375 1154.24 113.484)" fill="#02FF58"/>
<ellipse opacity="0.49" cx="1.12569" cy="1.2613" rx="1.12569" ry="1.2613" transform="matrix(0.155292 -0.987869 0.989276 0.14606 1202.85 327.991)" fill="#02FF58"/>
<ellipse opacity="0.49" cx="0.791297" cy="0.834617" rx="0.791297" ry="0.834617" transform="matrix(-0.64691 0.762566 -0.823833 -0.566832 1355.09 27.8564)" fill="#02FF58"/>
<ellipse opacity="0.49" cx="0.855577" cy="0.768587" rx="0.855577" ry="0.768587" transform="matrix(0.964868 0.262734 -0.300236 0.953865 1036.64 189.023)" fill="#02FF58"/>
<ellipse opacity="0.49" cx="1.26132" cy="1.12566" rx="1.26132" ry="1.12566" transform="matrix(0.997105 0.0760339 -0.0673109 0.997732 1238.26 178.121)" fill="#02FF58"/>
<ellipse opacity="0.49" cx="1.14769" cy="1.24131" rx="1.14769" ry="1.24131" transform="matrix(-0.332055 -0.94326 0.967513 -0.252821 1238.17 236.107)" fill="#02FF58"/>
<ellipse opacity="0.49" cx="0.766531" cy="0.857419" rx="0.766531" ry="0.857419" transform="matrix(-0.215093 0.976594 -0.981025 -0.193882 1300.16 71.6001)" fill="#02FF58"/>
<ellipse opacity="0.49" cx="0.851855" cy="0.772709" rx="0.851855" ry="0.772709" transform="matrix(0.991054 -0.133459 0.191935 0.981408 1103.31 220.2)" fill="#02FF58"/>
<ellipse opacity="0.49" cx="1.26132" cy="1.12566" rx="1.26132" ry="1.12566" transform="matrix(0.997105 0.0760339 -0.0673109 0.997732 1130.96 140.444)" fill="#02FF58"/>
<ellipse opacity="0.49" cx="1.14769" cy="1.24131" rx="1.14769" ry="1.24131" transform="matrix(-0.332055 -0.94326 0.967513 -0.252821 1239.89 338.369)" fill="#02FF58"/>
<ellipse opacity="0.49" cx="0.766531" cy="0.857419" rx="0.766531" ry="0.857419" transform="matrix(-0.215093 0.976594 -0.981025 -0.193882 1336.47 10.916)" fill="#02FF58"/>
<ellipse opacity="0.49" cx="0.851855" cy="0.772709" rx="0.851855" ry="0.772709" transform="matrix(0.991054 -0.133459 0.191935 0.981408 1026.08 210.249)" fill="#02FF58"/>
<ellipse opacity="0.49" cx="1.24106" cy="1.14796" rx="1.24106" ry="1.14796" transform="matrix(0.88775 0.460326 -0.532588 0.846375 1240.94 86.3628)" fill="#02FF58"/>
<ellipse opacity="0.49" cx="1.12569" cy="1.2613" rx="1.12569" ry="1.2613" transform="matrix(0.155292 -0.987869 0.989276 0.14606 1141.38 264.678)" fill="#02FF58"/>
<ellipse opacity="0.49" cx="0.791297" cy="0.834617" rx="0.791297" ry="0.834617" transform="matrix(-0.64691 0.762566 -0.823833 -0.566832 1369.16 83.0596)" fill="#02FF58"/>
<ellipse opacity="0.49" cx="0.855577" cy="0.768587" rx="0.855577" ry="0.768587" transform="matrix(0.964868 0.262734 -0.300236 0.953865 1088.89 158.714)" fill="#02FF58"/>
<ellipse opacity="0.49" cx="1.24106" cy="1.14796" rx="1.24106" ry="1.14796" transform="matrix(0.88775 0.460326 -0.532588 0.846375 1133.64 48.6797)" fill="#02FF58"/>
<ellipse opacity="0.49" cx="1.12569" cy="1.2613" rx="1.12569" ry="1.2613" transform="matrix(0.155292 -0.987869 0.989276 0.14606 1143.09 366.944)" fill="#02FF58"/>
<ellipse opacity="0.49" cx="0.791297" cy="0.834617" rx="0.791297" ry="0.834617" transform="matrix(-0.64691 0.762566 -0.823833 -0.566832 1405.47 22.3799)" fill="#02FF58"/>
<ellipse opacity="0.49" cx="0.855577" cy="0.768587" rx="0.855577" ry="0.768587" transform="matrix(0.964868 0.262734 -0.300236 0.953865 1011.65 148.8)" fill="#02FF58"/>
<ellipse opacity="0.49" cx="1.26132" cy="1.12566" rx="1.26132" ry="1.12566" transform="matrix(0.997105 0.0760339 -0.0673109 0.997732 1188.62 126.932)" fill="#02FF58"/>
<ellipse opacity="0.49" cx="1.14769" cy="1.24131" rx="1.14769" ry="1.24131" transform="matrix(-0.332055 -0.94326 0.967513 -0.252821 1203.73 294.769)" fill="#02FF58"/>
<ellipse opacity="0.49" cx="0.766531" cy="0.857419" rx="0.766531" ry="0.857419" transform="matrix(-0.215093 0.976594 -0.981025 -0.193882 1342.42 47.1387)" fill="#02FF58"/>
<ellipse opacity="0.49" cx="0.851855" cy="0.772709" rx="0.851855" ry="0.772709" transform="matrix(0.991054 -0.133459 0.191935 0.981408 1061.62 193.125)" fill="#02FF58"/>
<ellipse opacity="0.49" cx="1.26132" cy="1.12566" rx="1.26132" ry="1.12566" transform="matrix(0.997105 0.0760339 -0.0673109 0.997732 1081.31 89.2388)" fill="#02FF58"/>
<ellipse opacity="0.49" cx="1.14769" cy="1.24131" rx="1.14769" ry="1.24131" transform="matrix(-0.332055 -0.94326 0.967513 -0.252821 1205.44 397.014)" fill="#02FF58"/>
<ellipse opacity="0.49" cx="0.851855" cy="0.772709" rx="0.851855" ry="0.772709" transform="matrix(0.991054 -0.133459 0.191935 0.981408 984.389 183.179)" fill="#02FF58"/>
<ellipse opacity="0.49" cx="1.20917" cy="1.1815" rx="1.20917" ry="1.1815" transform="matrix(0.739911 0.672705 -0.750991 0.660312 1290.04 103.942)" fill="#02FF58"/>
<ellipse opacity="0.49" cx="1.13925" cy="1.24906" rx="1.13925" ry="1.24906" transform="matrix(0.444813 -0.895624 0.92358 0.383405 1140.94 217.784)" fill="#02FF58"/>
<ellipse opacity="0.49" cx="0.816089" cy="0.810393" rx="0.816089" ry="0.810393" transform="matrix(-0.832249 0.554401 -0.645366 -0.763874 1352.3 110.803)" fill="#02FF58"/>
<ellipse opacity="0.49" cx="0.84156" cy="0.78391" rx="0.84156" ry="0.78391" transform="matrix(0.869826 0.493358 -0.568999 0.822338 1124.29 163.491)" fill="#02FF58"/>
<ellipse opacity="0.49" cx="1.46856" cy="1.43497" rx="1.46856" ry="1.43497" transform="matrix(0.739911 0.672705 -0.750991 0.660312 1169.78 61.6982)" fill="#02FF58"/>
<ellipse opacity="0.49" cx="1.38365" cy="1.51701" rx="1.38365" ry="1.51701" transform="matrix(0.444813 -0.895624 0.92358 0.383405 1142.85 332.403)" fill="#02FF58"/>
<ellipse opacity="0.49" cx="0.991162" cy="0.984244" rx="0.991162" ry="0.984244" transform="matrix(-0.832249 0.554401 -0.645366 -0.763874 1392.99 42.7803)" fill="#02FF58"/>
<ellipse opacity="0.49" cx="1.0221" cy="0.95208" rx="1.0221" ry="0.95208" transform="matrix(0.869826 0.493358 -0.568999 0.822338 1037.72 152.35)" fill="#02FF58"/>
<ellipse opacity="0.49" cx="1.20917" cy="1.1815" rx="1.20917" ry="1.1815" transform="matrix(0.739911 0.672705 -0.750991 0.660312 1311.15 192.114)" fill="#02FF58"/>
<ellipse opacity="0.49" cx="1.13925" cy="1.24906" rx="1.13925" ry="1.24906" transform="matrix(0.444813 -0.895624 0.92358 0.383405 1224.9 170.55)" fill="#02FF58"/>
<ellipse opacity="0.49" cx="0.816089" cy="0.810393" rx="0.816089" ry="0.810393" transform="matrix(-0.832249 0.554401 -0.645366 -0.763874 1284.25 114.067)" fill="#02FF58"/>
<ellipse opacity="0.49" cx="0.84156" cy="0.78391" rx="0.84156" ry="0.78391" transform="matrix(0.869826 0.493358 -0.568999 0.822338 1153.73 219.229)" fill="#02FF58"/>
<ellipse opacity="0.49" cx="1.20917" cy="1.1815" rx="1.20917" ry="1.1815" transform="matrix(0.739911 0.672705 -0.750991 0.660312 1203.85 154.443)" fill="#02FF58"/>
<ellipse opacity="0.49" cx="1.13925" cy="1.24906" rx="1.13925" ry="1.24906" transform="matrix(0.444813 -0.895624 0.92358 0.383405 1226.61 272.802)" fill="#02FF58"/>
<ellipse opacity="0.49" cx="0.816089" cy="0.810393" rx="0.816089" ry="0.810393" transform="matrix(-0.832249 0.554401 -0.645366 -0.763874 1320.56 53.3779)" fill="#02FF58"/>
<ellipse opacity="0.49" cx="0.84156" cy="0.78391" rx="0.84156" ry="0.78391" transform="matrix(0.869826 0.493358 -0.568999 0.822338 1076.49 209.284)" fill="#02FF58"/>
<ellipse opacity="0.49" cx="1.24106" cy="1.14796" rx="1.24106" ry="1.14796" transform="matrix(0.88775 0.460326 -0.532588 0.846375 1220.34 21.5645)" fill="#02FF58"/>
<ellipse opacity="0.49" cx="0.791297" cy="0.834617" rx="0.791297" ry="0.834617" transform="matrix(-0.64691 0.762566 -0.823833 -0.566832 1419.55 77.605)" fill="#02FF58"/>
<ellipse opacity="0.49" cx="1.53191" cy="1.36714" rx="1.53191" ry="1.36714" transform="matrix(0.997105 0.0760339 -0.0673109 0.997732 1116.62 73.2007)" fill="#02FF58"/>
<ellipse opacity="0.49" cx="0.930972" cy="1.04136" rx="0.930972" ry="1.04136" transform="matrix(-0.215093 0.976594 -0.981025 -0.193882 1388.24 9.48047)" fill="#02FF58"/>
<ellipse opacity="0.49" cx="1.26132" cy="1.12566" rx="1.26132" ry="1.12566" transform="matrix(0.997105 0.0760339 -0.0673109 0.997732 1031.67 38.0498)" fill="#02FF58"/>
<ellipse opacity="0.49" cx="1.20917" cy="1.1815" rx="1.20917" ry="1.1815" transform="matrix(0.739911 0.672705 -0.750991 0.660312 1289.73 37.0117)" fill="#02FF58"/>
<ellipse opacity="0.49" cx="0.816089" cy="0.810393" rx="0.816089" ry="0.810393" transform="matrix(-0.832249 0.554401 -0.645366 -0.763874 1402.79 117.812)" fill="#02FF58"/>
<ellipse opacity="0.49" cx="1.20917" cy="1.1815" rx="1.20917" ry="1.1815" transform="matrix(0.739911 0.672705 -0.750991 0.660312 1182.42 -0.681152)" fill="#02FF58"/>
<ellipse opacity="0.49" cx="0.816089" cy="0.810393" rx="0.816089" ry="0.810393" transform="matrix(-0.832249 0.554401 -0.645366 -0.763874 1439.11 57.1118)" fill="#02FF58"/>
<ellipse opacity="0.49" cx="1.20917" cy="1.1815" rx="1.20917" ry="1.1815" transform="matrix(0.739911 0.672705 -0.750991 0.660312 1310.83 125.184)" fill="#02FF58"/>
<ellipse opacity="0.49" cx="0.816089" cy="0.810393" rx="0.816089" ry="0.810393" transform="matrix(-0.832249 0.554401 -0.645366 -0.763874 1334.75 121.077)" fill="#02FF58"/>
<ellipse opacity="0.49" cx="1.46856" cy="1.43497" rx="1.46856" ry="1.43497" transform="matrix(0.739911 0.672705 -0.750991 0.660312 1195.03 87.501)" fill="#02FF58"/>
<ellipse opacity="0.49" cx="0.991162" cy="0.984244" rx="0.991162" ry="0.984244" transform="matrix(-0.832249 0.554401 -0.645366 -0.763874 1371.69 55.2407)" fill="#02FF58"/>
<g opacity="0.4" filter="url(#filter0_f_254_71)">
<ellipse cx="6.8266" cy="458.657" rx="6.8266" ry="458.657" transform="matrix(-0.969998 -0.243113 0.276123 -0.961123 1018.29 707.552)" fill="#DDFFE9"/>
</g>
<g opacity="0.1">
<g opacity="0.1">
<g filter="url(#filter1_f_254_71)">
<path d="M1150.72 -234.299L1064.84 -256.089L556.519 995.903L706.187 1010.34L1150.72 -234.299Z" fill="url(#paint0_linear_254_71)"/>
</g>
<g style="mix-blend-mode:plus-lighter" opacity="0.3" filter="url(#filter2_f_254_71)">
<path d="M1454.48 -209.731L1336.88 -243.795L820.524 1005.09L1022.4 1039.73L1454.48 -209.731Z" fill="url(#paint1_linear_254_71)"/>
</g>
<g style="mix-blend-mode:plus-lighter" opacity="0.86" filter="url(#filter3_f_254_71)">
<path d="M1380.88 -294.534L1235.49 -339.349L712.102 906.814L959.722 959.153L1380.88 -294.534Z" fill="url(#paint2_linear_254_71)"/>
</g>
<g style="mix-blend-mode:plus-lighter" opacity="0.31" filter="url(#filter4_f_254_71)">
<path d="M447.065 23.6027C441.039 95.1547 865.87 208.912 1065.03 234.752C1264.19 260.592 1646.02 251.493 1652.05 179.941C1658.07 108.389 1286.02 1.47896 1086.85 -24.361C887.691 -50.201 453.091 -47.9494 447.065 23.6027Z" fill="#50A0FF"/>
</g>
<g style="mix-blend-mode:plus-lighter" filter="url(#filter5_f_254_71)">
<path d="M1041.4 176.424L551.43 1433.92" stroke="url(#paint3_linear_254_71)" stroke-width="3.71446"/>
</g>
<g style="mix-blend-mode:plus-lighter" filter="url(#filter6_f_254_71)">
<path d="M935.114 185.557L453.081 1446.12" stroke="url(#paint4_linear_254_71)" stroke-width="3.71446"/>
</g>
<g style="mix-blend-mode:plus-lighter" filter="url(#filter7_f_254_71)">
<path d="M1156.33 108.744L916.988 770.121" stroke="url(#paint5_linear_254_71)" stroke-width="7.42891"/>
</g>
</g>
<g opacity="0.9">
<g filter="url(#filter8_f_254_71)">
<path d="M1254.43 -289.88L1135 -313.618L527.266 1441.16L733.712 1450.23L1254.43 -289.88Z" fill="url(#paint6_linear_254_71)"/>
</g>
<g style="mix-blend-mode:plus-lighter" opacity="0.3" filter="url(#filter9_f_254_71)">
<path d="M1673.07 -277.947L1509.23 -316.252L890.253 1434.84L1169.81 1467.89L1673.07 -277.947Z" fill="url(#paint7_linear_254_71)"/>
</g>
<g style="mix-blend-mode:plus-lighter" opacity="0.86" filter="url(#filter10_f_254_71)">
<path d="M1565.97 -389.063L1363.22 -440.127L734.395 1307.74L1078 1361.79L1565.97 -389.063Z" fill="url(#paint8_linear_254_71)"/>
</g>
<g style="mix-blend-mode:plus-lighter" opacity="0.31" filter="url(#filter11_f_254_71)">
<path d="M307.222 114.618C304.09 213.251 895.313 338.867 1170.51 360.028C1445.7 381.189 1969.08 341.281 1972.21 242.648C1975.34 144.015 1457.04 24.0063 1181.85 2.84519C906.653 -18.3159 310.354 15.9847 307.222 114.618Z" fill="#81FFC2"/>
</g>
<g style="mix-blend-mode:plus-lighter" filter="url(#filter12_f_254_71)">
<path d="M1133.88 281.674L551.737 2042.7" stroke="url(#paint9_linear_254_71)" stroke-width="3.71446"/>
</g>
<g style="mix-blend-mode:plus-lighter" filter="url(#filter13_f_254_71)">
<path d="M988.667 301.846L417.634 2066.51" stroke="url(#paint10_linear_254_71)" stroke-width="3.71446"/>
</g>
<g style="mix-blend-mode:plus-lighter" filter="url(#filter14_f_254_71)">
<path d="M1286.75 180.541L1005.77 1105.43" stroke="url(#paint11_linear_254_71)" stroke-width="7.42891"/>
</g>
</g>
<g filter="url(#filter15_f_254_71)">
<circle cx="223.429" cy="223.429" r="223.429" transform="matrix(-0.940537 -0.339692 -0.339692 0.940537 1389.44 6.1665)" fill="#C0FFD2" fill-opacity="0.8"/>
</g>
<g opacity="0.3" filter="url(#filter16_f_254_71)">
<ellipse cx="1945.74" cy="116.39" rx="1945.74" ry="116.39" transform="matrix(-0.500971 0.865464 0.865464 0.500971 1845.14 -1565.77)" fill="#60FF8C"/>
</g>
</g>
<g opacity="0.49" filter="url(#filter17_f_254_71)">
<ellipse cx="1232.38" cy="173.478" rx="1.06265" ry="0.962094" transform="rotate(6.31332 1232.38 173.478)" fill="white"/>
</g>
<g opacity="0.49" filter="url(#filter18_f_254_71)">
<ellipse cx="1.0206" cy="1.0066" rx="1.0206" ry="1.0066" transform="matrix(0.849107 -0.528221 0.608994 0.793175 1236.9 175.382)" fill="white"/>
</g>
<ellipse opacity="0.49" cx="0.481809" cy="0.445864" rx="0.481809" ry="0.445864" transform="matrix(0.980601 -0.196013 0.256511 0.966542 1264.63 158.995)" fill="#02FF58"/>
<ellipse opacity="0.49" cx="1.37541" cy="1.31878" rx="1.37541" ry="1.31878" transform="matrix(-0.806493 -0.591244 0.661291 -0.75013 1353.06 206.038)" fill="#5FF3A8"/>
<ellipse opacity="0.49" cx="0.663146" cy="0.732116" rx="0.663146" ry="0.732116" transform="matrix(-0.0566311 0.998395 -0.997803 -0.0662505 1272.75 165.544)" fill="#02FF58"/>
<ellipse opacity="0.49" cx="1.61862" cy="1.59642" rx="1.61862" ry="1.59642" transform="matrix(0.849107 -0.528221 0.608994 0.793175 1224.91 238.942)" fill="#5FF3A8"/>
<ellipse opacity="0.49" cx="1.5394" cy="1.67295" rx="1.5394" ry="1.67295" transform="matrix(-0.205496 -0.978658 0.988373 -0.15205 1232.72 146.434)" fill="#5FF3A8"/>
<ellipse opacity="0.49" cx="1.64099" cy="1.57342" rx="1.64099" ry="1.57342" transform="matrix(-0.806493 -0.591244 0.661291 -0.75013 1298.69 226.3)" fill="#5FF3A8"/>
<ellipse opacity="0.49" cx="1.22529" cy="1.14478" rx="1.22529" ry="1.14478" transform="matrix(0.885421 0.464789 -0.527648 0.849463 1303.99 351.321)" fill="#02FF58"/>
<ellipse opacity="0.49" cx="1.12565" cy="1.24289" rx="1.12565" ry="1.24289" transform="matrix(0.154624 -0.987973 0.989196 0.1466 1244.36 425.97)" fill="#02FF58"/>
<ellipse opacity="0.49" cx="0.787703" cy="0.825166" rx="0.787703" ry="0.825166" transform="matrix(-0.64164 0.767006 -0.820282 -0.571959 1360.51 288.606)" fill="#02FF58"/>
<ellipse opacity="0.49" cx="0.84338" cy="0.768169" rx="0.84338" ry="0.768169" transform="matrix(0.964261 0.264953 -0.297554 0.954705 1158.41 399.328)" fill="#02FF58"/>
<ellipse opacity="0.49" cx="1.22529" cy="1.14478" rx="1.22529" ry="1.14478" transform="matrix(0.885421 0.464789 -0.527648 0.849463 1198.33 313.81)" fill="#02FF58"/>
<ellipse opacity="0.49" cx="1.12565" cy="1.24289" rx="1.12565" ry="1.24289" transform="matrix(0.154624 -0.987973 0.989196 0.1466 1245.88 528.2)" fill="#02FF58"/>
<ellipse opacity="0.49" cx="0.787703" cy="0.825166" rx="0.787703" ry="0.825166" transform="matrix(-0.64164 0.767006 -0.820282 -0.571959 1396.38 227.873)" fill="#02FF58"/>
<ellipse opacity="0.49" cx="0.84338" cy="0.768169" rx="0.84338" ry="0.768169" transform="matrix(0.964261 0.264953 -0.297554 0.954705 1082.33 389.526)" fill="#02FF58"/>
<ellipse opacity="0.49" cx="1.24292" cy="1.12563" rx="1.24292" ry="1.12563" transform="matrix(0.997144 0.0755239 -0.0679424 0.997689 1281.02 378.3)" fill="#02FF58"/>
<ellipse opacity="0.49" cx="1.14455" cy="1.22551" rx="1.14455" ry="1.22551" transform="matrix(-0.326579 -0.94517 0.966235 -0.257663 1280.83 436.275)" fill="#02FF58"/>
<ellipse opacity="0.49" cx="0.766405" cy="0.844984" rx="0.766405" ry="0.844984" transform="matrix(-0.213564 0.976929 -0.980778 -0.195127 1342.18 271.698)" fill="#02FF58"/>
<ellipse opacity="0.49" cx="0.840142" cy="0.771709" rx="0.840142" ry="0.771709" transform="matrix(0.990579 -0.136946 0.187788 0.98221 1147.97 420.589)" fill="#02FF58"/>
<ellipse opacity="0.49" cx="1.24292" cy="1.12563" rx="1.24292" ry="1.12563" transform="matrix(0.997144 0.0755239 -0.0679424 0.997689 1175.34 340.803)" fill="#02FF58"/>
<ellipse opacity="0.49" cx="1.14455" cy="1.22551" rx="1.14455" ry="1.22551" transform="matrix(-0.326579 -0.94517 0.966235 -0.257663 1282.37 538.516)" fill="#02FF58"/>
<ellipse opacity="0.49" cx="0.766405" cy="0.844984" rx="0.766405" ry="0.844984" transform="matrix(-0.213564 0.976929 -0.980778 -0.195127 1378.06 210.966)" fill="#02FF58"/>
<ellipse opacity="0.49" cx="0.840142" cy="0.771709" rx="0.840142" ry="0.771709" transform="matrix(0.990579 -0.136946 0.187788 0.98221 1071.88 410.765)" fill="#02FF58"/>
<ellipse opacity="0.49" cx="1.22529" cy="1.14478" rx="1.22529" ry="1.14478" transform="matrix(0.885421 0.464789 -0.527648 0.849463 1283.81 286.553)" fill="#02FF58"/>
<ellipse opacity="0.49" cx="1.12565" cy="1.24289" rx="1.12565" ry="1.24289" transform="matrix(0.154624 -0.987973 0.989196 0.1466 1185.41 464.998)" fill="#02FF58"/>
<ellipse opacity="0.49" cx="0.787703" cy="0.825166" rx="0.787703" ry="0.825166" transform="matrix(-0.64164 0.767006 -0.820282 -0.571959 1410.16 283.043)" fill="#02FF58"/>
<ellipse opacity="0.49" cx="0.84338" cy="0.768169" rx="0.84338" ry="0.768169" transform="matrix(0.964261 0.264953 -0.297554 0.954705 1133.86 359.138)" fill="#02FF58"/>
<ellipse opacity="0.49" cx="1.22529" cy="1.14478" rx="1.22529" ry="1.14478" transform="matrix(0.885421 0.464789 -0.527648 0.849463 1178.13 249.051)" fill="#02FF58"/>
<ellipse opacity="0.49" cx="1.12565" cy="1.24289" rx="1.12565" ry="1.24289" transform="matrix(0.154624 -0.987973 0.989196 0.1466 1186.93 567.243)" fill="#02FF58"/>
<ellipse opacity="0.49" cx="0.84338" cy="0.768169" rx="0.84338" ry="0.768169" transform="matrix(0.964261 0.264953 -0.297554 0.954705 1057.77 349.35)" fill="#02FF58"/>
<ellipse opacity="0.49" cx="1.24292" cy="1.12563" rx="1.24292" ry="1.12563" transform="matrix(0.997144 0.0755239 -0.0679424 0.997689 1232.18 327.2)" fill="#02FF58"/>
<ellipse opacity="0.49" cx="1.14455" cy="1.22551" rx="1.14455" ry="1.22551" transform="matrix(-0.326579 -0.94517 0.966235 -0.257663 1246.8 494.982)" fill="#02FF58"/>
<ellipse opacity="0.49" cx="0.766405" cy="0.844984" rx="0.766405" ry="0.844984" transform="matrix(-0.213564 0.976929 -0.980778 -0.195127 1383.87 247.172)" fill="#02FF58"/>
<ellipse opacity="0.49" cx="0.840142" cy="0.771709" rx="0.840142" ry="0.771709" transform="matrix(0.990579 -0.136946 0.187788 0.98221 1106.94 393.587)" fill="#02FF58"/>
<ellipse opacity="0.49" cx="1.24292" cy="1.12563" rx="1.24292" ry="1.12563" transform="matrix(0.997144 0.0755239 -0.0679424 0.997689 1126.51 289.687)" fill="#02FF58"/>
<ellipse opacity="0.49" cx="1.14455" cy="1.22551" rx="1.14455" ry="1.22551" transform="matrix(-0.326579 -0.94517 0.966235 -0.257663 1248.32 597.207)" fill="#02FF58"/>
<ellipse opacity="0.49" cx="0.766405" cy="0.844984" rx="0.766405" ry="0.844984" transform="matrix(-0.213564 0.976929 -0.980778 -0.195127 1419.75 186.445)" fill="#02FF58"/>
<ellipse opacity="0.49" cx="0.840142" cy="0.771709" rx="0.840142" ry="0.771709" transform="matrix(0.990579 -0.136946 0.187788 0.98221 1030.85 383.768)" fill="#02FF58"/>
<ellipse opacity="0.49" cx="1.19762" cy="1.1737" rx="1.19762" ry="1.1737" transform="matrix(0.735115 0.677943 -0.746073 0.665864 1332.16 304.05)" fill="#02FF58"/>
<ellipse opacity="0.49" cx="1.1373" cy="1.23224" rx="1.1373" ry="1.23224" transform="matrix(0.440523 -0.897741 0.922029 0.38712 1185.06 418.112)" fill="#02FF58"/>
<ellipse opacity="0.49" cx="0.809111" cy="0.804185" rx="0.809111" ry="0.804185" transform="matrix(-0.828152 0.560503 -0.63966 -0.768658 1393.5 310.809)" fill="#02FF58"/>
<ellipse opacity="0.49" cx="0.831193" cy="0.78134" rx="0.831193" ry="0.78134" transform="matrix(0.867133 0.498078 -0.563884 0.825854 1168.73 363.856)" fill="#02FF58"/>
<ellipse opacity="0.49" cx="1.45455" cy="1.42549" rx="1.45455" ry="1.42549" transform="matrix(0.735115 0.677943 -0.746073 0.665864 1213.72 262.008)" fill="#02FF58"/>
<ellipse opacity="0.49" cx="1.38128" cy="1.49659" rx="1.38128" ry="1.49659" transform="matrix(0.440523 -0.897741 0.922029 0.38712 1186.75 532.708)" fill="#02FF58"/>
<ellipse opacity="0.49" cx="0.982688" cy="0.976704" rx="0.982688" ry="0.976704" transform="matrix(-0.828152 0.560503 -0.63966 -0.768658 1433.71 242.733)" fill="#02FF58"/>
<ellipse opacity="0.49" cx="1.00951" cy="0.948959" rx="1.00951" ry="0.948959" transform="matrix(0.867133 0.498078 -0.563884 0.825854 1083.45 352.857)" fill="#02FF58"/>
<ellipse opacity="0.49" cx="1.19762" cy="1.1737" rx="1.19762" ry="1.1737" transform="matrix(0.735115 0.677943 -0.746073 0.665864 1352.81 392.172)" fill="#02FF58"/>
<ellipse opacity="0.49" cx="1.1373" cy="1.23224" rx="1.1373" ry="1.23224" transform="matrix(0.440523 -0.897741 0.922029 0.38712 1267.86 370.752)" fill="#02FF58"/>
<ellipse opacity="0.49" cx="0.809111" cy="0.804185" rx="0.809111" ry="0.804185" transform="matrix(-0.828152 0.560503 -0.63966 -0.768658 1326.43 314.183)" fill="#02FF58"/>
<ellipse opacity="0.49" cx="0.831193" cy="0.78134" rx="0.831193" ry="0.78134" transform="matrix(0.867133 0.498078 -0.563884 0.825854 1197.65 419.537)" fill="#02FF58"/>
<ellipse opacity="0.49" cx="1.19762" cy="1.1737" rx="1.19762" ry="1.1737" transform="matrix(0.735115 0.677943 -0.746073 0.665864 1247.14 354.681)" fill="#02FF58"/>
<ellipse opacity="0.49" cx="1.1373" cy="1.23224" rx="1.1373" ry="1.23224" transform="matrix(0.440523 -0.897741 0.922029 0.38712 1269.39 472.982)" fill="#02FF58"/>
<ellipse opacity="0.49" cx="0.809111" cy="0.804185" rx="0.809111" ry="0.804185" transform="matrix(-0.828152 0.560503 -0.63966 -0.768658 1362.32 253.446)" fill="#02FF58"/>
<ellipse opacity="0.49" cx="0.831193" cy="0.78134" rx="0.831193" ry="0.78134" transform="matrix(0.867133 0.498078 -0.563884 0.825854 1121.56 409.718)" fill="#02FF58"/>
<ellipse opacity="0.49" cx="1.22529" cy="1.14478" rx="1.22529" ry="1.14478" transform="matrix(0.885421 0.464789 -0.527648 0.849463 1263.61 221.8)" fill="#02FF58"/>
<ellipse opacity="0.49" cx="1.22529" cy="1.14478" rx="1.22529" ry="1.14478" transform="matrix(0.885421 0.464789 -0.527648 0.849463 1157.94 184.282)" fill="#02FF58"/>
<ellipse opacity="0.49" cx="1.50956" cy="1.3671" rx="1.50956" ry="1.3671" transform="matrix(0.997144 0.0755239 -0.0679424 0.997689 1161.33 273.595)" fill="#02FF58"/>
<ellipse opacity="0.49" cx="0.93082" cy="1.02626" rx="0.93082" ry="1.02626" transform="matrix(-0.213564 0.976929 -0.980778 -0.195127 1429.07 209.447)" fill="#02FF58"/>
<ellipse opacity="0.49" cx="1.24292" cy="1.12563" rx="1.24292" ry="1.12563" transform="matrix(0.997144 0.0755239 -0.0679424 0.997689 1077.67 238.587)" fill="#02FF58"/>
<ellipse opacity="0.49" cx="1.19762" cy="1.1737" rx="1.19762" ry="1.1737" transform="matrix(0.735115 0.677943 -0.746073 0.665864 1331.96 237.132)" fill="#02FF58"/>
<ellipse opacity="0.49" cx="1.19762" cy="1.1737" rx="1.19762" ry="1.1737" transform="matrix(0.735115 0.677943 -0.746073 0.665864 1226.28 199.62)" fill="#02FF58"/>
<ellipse opacity="0.49" cx="1.19762" cy="1.1737" rx="1.19762" ry="1.1737" transform="matrix(0.735115 0.677943 -0.746073 0.665864 1352.61 325.255)" fill="#02FF58"/>
<ellipse opacity="0.49" cx="0.809111" cy="0.804185" rx="0.809111" ry="0.804185" transform="matrix(-0.828152 0.560503 -0.63966 -0.768658 1376.19 321.11)" fill="#02FF58"/>
<ellipse opacity="0.49" cx="1.45455" cy="1.42549" rx="1.45455" ry="1.42549" transform="matrix(0.735115 0.677943 -0.746073 0.665864 1238.56 287.766)" fill="#02FF58"/>
<ellipse opacity="0.49" cx="0.982688" cy="0.976704" rx="0.982688" ry="0.976704" transform="matrix(-0.828152 0.560503 -0.63966 -0.768658 1412.69 255.226)" fill="#02FF58"/>
<g opacity="0.4" filter="url(#filter19_f_254_71)">
<ellipse cx="6.72743" cy="458.465" rx="6.72743" ry="458.465" transform="matrix(-0.969508 -0.245061 0.273755 -0.9618 1063.41 907.992)" fill="#DDFFE9"/>
</g>
<g opacity="0.7" filter="url(#filter20_f_254_71)">
<ellipse cx="1163.5" cy="442" rx="123.5" ry="267" fill="url(#paint12_linear_254_71)"/>
</g>
<g opacity="0.49" filter="url(#filter21_f_254_71)">
<ellipse cx="0.740295" cy="0.962094" rx="0.740295" ry="0.962094" transform="matrix(-0.896708 -0.442622 -0.442622 0.896708 1157.09 109.428)" fill="white"/>
</g>
<g opacity="0.49" filter="url(#filter22_f_254_71)">
<ellipse cx="0.842925" cy="0.873578" rx="0.842925" ry="0.873578" transform="matrix(-0.262997 -0.964797 -0.866413 0.499328 1152.44 109.764)" fill="white"/>
</g>
<ellipse opacity="0.49" cx="0.351576" cy="0.430631" rx="0.351576" ry="0.430631" transform="matrix(-0.632354 -0.77468 -0.660979 0.750405 1144.91 84.478)" fill="#02FF58"/>
<ellipse opacity="0.49" cx="1.07727" cy="1.20143" rx="1.07727" ry="1.20143" transform="matrix(0.973171 -0.230084 0.00343694 -0.999994 1070.38 88.9893)" fill="#5FF3A8"/>
<ellipse opacity="0.49" cx="0.662657" cy="0.510547" rx="0.662657" ry="0.510547" transform="matrix(-0.47576 0.879575 0.867084 0.498162 1136.93 86.8047)" fill="#02FF58"/>
<ellipse opacity="0.49" cx="1.33684" cy="1.38546" rx="1.33684" ry="1.38546" transform="matrix(-0.262997 -0.964797 -0.866413 0.499328 1126.97 169.113)" fill="#5FF3A8"/>
<ellipse opacity="0.49" cx="1.50037" cy="1.20645" rx="1.50037" ry="1.20645" transform="matrix(0.631373 -0.77548 -0.677023 -0.735962 1169.56 86.6367)" fill="#5FF3A8"/>
<ellipse opacity="0.49" cx="1.28528" cy="1.43342" rx="1.28528" ry="1.43342" transform="matrix(0.973171 -0.230084 0.00343694 -0.999994 1091.18 128.387)" fill="#5FF3A8"/>
<ellipse opacity="0.49" cx="0.911785" cy="1.08867" rx="0.911785" ry="1.08867" transform="matrix(-0.998567 0.0535108 -0.136836 0.990594 1024.56 233.427)" fill="#02FF58"/>
<ellipse opacity="0.49" cx="1.12506" cy="0.866484" rx="1.12506" ry="0.866484" transform="matrix(0.414251 -0.910163 -0.918899 -0.394494 1020.71 321.584)" fill="#02FF58"/>
<ellipse opacity="0.49" cx="0.722961" cy="0.640796" rx="0.722961" ry="0.640796" transform="matrix(-0.0250156 0.999687 0.979059 -0.203575 1024.12 156.765)" fill="#02FF58"/>
<ellipse opacity="0.49" cx="0.595198" cy="0.760942" rx="0.595198" ry="0.760942" transform="matrix(-0.97281 -0.231605 -0.31832 0.947983 1083.45 333.562)" fill="#02FF58"/>
<ellipse opacity="0.49" cx="0.911785" cy="1.08867" rx="0.911785" ry="1.08867" transform="matrix(-0.998567 0.0535108 -0.136836 0.990594 1104.11 244.071)" fill="#02FF58"/>
<ellipse opacity="0.49" cx="1.12506" cy="0.866484" rx="1.12506" ry="0.866484" transform="matrix(0.414251 -0.910163 -0.918899 -0.394494 967.847 408.616)" fill="#02FF58"/>
<ellipse opacity="0.49" cx="0.722961" cy="0.640796" rx="0.722961" ry="0.640796" transform="matrix(-0.0250156 0.999687 0.979059 -0.203575 1034.48 90.1631)" fill="#02FF58"/>
<ellipse opacity="0.49" cx="0.595198" cy="0.760942" rx="0.595198" ry="0.760942" transform="matrix(-0.97281 -0.231605 -0.31832 0.947983 1131.97 355.977)" fill="#02FF58"/>
<ellipse opacity="0.49" cx="0.866423" cy="1.12511" rx="0.866423" ry="1.12511" transform="matrix(-0.873644 -0.486566 -0.468793 0.883308 1023.98 265.864)" fill="#02FF58"/>
<ellipse opacity="0.49" cx="1.08912" cy="0.91125" rx="1.08912" ry="0.91125" transform="matrix(0.701601 -0.71257 -0.567333 -0.823489 994.602 315.645)" fill="#02FF58"/>
<ellipse opacity="0.49" cx="0.764234" cy="0.590964" rx="0.764234" ry="0.590964" transform="matrix(-0.375755 0.926719 0.944374 0.328873 1043.21 149.691)" fill="#02FF58"/>
<ellipse opacity="0.49" cx="0.60363" cy="0.75427" rx="0.60363" ry="0.75427" transform="matrix(-0.691985 -0.721912 -0.621076 0.78375 1078.61 356.018)" fill="#02FF58"/>
<ellipse opacity="0.49" cx="0.866423" cy="1.12511" rx="0.866423" ry="1.12511" transform="matrix(-0.873644 -0.486566 -0.468793 0.883308 1103.53 276.524)" fill="#02FF58"/>
<ellipse opacity="0.49" cx="1.08912" cy="0.91125" rx="1.08912" ry="0.91125" transform="matrix(0.701601 -0.71257 -0.567333 -0.823489 941.723 402.683)" fill="#02FF58"/>
<ellipse opacity="0.49" cx="0.764234" cy="0.590964" rx="0.764234" ry="0.590964" transform="matrix(-0.375755 0.926719 0.944374 0.328873 1053.56 83.0864)" fill="#02FF58"/>
<ellipse opacity="0.49" cx="0.60363" cy="0.75427" rx="0.60363" ry="0.75427" transform="matrix(-0.691985 -0.721912 -0.621076 0.78375 1127.14 378.417)" fill="#02FF58"/>
<ellipse opacity="0.49" cx="0.911785" cy="1.08867" rx="0.911785" ry="1.08867" transform="matrix(-0.998567 0.0535108 -0.136836 0.990594 1069.05 186.075)" fill="#02FF58"/>
<ellipse opacity="0.49" cx="1.12506" cy="0.866484" rx="1.12506" ry="0.866484" transform="matrix(0.414251 -0.910163 -0.918899 -0.394494 1034.6 378.926)" fill="#02FF58"/>
<ellipse opacity="0.49" cx="0.722961" cy="0.640796" rx="0.722961" ry="0.640796" transform="matrix(-0.0250156 0.999687 0.979059 -0.203575 998.538 131.883)" fill="#02FF58"/>
<ellipse opacity="0.49" cx="0.595198" cy="0.760942" rx="0.595198" ry="0.760942" transform="matrix(-0.97281 -0.231605 -0.31832 0.947983 1117.94 309.048)" fill="#02FF58"/>
<ellipse opacity="0.49" cx="0.911785" cy="1.08867" rx="0.911785" ry="1.08867" transform="matrix(-0.998567 0.0535108 -0.136836 0.990594 1148.6 196.729)" fill="#02FF58"/>
<ellipse opacity="0.49" cx="1.12506" cy="0.866484" rx="1.12506" ry="0.866484" transform="matrix(0.414251 -0.910163 -0.918899 -0.394494 981.722 465.971)" fill="#02FF58"/>
<ellipse opacity="0.49" cx="0.722961" cy="0.640796" rx="0.722961" ry="0.640796" transform="matrix(-0.0250156 0.999687 0.979059 -0.203575 1008.9 65.2852)" fill="#02FF58"/>
<ellipse opacity="0.49" cx="0.595198" cy="0.760942" rx="0.595198" ry="0.760942" transform="matrix(-0.97281 -0.231605 -0.31832 0.947983 1166.46 331.48)" fill="#02FF58"/>
<ellipse opacity="0.49" cx="0.866423" cy="1.12511" rx="0.866423" ry="1.12511" transform="matrix(-0.873644 -0.486566 -0.468793 0.883308 1077.92 241.835)" fill="#02FF58"/>
<ellipse opacity="0.49" cx="1.08912" cy="0.91125" rx="1.08912" ry="0.91125" transform="matrix(0.701601 -0.71257 -0.567333 -0.823489 984.217 379.765)" fill="#02FF58"/>
<ellipse opacity="0.49" cx="0.764234" cy="0.590964" rx="0.764234" ry="0.590964" transform="matrix(-0.375755 0.926719 0.944374 0.328873 1031.83 111.779)" fill="#02FF58"/>
<ellipse opacity="0.49" cx="0.60363" cy="0.75427" rx="0.60363" ry="0.75427" transform="matrix(-0.691985 -0.721912 -0.621076 0.78375 1115.82 349.489)" fill="#02FF58"/>
<ellipse opacity="0.49" cx="0.866423" cy="1.12511" rx="0.866423" ry="1.12511" transform="matrix(-0.873644 -0.486566 -0.468793 0.883308 1157.47 252.482)" fill="#02FF58"/>
<ellipse opacity="0.49" cx="1.08912" cy="0.91125" rx="1.08912" ry="0.91125" transform="matrix(0.701601 -0.71257 -0.567333 -0.823489 931.351 466.791)" fill="#02FF58"/>
<ellipse opacity="0.49" cx="0.764234" cy="0.590964" rx="0.764234" ry="0.590964" transform="matrix(-0.375755 0.926719 0.944374 0.328873 1042.18 45.1782)" fill="#02FF58"/>
<ellipse opacity="0.49" cx="0.60363" cy="0.75427" rx="0.60363" ry="0.75427" transform="matrix(-0.691985 -0.721912 -0.621076 0.78375 1164.36 371.893)" fill="#02FF58"/>
<ellipse opacity="0.49" cx="0.977588" cy="1.02999" rx="0.977588" ry="1.02999" transform="matrix(-0.93777 0.347257 0.100556 0.994931 1032.49 181.489)" fill="#02FF58"/>
<ellipse opacity="0.49" cx="1.10313" cy="0.894247" rx="1.10313" ry="0.894247" transform="matrix(0.210877 -0.977513 -0.998356 -0.0573244 1058.65 338.871)" fill="#02FF58"/>
<ellipse opacity="0.49" cx="0.6777" cy="0.688488" rx="0.6777" ry="0.688488" transform="matrix(0.225412 0.974263 0.884204 -0.467101 993.951 162.438)" fill="#02FF58"/>
<ellipse opacity="0.49" cx="0.626184" cy="0.735654" rx="0.626184" ry="0.735654" transform="matrix(-0.99493 0.100574 -0.103433 0.994636 1095.59 298.968)" fill="#02FF58"/>
<ellipse opacity="0.49" cx="1.18731" cy="1.25095" rx="1.18731" ry="1.25095" transform="matrix(-0.93777 0.347257 0.100556 0.994931 1121.64 193.421)" fill="#02FF58"/>
<ellipse opacity="0.49" cx="1.33978" cy="1.08609" rx="1.33978" ry="1.08609" transform="matrix(0.210877 -0.977513 -0.998356 -0.0573244 999.388 436.434)" fill="#02FF58"/>
<ellipse opacity="0.49" cx="0.823085" cy="0.836187" rx="0.823085" ry="0.836187" transform="matrix(0.225412 0.974263 0.884204 -0.467101 1005.57 87.7822)" fill="#02FF58"/>
<ellipse opacity="0.49" cx="0.760517" cy="0.893472" rx="0.760517" ry="0.893472" transform="matrix(-0.99493 0.100574 -0.103433 0.994636 1149.98 324.084)" fill="#02FF58"/>
<ellipse opacity="0.49" cx="0.977588" cy="1.02999" rx="0.977588" ry="1.02999" transform="matrix(-0.93777 0.347257 0.100556 0.994931 975.846 248.675)" fill="#02FF58"/>
<ellipse opacity="0.49" cx="1.10313" cy="0.894247" rx="1.10313" ry="0.894247" transform="matrix(0.210877 -0.977513 -0.998356 -0.0573244 1035.35 264.723)" fill="#02FF58"/>
<ellipse opacity="0.49" cx="0.6777" cy="0.688488" rx="0.6777" ry="0.688488" transform="matrix(0.225412 0.974263 0.884204 -0.467101 1030.61 192.496)" fill="#02FF58"/>
<ellipse opacity="0.49" cx="0.626184" cy="0.735654" rx="0.626184" ry="0.735654" transform="matrix(-0.99493 0.100574 -0.103433 0.994636 1050.72 334.991)" fill="#02FF58"/>
<ellipse opacity="0.49" cx="0.977588" cy="1.02999" rx="0.977588" ry="1.02999" transform="matrix(-0.93777 0.347257 0.100556 0.994931 1055.38 259.337)" fill="#02FF58"/>
<ellipse opacity="0.49" cx="1.10313" cy="0.894247" rx="1.10313" ry="0.894247" transform="matrix(0.210877 -0.977513 -0.998356 -0.0573244 982.484 351.754)" fill="#02FF58"/>
<ellipse opacity="0.49" cx="0.6777" cy="0.688488" rx="0.6777" ry="0.688488" transform="matrix(0.225412 0.974263 0.884204 -0.467101 1040.97 125.887)" fill="#02FF58"/>
<ellipse opacity="0.49" cx="0.626184" cy="0.735654" rx="0.626184" ry="0.735654" transform="matrix(-0.99493 0.100574 -0.103433 0.994636 1099.25 357.395)" fill="#02FF58"/>
<ellipse opacity="0.49" cx="0.911785" cy="1.08867" rx="0.911785" ry="1.08867" transform="matrix(-0.998567 0.0535108 -0.136836 0.990594 1113.55 138.738)" fill="#02FF58"/>
<ellipse opacity="0.49" cx="0.722961" cy="0.640796" rx="0.722961" ry="0.640796" transform="matrix(-0.0250156 0.999687 0.979059 -0.203575 972.938 107.021)" fill="#02FF58"/>
<ellipse opacity="0.49" cx="0.911785" cy="1.08867" rx="0.911785" ry="1.08867" transform="matrix(-0.998567 0.0535108 -0.136836 0.990594 1193.1 149.38)" fill="#02FF58"/>
<ellipse opacity="0.49" cx="0.722961" cy="0.640796" rx="0.722961" ry="0.640796" transform="matrix(-0.0250156 0.999687 0.979059 -0.203575 983.307 40.4043)" fill="#02FF58"/>
<ellipse opacity="0.49" cx="1.05229" cy="1.36648" rx="1.05229" ry="1.36648" transform="matrix(-0.873644 -0.486566 -0.468793 0.883308 1145.73 224.581)" fill="#02FF58"/>
<ellipse opacity="0.49" cx="0.928183" cy="0.717742" rx="0.928183" ry="0.717742" transform="matrix(-0.375755 0.926719 0.944374 0.328873 1025.15 61.1216)" fill="#02FF58"/>
<ellipse opacity="0.49" cx="0.866423" cy="1.12511" rx="0.866423" ry="1.12511" transform="matrix(-0.873644 -0.486566 -0.468793 0.883308 1211.41 228.454)" fill="#02FF58"/>
<ellipse opacity="0.49" cx="0.764234" cy="0.590964" rx="0.764234" ry="0.590964" transform="matrix(-0.375755 0.926719 0.944374 0.328873 1030.81 7.26562)" fill="#02FF58"/>
<ellipse opacity="0.49" cx="0.977588" cy="1.02999" rx="0.977588" ry="1.02999" transform="matrix(-0.93777 0.347257 0.100556 0.994931 1066.64 124.198)" fill="#02FF58"/>
<ellipse opacity="0.49" cx="0.6777" cy="0.688488" rx="0.6777" ry="0.688488" transform="matrix(0.225412 0.974263 0.884204 -0.467101 961.964 148.225)" fill="#02FF58"/>
<ellipse opacity="0.49" cx="0.977588" cy="1.02999" rx="0.977588" ry="1.02999" transform="matrix(-0.93777 0.347257 0.100556 0.994931 1146.19 134.844)" fill="#02FF58"/>
<ellipse opacity="0.49" cx="0.6777" cy="0.688488" rx="0.6777" ry="0.688488" transform="matrix(0.225412 0.974263 0.884204 -0.467101 972.328 81.606)" fill="#02FF58"/>
<ellipse opacity="0.49" cx="0.977588" cy="1.02999" rx="0.977588" ry="1.02999" transform="matrix(-0.93777 0.347257 0.100556 0.994931 1010 191.383)" fill="#02FF58"/>
<ellipse opacity="0.49" cx="0.6777" cy="0.688488" rx="0.6777" ry="0.688488" transform="matrix(0.225412 0.974263 0.884204 -0.467101 998.617 178.281)" fill="#02FF58"/>
<ellipse opacity="0.49" cx="1.18731" cy="1.25095" rx="1.18731" ry="1.25095" transform="matrix(-0.93777 0.347257 0.100556 0.994931 1094.33 205.441)" fill="#02FF58"/>
<ellipse opacity="0.49" cx="0.823085" cy="0.836187" rx="0.823085" ry="0.836187" transform="matrix(0.225412 0.974263 0.884204 -0.467101 1011.24 107.006)" fill="#02FF58"/>
<g opacity="0.49" filter="url(#filter23_f_254_71)">
<ellipse cx="9.14168" cy="11.8806" rx="9.14168" ry="11.8806" transform="matrix(-0.896708 -0.442622 -0.442622 0.896708 180.832 1662.04)" fill="#DDFFE9"/>
</g>
<g opacity="0.4" filter="url(#filter24_f_254_71)">
<ellipse cx="4.73303" cy="455.189" rx="4.73303" ry="455.189" transform="matrix(0.96572 0.259586 0.334945 -0.942238 879.088 808.153)" fill="#DDFFE9"/>
</g>
<g opacity="0.4">
<g filter="url(#filter25_f_254_71)">
<path d="M1314.81 -310.239L1247.54 -323.609L905.266 664.69L1021.54 669.796L1314.81 -310.239Z" fill="url(#paint13_linear_254_71)"/>
</g>
<g style="mix-blend-mode:plus-lighter" opacity="0.3" filter="url(#filter26_f_254_71)">
<path d="M1550.59 -303.519L1458.31 -325.092L1109.7 661.129L1267.15 679.74L1550.59 -303.519Z" fill="url(#paint14_linear_254_71)"/>
</g>
<g style="mix-blend-mode:plus-lighter" opacity="0.86" filter="url(#filter27_f_254_71)">
<path d="M1490.27 -366.099L1376.08 -394.859L1021.92 589.543L1215.44 619.984L1490.27 -366.099Z" fill="url(#paint15_linear_254_71)"/>
</g>
<g style="mix-blend-mode:plus-lighter" opacity="0.31" filter="url(#filter28_f_254_71)">
<path d="M781.336 -82.4251C779.573 -26.8745 1112.55 43.8725 1267.54 55.7905C1422.53 67.7085 1717.3 45.2323 1719.06 -10.3182C1720.83 -65.8688 1428.92 -133.458 1273.93 -145.376C1118.94 -157.294 783.1 -137.976 781.336 -82.4251Z" fill="#81FFC2"/>
</g>
<g style="mix-blend-mode:plus-lighter" filter="url(#filter29_f_254_71)">
<path d="M1246.91 11.6611L919.048 1003.47" stroke="url(#paint16_linear_254_71)" stroke-width="3.71446"/>
</g>
<g style="mix-blend-mode:plus-lighter" filter="url(#filter30_f_254_71)">
<path d="M1165.13 23.022L843.521 1016.88" stroke="url(#paint17_linear_254_71)" stroke-width="3.71446"/>
</g>
<g style="mix-blend-mode:plus-lighter" filter="url(#filter31_f_254_71)">
<path d="M1333.01 -45.2969L1174.76 475.601" stroke="url(#paint18_linear_254_71)" stroke-width="7.42891"/>
</g>
</g>
<defs>
<filter id="filter0_f_254_71" x="929.771" y="-257.487" width="417.095" height="1045.11" filterUnits="userSpaceOnUse" color-interpolation-filters="sRGB">
<feFlood flood-opacity="0" result="BackgroundImageFix"/>
<feBlend mode="normal" in="SourceGraphic" in2="BackgroundImageFix" result="shape"/>
<feGaussianBlur stdDeviation="40.8629" result="effect1_foregroundBlur_254_71"/>
</filter>
<filter id="filter1_f_254_71" x="511.945" y="-300.663" width="683.352" height="1355.58" filterUnits="userSpaceOnUse" color-interpolation-filters="sRGB">
<feFlood flood-opacity="0" result="BackgroundImageFix"/>
<feBlend mode="normal" in="SourceGraphic" in2="BackgroundImageFix" result="shape"/>
<feGaussianBlur stdDeviation="22.2867" result="effect1_foregroundBlur_254_71"/>
</filter>
<filter id="filter2_f_254_71" x="798.237" y="-266.081" width="678.527" height="1328.1" filterUnits="userSpaceOnUse" color-interpolation-filters="sRGB">
<feFlood flood-opacity="0" result="BackgroundImageFix"/>
<feBlend mode="normal" in="SourceGraphic" in2="BackgroundImageFix" result="shape"/>
<feGaussianBlur stdDeviation="11.1434" result="effect1_foregroundBlur_254_71"/>
</filter>
<filter id="filter3_f_254_71" x="671.243" y="-380.208" width="750.492" height="1380.22" filterUnits="userSpaceOnUse" color-interpolation-filters="sRGB">
<feFlood flood-opacity="0" result="BackgroundImageFix"/>
<feBlend mode="normal" in="SourceGraphic" in2="BackgroundImageFix" result="shape"/>
<feGaussianBlur stdDeviation="20.4295" result="effect1_foregroundBlur_254_71"/>
</filter>
<filter id="filter4_f_254_71" x="90.4136" y="-396.013" width="1918.3" height="1000.53" filterUnits="userSpaceOnUse" color-interpolation-filters="sRGB">
<feFlood flood-opacity="0" result="BackgroundImageFix"/>
<feBlend mode="normal" in="SourceGraphic" in2="BackgroundImageFix" result="shape"/>
<feGaussianBlur stdDeviation="178.294" result="effect1_foregroundBlur_254_71"/>
</filter>
<filter id="filter5_f_254_71" x="519.93" y="145.966" width="552.972" height="1318.41" filterUnits="userSpaceOnUse" color-interpolation-filters="sRGB">
<feFlood flood-opacity="0" result="BackgroundImageFix"/>
<feBlend mode="normal" in="SourceGraphic" in2="BackgroundImageFix" result="shape"/>
<feGaussianBlur stdDeviation="14.8578" result="effect1_foregroundBlur_254_71"/>
</filter>
<filter id="filter6_f_254_71" x="425.29" y="158.824" width="537.614" height="1314.03" filterUnits="userSpaceOnUse" color-interpolation-filters="sRGB">
<feFlood flood-opacity="0" result="BackgroundImageFix"/>
<feBlend mode="normal" in="SourceGraphic" in2="BackgroundImageFix" result="shape"/>
<feGaussianBlur stdDeviation="13.0006" result="effect1_foregroundBlur_254_71"/>
</filter>
<filter id="filter7_f_254_71" x="887.375" y="81.3533" width="298.566" height="716.159" filterUnits="userSpaceOnUse" color-interpolation-filters="sRGB">
<feFlood flood-opacity="0" result="BackgroundImageFix"/>
<feBlend mode="normal" in="SourceGraphic" in2="BackgroundImageFix" result="shape"/>
<feGaussianBlur stdDeviation="13.0006" result="effect1_foregroundBlur_254_71"/>
</filter>
<filter id="filter8_f_254_71" x="482.693" y="-358.191" width="816.309" height="1853" filterUnits="userSpaceOnUse" color-interpolation-filters="sRGB">
<feFlood flood-opacity="0" result="BackgroundImageFix"/>
<feBlend mode="normal" in="SourceGraphic" in2="BackgroundImageFix" result="shape"/>
<feGaussianBlur stdDeviation="22.2867" result="effect1_foregroundBlur_254_71"/>
</filter>
<filter id="filter9_f_254_71" x="867.966" y="-338.538" width="827.393" height="1828.71" filterUnits="userSpaceOnUse" color-interpolation-filters="sRGB">
<feFlood flood-opacity="0" result="BackgroundImageFix"/>
<feBlend mode="normal" in="SourceGraphic" in2="BackgroundImageFix" result="shape"/>
<feGaussianBlur stdDeviation="11.1434" result="effect1_foregroundBlur_254_71"/>
</filter>
<filter id="filter10_f_254_71" x="693.536" y="-480.986" width="913.294" height="1883.63" filterUnits="userSpaceOnUse" color-interpolation-filters="sRGB">
<feFlood flood-opacity="0" result="BackgroundImageFix"/>
<feBlend mode="normal" in="SourceGraphic" in2="BackgroundImageFix" result="shape"/>
<feGaussianBlur stdDeviation="20.4295" result="effect1_foregroundBlur_254_71"/>
</filter>
<filter id="filter11_f_254_71" x="-49.3781" y="-359.738" width="2378.19" height="1081.86" filterUnits="userSpaceOnUse" color-interpolation-filters="sRGB">
<feFlood flood-opacity="0" result="BackgroundImageFix"/>
<feBlend mode="normal" in="SourceGraphic" in2="BackgroundImageFix" result="shape"/>
<feGaussianBlur stdDeviation="178.294" result="effect1_foregroundBlur_254_71"/>
</filter>
<filter id="filter12_f_254_71" x="520.2" y="251.311" width="645.221" height="1821.75" filterUnits="userSpaceOnUse" color-interpolation-filters="sRGB">
<feFlood flood-opacity="0" result="BackgroundImageFix"/>
<feBlend mode="normal" in="SourceGraphic" in2="BackgroundImageFix" result="shape"/>
<feGaussianBlur stdDeviation="14.8578" result="effect1_foregroundBlur_254_71"/>
</filter>
<filter id="filter13_f_254_71" x="389.808" y="275.208" width="626.686" height="1817.94" filterUnits="userSpaceOnUse" color-interpolation-filters="sRGB">
<feFlood flood-opacity="0" result="BackgroundImageFix"/>
<feBlend mode="normal" in="SourceGraphic" in2="BackgroundImageFix" result="shape"/>
<feGaussianBlur stdDeviation="13.0006" result="effect1_foregroundBlur_254_71"/>
</filter>
<filter id="filter14_f_254_71" x="976.089" y="153.341" width="340.344" height="979.286" filterUnits="userSpaceOnUse" color-interpolation-filters="sRGB">
<feFlood flood-opacity="0" result="BackgroundImageFix"/>
<feBlend mode="normal" in="SourceGraphic" in2="BackgroundImageFix" result="shape"/>
<feGaussianBlur stdDeviation="13.0006" result="effect1_foregroundBlur_254_71"/>
</filter>
<filter id="filter15_f_254_71" x="486.772" y="-476.22" width="1233.26" height="1233.26" filterUnits="userSpaceOnUse" color-interpolation-filters="sRGB">
<feFlood flood-opacity="0" result="BackgroundImageFix"/>
<feBlend mode="normal" in="SourceGraphic" in2="BackgroundImageFix" result="shape"/>
<feGaussianBlur stdDeviation="196.571" result="effect1_foregroundBlur_254_71"/>
</filter>
<filter id="filter16_f_254_71" x="-184.917" y="-1684.49" width="2312.06" height="3722" filterUnits="userSpaceOnUse" color-interpolation-filters="sRGB">
<feFlood flood-opacity="0" result="BackgroundImageFix"/>
<feBlend mode="normal" in="SourceGraphic" in2="BackgroundImageFix" result="shape"/>
<feGaussianBlur stdDeviation="88" result="effect1_foregroundBlur_254_71"/>
</filter>
<filter id="filter17_f_254_71" x="1229.03" y="170.229" width="6.6946" height="6.49819" filterUnits="userSpaceOnUse" color-interpolation-filters="sRGB">
<feFlood flood-opacity="0" result="BackgroundImageFix"/>
<feBlend mode="normal" in="SourceGraphic" in2="BackgroundImageFix" result="shape"/>
<feGaussianBlur stdDeviation="1.14286" result="effect1_foregroundBlur_254_71"/>
</filter>
<filter id="filter18_f_254_71" x="1235.03" y="172.393" width="6.6946" height="6.49819" filterUnits="userSpaceOnUse" color-interpolation-filters="sRGB">
<feFlood flood-opacity="0" result="BackgroundImageFix"/>
<feBlend mode="normal" in="SourceGraphic" in2="BackgroundImageFix" result="shape"/>
<feGaussianBlur stdDeviation="1.14286" result="effect1_foregroundBlur_254_71"/>
</filter>
<filter id="filter19_f_254_71" x="974.99" y="-57.2882" width="414.81" height="1045.36" filterUnits="userSpaceOnUse" color-interpolation-filters="sRGB">
<feFlood flood-opacity="0" result="BackgroundImageFix"/>
<feBlend mode="normal" in="SourceGraphic" in2="BackgroundImageFix" result="shape"/>
<feGaussianBlur stdDeviation="40.8629" result="effect1_foregroundBlur_254_71"/>
</filter>
<filter id="filter20_f_254_71" x="104.368" y="-760.632" width="2118.26" height="2405.26" filterUnits="userSpaceOnUse" color-interpolation-filters="sRGB">
<feFlood flood-opacity="0" result="BackgroundImageFix"/>
<feBlend mode="normal" in="SourceGraphic" in2="BackgroundImageFix" result="shape"/>
<feGaussianBlur stdDeviation="467.816" result="effect1_foregroundBlur_254_71"/>
</filter>
<filter id="filter21_f_254_71" x="1152.92" y="106.754" width="6.14897" height="6.41762" filterUnits="userSpaceOnUse" color-interpolation-filters="sRGB">
<feFlood flood-opacity="0" result="BackgroundImageFix"/>
<feBlend mode="normal" in="SourceGraphic" in2="BackgroundImageFix" result="shape"/>
<feGaussianBlur stdDeviation="1.14286" result="effect1_foregroundBlur_254_71"/>
</filter>
<filter id="filter22_f_254_71" x="1148.39" y="106.178" width="6.1492" height="6.41762" filterUnits="userSpaceOnUse" color-interpolation-filters="sRGB">
<feFlood flood-opacity="0" result="BackgroundImageFix"/>
<feBlend mode="normal" in="SourceGraphic" in2="BackgroundImageFix" result="shape"/>
<feGaussianBlur stdDeviation="1.14286" result="effect1_foregroundBlur_254_71"/>
</filter>
<filter id="filter23_f_254_71" x="107.804" y="1607.41" width="119.145" height="122.462" filterUnits="userSpaceOnUse" color-interpolation-filters="sRGB">
<feFlood flood-opacity="0" result="BackgroundImageFix"/>
<feBlend mode="normal" in="SourceGraphic" in2="BackgroundImageFix" result="shape"/>
<feGaussianBlur stdDeviation="24.9161" result="effect1_foregroundBlur_254_71"/>
</filter>
<filter id="filter24_f_254_71" x="801.864" y="-130.138" width="468.518" height="1021.25" filterUnits="userSpaceOnUse" color-interpolation-filters="sRGB">
<feFlood flood-opacity="0" result="BackgroundImageFix"/>
<feBlend mode="normal" in="SourceGraphic" in2="BackgroundImageFix" result="shape"/>
<feGaussianBlur stdDeviation="40.8629" result="effect1_foregroundBlur_254_71"/>
</filter>
<filter id="filter25_f_254_71" x="860.692" y="-368.182" width="498.687" height="1082.55" filterUnits="userSpaceOnUse" color-interpolation-filters="sRGB">
<feFlood flood-opacity="0" result="BackgroundImageFix"/>
<feBlend mode="normal" in="SourceGraphic" in2="BackgroundImageFix" result="shape"/>
<feGaussianBlur stdDeviation="22.2867" result="effect1_foregroundBlur_254_71"/>
</filter>
<filter id="filter26_f_254_71" x="1087.41" y="-347.379" width="485.46" height="1049.41" filterUnits="userSpaceOnUse" color-interpolation-filters="sRGB">
<feFlood flood-opacity="0" result="BackgroundImageFix"/>
<feBlend mode="normal" in="SourceGraphic" in2="BackgroundImageFix" result="shape"/>
<feGaussianBlur stdDeviation="11.1434" result="effect1_foregroundBlur_254_71"/>
</filter>
<filter id="filter27_f_254_71" x="981.063" y="-435.718" width="550.064" height="1096.56" filterUnits="userSpaceOnUse" color-interpolation-filters="sRGB">
<feFlood flood-opacity="0" result="BackgroundImageFix"/>
<feBlend mode="normal" in="SourceGraphic" in2="BackgroundImageFix" result="shape"/>
<feGaussianBlur stdDeviation="20.4295" result="effect1_foregroundBlur_254_71"/>
</filter>
<filter id="filter28_f_254_71" x="424.742" y="-505.34" width="1650.92" height="920.822" filterUnits="userSpaceOnUse" color-interpolation-filters="sRGB">
<feFlood flood-opacity="0" result="BackgroundImageFix"/>
<feBlend mode="normal" in="SourceGraphic" in2="BackgroundImageFix" result="shape"/>
<feGaussianBlur stdDeviation="178.294" result="effect1_foregroundBlur_254_71"/>
</filter>
<filter id="filter29_f_254_71" x="887.511" y="-18.702" width="390.941" height="1052.54" filterUnits="userSpaceOnUse" color-interpolation-filters="sRGB">
<feFlood flood-opacity="0" result="BackgroundImageFix"/>
<feBlend mode="normal" in="SourceGraphic" in2="BackgroundImageFix" result="shape"/>
<feGaussianBlur stdDeviation="14.8578" result="effect1_foregroundBlur_254_71"/>
</filter>
<filter id="filter30_f_254_71" x="815.694" y="-3.61544" width="377.26" height="1047.14" filterUnits="userSpaceOnUse" color-interpolation-filters="sRGB">
<feFlood flood-opacity="0" result="BackgroundImageFix"/>
<feBlend mode="normal" in="SourceGraphic" in2="BackgroundImageFix" result="shape"/>
<feGaussianBlur stdDeviation="13.0006" result="effect1_foregroundBlur_254_71"/>
</filter>
<filter id="filter31_f_254_71" x="1145.08" y="-72.4973" width="217.612" height="575.299" filterUnits="userSpaceOnUse" color-interpolation-filters="sRGB">
<feFlood flood-opacity="0" result="BackgroundImageFix"/>
<feBlend mode="normal" in="SourceGraphic" in2="BackgroundImageFix" result="shape"/>
<feGaussianBlur stdDeviation="13.0006" result="effect1_foregroundBlur_254_71"/>
</filter>
<linearGradient id="paint0_linear_254_71" x1="1130.77" y1="-463.968" x2="296.004" y2="1879.81" gradientUnits="userSpaceOnUse">
<stop offset="0.214779" stop-color="#53A2FF"/>
<stop offset="0.781583" stop-color="#53A2FF" stop-opacity="0"/>
</linearGradient>
<linearGradient id="paint1_linear_254_71" x1="1397.92" y1="-453.562" x2="545.367" y2="1884.27" gradientUnits="userSpaceOnUse">
<stop offset="0.214779" stop-color="#53A2FF"/>
<stop offset="0.781583" stop-color="#53A2FF" stop-opacity="0"/>
</linearGradient>
<linearGradient id="paint2_linear_254_71" x1="1292.26" y1="-550.77" x2="430.704" y2="1783.94" gradientUnits="userSpaceOnUse">
<stop offset="0.214779" stop-color="#53A2FF"/>
<stop offset="0.781583" stop-color="#53A2FF" stop-opacity="0"/>
</linearGradient>
<linearGradient id="paint3_linear_254_71" x1="972.368" y1="373.952" x2="680.962" y2="1042.38" gradientUnits="userSpaceOnUse">
<stop stop-color="#81BBFF"/>
<stop offset="1" stop-color="#81BBFF" stop-opacity="0"/>
</linearGradient>
<linearGradient id="paint4_linear_254_71" x1="899.922" y1="273.961" x2="602.604" y2="1024.11" gradientUnits="userSpaceOnUse">
<stop stop-color="#81BBFF"/>
<stop offset="1" stop-color="#81BBFF" stop-opacity="0"/>
</linearGradient>
<linearGradient id="paint5_linear_254_71" x1="1124.58" y1="198.449" x2="851.654" y2="957.853" gradientUnits="userSpaceOnUse">
<stop stop-color="#81BBFF"/>
<stop offset="1" stop-color="#81BBFF" stop-opacity="0"/>
</linearGradient>
<linearGradient id="paint6_linear_254_71" x1="1294.76" y1="-276.65" x2="909.966" y2="-357.756" gradientUnits="userSpaceOnUse">
<stop stop-color="#0FEFFD"/>
<stop offset="0.515718" stop-color="#FF00F5"/>
<stop offset="0.776042" stop-color="#0FEFFD" stop-opacity="0"/>
</linearGradient>
<linearGradient id="paint7_linear_254_71" x1="1729.01" y1="-259.603" x2="1194.12" y2="-349.255" gradientUnits="userSpaceOnUse">
<stop stop-color="#0FEFFD"/>
<stop offset="0.515718" stop-color="#FF00F5"/>
<stop offset="0.776042" stop-color="#0FEFFD" stop-opacity="0"/>
</linearGradient>
<linearGradient id="paint8_linear_254_71" x1="1635.57" y1="-366.238" x2="970.544" y2="-453.175" gradientUnits="userSpaceOnUse">
<stop stop-color="#0FEFFD"/>
<stop offset="0.515718" stop-color="#FF00F5"/>
<stop offset="0.776042" stop-color="#0FEFFD" stop-opacity="0"/>
</linearGradient>
<linearGradient id="paint9_linear_254_71" x1="1053.33" y1="557.726" x2="701.392" y2="1496.03" gradientUnits="userSpaceOnUse">
<stop stop-color="#81FFC2"/>
<stop offset="1" stop-color="#81FFC2" stop-opacity="0"/>
</linearGradient>
<linearGradient id="paint10_linear_254_71" x1="946.717" y1="425.702" x2="592.539" y2="1476.58" gradientUnits="userSpaceOnUse">
<stop stop-color="#81FFC2"/>
<stop offset="1" stop-color="#81FFC2" stop-opacity="0"/>
</linearGradient>
<linearGradient id="paint11_linear_254_71" x1="1249.62" y1="305.935" x2="929.585" y2="1367.77" gradientUnits="userSpaceOnUse">
<stop stop-color="#04FF85"/>
<stop offset="1" stop-color="#81FFC2" stop-opacity="0"/>
</linearGradient>
<linearGradient id="paint12_linear_254_71" x1="1040" y1="189.053" x2="1322.77" y2="211.406" gradientUnits="userSpaceOnUse">
<stop stop-color="#C6FCA6"/>
<stop offset="1" stop-color="#A7FCEE" stop-opacity="0.74"/>
</linearGradient>
<linearGradient id="paint13_linear_254_71" x1="1290.09" y1="-486.957" x2="739.649" y2="1358.45" gradientUnits="userSpaceOnUse">
<stop offset="0.214779" stop-color="#10F184"/>
<stop offset="0.781583" stop-color="#002A16" stop-opacity="0"/>
</linearGradient>
<linearGradient id="paint14_linear_254_71" x1="1497.01" y1="-489.703" x2="932.575" y2="1351.83" gradientUnits="userSpaceOnUse">
<stop offset="0.214779" stop-color="#10F184"/>
<stop offset="0.781583" stop-color="#002A16" stop-opacity="0"/>
</linearGradient>
<linearGradient id="paint15_linear_254_71" x1="1411.41" y1="-560.575" x2="839.888" y2="1278.91" gradientUnits="userSpaceOnUse">
<stop offset="0.214779" stop-color="#10F184"/>
<stop offset="0.781583" stop-color="#002A16" stop-opacity="0"/>
</linearGradient>
<linearGradient id="paint16_linear_254_71" x1="1201.54" y1="167.135" x2="1003.33" y2="695.59" gradientUnits="userSpaceOnUse">
<stop stop-color="#81FFC2"/>
<stop offset="1" stop-color="#81FFC2" stop-opacity="0"/>
</linearGradient>
<linearGradient id="paint17_linear_254_71" x1="1141.5" y1="92.7779" x2="942.027" y2="684.636" gradientUnits="userSpaceOnUse">
<stop stop-color="#81FFC2"/>
<stop offset="1" stop-color="#81FFC2" stop-opacity="0"/>
</linearGradient>
<linearGradient id="paint18_linear_254_71" x1="1312.1" y1="25.3254" x2="1131.85" y2="623.352" gradientUnits="userSpaceOnUse">
<stop stop-color="#04FF85"/>
<stop offset="1" stop-color="#81FFC2" stop-opacity="0"/>
</linearGradient>
</defs>
</svg>
