<svg width="1440" height="2562" viewBox="0 0 1440 2562" fill="none" xmlns="http://www.w3.org/2000/svg">
<g opacity="0.5">
<g opacity="0.1">
<g filter="url(#filter0_f_75_4205)">
<path d="M1318.72 -396.299L1232.84 -418.089L724.519 833.903L874.187 848.341L1318.72 -396.299Z" fill="url(#paint0_linear_75_4205)"/>
</g>
<g style="mix-blend-mode:plus-lighter" opacity="0.3" filter="url(#filter1_f_75_4205)">
<path d="M1622.48 -371.731L1504.88 -405.794L988.524 843.09L1190.4 877.732L1622.48 -371.731Z" fill="url(#paint1_linear_75_4205)"/>
</g>
<g style="mix-blend-mode:plus-lighter" opacity="0.86" filter="url(#filter2_f_75_4205)">
<path d="M1548.88 -456.534L1403.49 -501.348L880.103 744.814L1127.72 797.153L1548.88 -456.534Z" fill="url(#paint2_linear_75_4205)"/>
</g>
<g style="mix-blend-mode:plus-lighter" opacity="0.31" filter="url(#filter3_f_75_4205)">
<path d="M615.065 -138.397C609.039 -66.845 1033.87 46.9122 1233.03 72.7522C1432.2 98.5922 1814.02 89.4935 1820.05 17.9415C1826.07 -53.6106 1454.02 -160.521 1254.85 -186.361C1055.69 -212.201 621.091 -209.949 615.065 -138.397Z" fill="#50A0FF"/>
</g>
<g style="mix-blend-mode:plus-lighter" filter="url(#filter4_f_75_4205)">
<path d="M1209.4 14.4241L719.43 1271.92" stroke="url(#paint3_linear_75_4205)" stroke-width="3.71446"/>
</g>
<g style="mix-blend-mode:plus-lighter" filter="url(#filter5_f_75_4205)">
<path d="M1103.11 23.557L621.081 1284.12" stroke="url(#paint4_linear_75_4205)" stroke-width="3.71446"/>
</g>
<g style="mix-blend-mode:plus-lighter" filter="url(#filter6_f_75_4205)">
<path d="M1324.33 -53.2556L1084.99 608.121" stroke="url(#paint5_linear_75_4205)" stroke-width="7.42891"/>
</g>
</g>
<g opacity="0.9">
<g filter="url(#filter7_f_75_4205)">
<path d="M1422.43 -451.879L1303 -475.618L695.266 1279.16L901.712 1288.23L1422.43 -451.879Z" fill="url(#paint6_linear_75_4205)"/>
</g>
<g style="mix-blend-mode:plus-lighter" opacity="0.3" filter="url(#filter8_f_75_4205)">
<path d="M1841.07 -439.947L1677.23 -478.251L1058.25 1272.84L1337.81 1305.89L1841.07 -439.947Z" fill="url(#paint7_linear_75_4205)"/>
</g>
<g style="mix-blend-mode:plus-lighter" opacity="0.86" filter="url(#filter9_f_75_4205)">
<path d="M1733.97 -551.062L1531.22 -602.127L902.395 1145.74L1246 1199.79L1733.97 -551.062Z" fill="url(#paint8_linear_75_4205)"/>
</g>
<g style="mix-blend-mode:plus-lighter" opacity="0.31" filter="url(#filter10_f_75_4205)">
<path d="M475.222 -47.3818C472.09 51.2515 1063.31 176.867 1338.51 198.028C1613.7 219.189 2137.08 179.282 2140.21 80.6483C2143.34 -17.985 1625.04 -137.993 1349.85 -159.155C1074.65 -180.316 478.354 -146.015 475.222 -47.3818Z" fill="#81FFC2"/>
</g>
<g style="mix-blend-mode:plus-lighter" filter="url(#filter11_f_75_4205)">
<path d="M1301.88 119.674L719.737 1880.7" stroke="url(#paint9_linear_75_4205)" stroke-width="3.71446"/>
</g>
<g style="mix-blend-mode:plus-lighter" filter="url(#filter12_f_75_4205)">
<path d="M1156.67 139.846L585.634 1904.51" stroke="url(#paint10_linear_75_4205)" stroke-width="3.71446"/>
</g>
<g style="mix-blend-mode:plus-lighter" filter="url(#filter13_f_75_4205)">
<path d="M1454.75 18.5413L1173.77 943.426" stroke="url(#paint11_linear_75_4205)" stroke-width="7.42891"/>
</g>
</g>
<g filter="url(#filter14_f_75_4205)">
<circle cx="223.429" cy="223.429" r="223.429" transform="matrix(-0.940537 -0.339692 -0.339692 0.940537 1557.44 -155.834)" fill="#C0FFD2" fill-opacity="0.8"/>
</g>
<g opacity="0.3" filter="url(#filter15_f_75_4205)">
<ellipse cx="1945.74" cy="116.39" rx="1945.74" ry="116.39" transform="matrix(-0.500971 0.865464 0.865464 0.500971 2013.14 -1727.77)" fill="#60FF8C"/>
</g>
</g>
<g opacity="0.1">
<g opacity="0.1">
<path d="M1516.67 -138.299L1602.55 -160.089L2110.88 1091.9L1961.21 1106.34L1516.67 -138.299Z" fill="url(#paint12_linear_75_4205)"/>
<g style="mix-blend-mode:plus-lighter" opacity="0.3" filter="url(#filter17_f_75_4205)">
<path d="M1212.92 -113.731L1330.52 -147.794L1846.87 1101.09L1644.99 1135.73L1212.92 -113.731Z" fill="url(#paint13_linear_75_4205)"/>
</g>
<g style="mix-blend-mode:plus-lighter" opacity="0.86" filter="url(#filter18_f_75_4205)">
<path d="M1286.52 -198.534L1431.9 -243.348L1955.29 1002.81L1707.67 1055.15L1286.52 -198.534Z" fill="url(#paint14_linear_75_4205)"/>
</g>
<g style="mix-blend-mode:plus-lighter" opacity="0.31" filter="url(#filter19_f_75_4205)">
<path d="M2220.33 119.603C2226.36 191.155 1801.52 304.912 1602.36 330.752C1403.2 356.592 1021.37 347.493 1015.35 275.941C1009.32 204.389 1381.38 97.4792 1580.54 71.6392C1779.7 45.7992 2214.3 48.0508 2220.33 119.603Z" fill="#50A0FF"/>
</g>
<g style="mix-blend-mode:plus-lighter">
<path d="M1625.99 272.424L2115.96 1529.92" stroke="url(#paint15_linear_75_4205)" stroke-width="3.71446"/>
</g>
<g style="mix-blend-mode:plus-lighter">
<path d="M1732.28 281.557L2214.31 1542.12" stroke="url(#paint16_linear_75_4205)" stroke-width="3.71446"/>
</g>
<g style="mix-blend-mode:plus-lighter">
<path d="M1511.07 204.744L1750.41 866.121" stroke="url(#paint17_linear_75_4205)" stroke-width="7.42891"/>
</g>
</g>
<g opacity="0.9">
<g filter="url(#filter23_f_75_4205)">
<path d="M1412.97 -193.879L1532.4 -217.618L2140.13 1537.16L1933.68 1546.23L1412.97 -193.879Z" fill="url(#paint18_linear_75_4205)"/>
</g>
<g style="mix-blend-mode:plus-lighter" opacity="0.3" filter="url(#filter24_f_75_4205)">
<path d="M994.321 -181.947L1158.17 -220.251L1777.14 1530.84L1497.58 1563.89L994.321 -181.947Z" fill="url(#paint19_linear_75_4205)"/>
</g>
<g style="mix-blend-mode:plus-lighter" opacity="0.86" filter="url(#filter25_f_75_4205)">
<path d="M1101.42 -293.063L1304.17 -344.127L1933 1403.74L1589.4 1457.79L1101.42 -293.063Z" fill="url(#paint20_linear_75_4205)"/>
</g>
<g style="mix-blend-mode:plus-lighter" opacity="0.31" filter="url(#filter26_f_75_4205)">
<path d="M2360.17 210.618C2363.3 309.251 1772.08 434.867 1496.89 456.028C1221.7 477.189 698.315 437.281 695.183 338.648C692.051 240.015 1210.35 120.006 1485.55 98.8453C1760.74 77.6842 2357.04 111.985 2360.17 210.618Z" fill="#81FFC2"/>
</g>
<g style="mix-blend-mode:plus-lighter">
<path d="M1533.51 377.674L2115.66 2138.7" stroke="url(#paint21_linear_75_4205)" stroke-width="3.71446"/>
</g>
<g style="mix-blend-mode:plus-lighter">
<path d="M1678.73 397.846L2249.76 2162.51" stroke="url(#paint22_linear_75_4205)" stroke-width="3.71446"/>
</g>
<g style="mix-blend-mode:plus-lighter" filter="url(#filter29_f_75_4205)">
<path d="M1380.64 276.541L1661.62 1201.43" stroke="url(#paint23_linear_75_4205)" stroke-width="7.42891"/>
</g>
</g>
<g filter="url(#filter30_f_75_4205)">
<circle cx="1563.99" cy="236.412" r="223.429" transform="rotate(-19.8581 1563.99 236.412)" fill="#C0FFD2" fill-opacity="0.8"/>
</g>
<g opacity="0.3" filter="url(#filter31_f_75_4205)">
<ellipse cx="1696.28" cy="272.506" rx="1945.74" ry="116.39" transform="rotate(59.9357 1696.28 272.506)" fill="#60FF8C"/>
</g>
</g>
<g opacity="0.49" filter="url(#filter32_f_75_4205)">
<circle cx="1105.3" cy="408.727" r="1.44122" fill="white"/>
</g>
<g opacity="0.49" filter="url(#filter33_f_75_4205)">
<circle cx="1113.71" cy="410.959" r="1.44122" transform="rotate(-40.9949 1113.71 410.959)" fill="white"/>
</g>
<circle opacity="0.49" cx="1147.47" cy="382.253" r="0.660002" transform="rotate(-19.3278 1147.47 382.253)" fill="#02FF58"/>
<circle opacity="0.49" cx="1272.26" cy="434.68" r="1.91579" transform="rotate(-147.546 1272.26 434.68)" fill="#5FF3A8"/>
<circle opacity="0.49" cx="1157.6" cy="391.302" r="0.993139" transform="rotate(87.2229 1157.6 391.302)" fill="#02FF58"/>
<circle opacity="0.49" cx="1108.22" cy="507.652" r="2.28571" transform="rotate(-40.9949 1108.22 507.652)" fill="#5FF3A8"/>
<circle opacity="0.49" cx="1103.27" cy="365.561" r="2.28571" transform="rotate(-106.551 1103.27 365.561)" fill="#5FF3A8"/>
<circle opacity="0.49" cx="1201.87" cy="473.294" r="2.28571" transform="rotate(-147.546 1201.87 473.294)" fill="#5FF3A8"/>
<circle opacity="0.49" cx="1229.25" cy="663.94" r="1.68592" transform="rotate(23.3878 1229.25 663.94)" fill="#02FF58"/>
<circle opacity="0.49" cx="1160.87" cy="781.076" r="1.68592" transform="rotate(-87.6623 1160.87 781.076)" fill="#02FF58"/>
<circle opacity="0.49" cx="1293.62" cy="559.427" r="1.14694" transform="rotate(121.029 1293.62 559.427)" fill="#02FF58"/>
<circle opacity="0.49" cx="1040.2" cy="758.512" r="1.14694" transform="rotate(9.97869 1040.2 758.512)" fill="#02FF58"/>
<circle opacity="0.49" cx="1081.21" cy="625.495" r="1.68592" transform="rotate(23.3878 1081.21 625.495)" fill="#02FF58"/>
<circle opacity="0.49" cx="1178.16" cy="933.037" r="1.68592" transform="rotate(-87.6623 1178.16 933.037)" fill="#02FF58"/>
<circle opacity="0.49" cx="1332.92" cy="463.091" r="1.14694" transform="rotate(121.029 1332.92 463.091)" fill="#02FF58"/>
<circle opacity="0.49" cx="936.185" cy="756.45" r="1.14694" transform="rotate(9.97869 936.185 756.45)" fill="#02FF58"/>
<circle opacity="0.49" cx="1203.17" cy="707.297" r="1.68592" transform="rotate(-2.18896 1203.17 707.297)" fill="#02FF58"/>
<circle opacity="0.49" cx="1210.7" cy="789.813" r="1.68592" transform="rotate(-113.239 1210.7 789.813)" fill="#02FF58"/>
<circle opacity="0.49" cx="1266.72" cy="537.912" r="1.14694" transform="rotate(95.4521 1266.72 537.912)" fill="#02FF58"/>
<circle opacity="0.49" cx="1029.79" cy="791.355" r="1.14694" transform="rotate(-15.5981 1029.79 791.355)" fill="#02FF58"/>
<circle opacity="0.49" cx="1055.12" cy="668.875" r="1.68592" transform="rotate(-2.18896 1055.12 668.875)" fill="#02FF58"/>
<circle opacity="0.49" cx="1228.01" cy="941.79" r="1.68592" transform="rotate(-113.239 1228.01 941.79)" fill="#02FF58"/>
<circle opacity="0.49" cx="1306.03" cy="441.576" r="1.14694" transform="rotate(95.4521 1306.03 441.576)" fill="#02FF58"/>
<circle opacity="0.49" cx="925.756" cy="789.262" r="1.14694" transform="rotate(-15.5981 925.756 789.262)" fill="#02FF58"/>
<circle opacity="0.49" cx="1192.38" cy="570.83" r="1.68592" transform="rotate(23.3878 1192.38 570.83)" fill="#02FF58"/>
<circle opacity="0.49" cx="1087.22" cy="848.896" r="1.68592" transform="rotate(-87.6623 1087.22 848.896)" fill="#02FF58"/>
<circle opacity="0.49" cx="1359.72" cy="542.966" r="1.14694" transform="rotate(121.029 1359.72 542.966)" fill="#02FF58"/>
<circle opacity="0.49" cx="1001.12" cy="702.715" r="1.14694" transform="rotate(9.97869 1001.12 702.715)" fill="#02FF58"/>
<circle opacity="0.49" cx="1044.33" cy="532.401" r="1.68592" transform="rotate(23.3878 1044.33 532.401)" fill="#02FF58"/>
<circle opacity="0.49" cx="1104.52" cy="1000.88" r="1.68592" transform="rotate(-87.6623 1104.52 1000.88)" fill="#02FF58"/>
<circle opacity="0.49" cx="1399.02" cy="446.638" r="1.14694" transform="rotate(121.029 1399.02 446.638)" fill="#02FF58"/>
<circle opacity="0.49" cx="897.088" cy="700.676" r="1.14694" transform="rotate(9.97869 897.088 700.676)" fill="#02FF58"/>
<circle opacity="0.49" cx="1129.72" cy="639.258" r="1.68592" transform="rotate(-2.18896 1129.72 639.258)" fill="#02FF58"/>
<circle opacity="0.49" cx="1173.58" cy="882.829" r="1.68592" transform="rotate(-113.239 1173.58 882.829)" fill="#02FF58"/>
<circle opacity="0.49" cx="1319.25" cy="494.529" r="1.14694" transform="rotate(95.4521 1319.25 494.529)" fill="#02FF58"/>
<circle opacity="0.49" cx="970.446" cy="757.91" r="1.14694" transform="rotate(-15.5981 970.446 757.91)" fill="#02FF58"/>
<circle opacity="0.49" cx="981.669" cy="600.812" r="1.68592" transform="rotate(-2.18896 981.669 600.812)" fill="#02FF58"/>
<circle opacity="0.49" cx="1190.88" cy="1034.78" r="1.68592" transform="rotate(-113.239 1190.88 1034.78)" fill="#02FF58"/>
<circle opacity="0.49" cx="1358.56" cy="398.201" r="1.14694" transform="rotate(95.4521 1358.56 398.201)" fill="#02FF58"/>
<circle opacity="0.49" cx="866.413" cy="755.824" r="1.14694" transform="rotate(-15.5981 866.413 755.824)" fill="#02FF58"/>
<circle opacity="0.49" cx="1259.53" cy="589.071" r="1.68592" transform="rotate(39.1258 1259.53 589.071)" fill="#02FF58"/>
<circle opacity="0.49" cx="1080.12" cy="779.682" r="1.68592" transform="rotate(-71.9243 1080.12 779.682)" fill="#02FF58"/>
<circle opacity="0.49" cx="1341.35" cy="586.611" r="1.14694" transform="rotate(136.767 1341.35 586.611)" fill="#02FF58"/>
<circle opacity="0.49" cx="1048.43" cy="704.199" r="1.14694" transform="rotate(25.7167 1048.43 704.199)" fill="#02FF58"/>
<circle opacity="0.49" cx="1093.66" cy="546.494" r="2.0476" transform="rotate(39.1258 1093.66 546.494)" fill="#02FF58"/>
<circle opacity="0.49" cx="1099.96" cy="949.795" r="2.0476" transform="rotate(-71.9243 1099.96 949.795)" fill="#02FF58"/>
<circle opacity="0.49" cx="1385.06" cy="478.615" r="1.39299" transform="rotate(136.767 1385.06 478.615)" fill="#02FF58"/>
<circle opacity="0.49" cx="931.946" cy="702.2" r="1.39299" transform="rotate(25.7167 931.946 702.2)" fill="#02FF58"/>
<circle opacity="0.49" cx="1300.51" cy="716.876" r="1.68592" transform="rotate(39.1258 1300.51 716.876)" fill="#02FF58"/>
<circle opacity="0.49" cx="1184.68" cy="695.526" r="1.68592" transform="rotate(-71.9243 1184.68 695.526)" fill="#02FF58"/>
<circle opacity="0.49" cx="1251.46" cy="602.681" r="1.14694" transform="rotate(136.767 1251.46 602.681)" fill="#02FF58"/>
<circle opacity="0.49" cx="1095.72" cy="782.34" r="1.14694" transform="rotate(25.7167 1095.72 782.34)" fill="#02FF58"/>
<circle opacity="0.49" cx="1152.48" cy="678.462" r="1.68592" transform="rotate(39.1258 1152.48 678.462)" fill="#02FF58"/>
<circle opacity="0.49" cx="1201.98" cy="847.487" r="1.68592" transform="rotate(-71.9243 1201.98 847.487)" fill="#02FF58"/>
<circle opacity="0.49" cx="1290.77" cy="506.337" r="1.14694" transform="rotate(136.767 1290.77 506.337)" fill="#02FF58"/>
<circle opacity="0.49" cx="991.691" cy="780.254" r="1.14694" transform="rotate(25.7167 991.691 780.254)" fill="#02FF58"/>
<circle opacity="0.49" cx="1155.49" cy="477.744" r="1.68592" transform="rotate(23.3878 1155.49 477.744)" fill="#02FF58"/>
<circle opacity="0.49" cx="1425.84" cy="526.544" r="1.14694" transform="rotate(121.029 1425.84 526.544)" fill="#02FF58"/>
<circle opacity="0.49" cx="1007.44" cy="439.291" r="1.68592" transform="rotate(23.3878 1007.44 439.291)" fill="#02FF58"/>
<circle opacity="0.49" cx="1026.58" cy="571.464" r="2.0476" transform="rotate(-2.18896 1026.58 571.464)" fill="#02FF58"/>
<circle opacity="0.49" cx="1374.3" cy="431.134" r="1.39299" transform="rotate(95.4521 1374.3 431.134)" fill="#02FF58"/>
<circle opacity="0.49" cx="908.216" cy="532.773" r="1.68592" transform="rotate(-2.18896 908.216 532.773)" fill="#02FF58"/>
<circle opacity="0.49" cx="1411.1" cy="354.818" r="1.14694" transform="rotate(95.4521 1411.1 354.818)" fill="#02FF58"/>
<circle opacity="0.49" cx="1249.28" cy="489.47" r="1.68592" transform="rotate(39.1258 1249.28 489.47)" fill="#02FF58"/>
<circle opacity="0.49" cx="1409.44" cy="588.728" r="1.14694" transform="rotate(136.767 1409.44 588.728)" fill="#02FF58"/>
<circle opacity="0.49" cx="1101.23" cy="451.025" r="1.68592" transform="rotate(39.1258 1101.23 451.025)" fill="#02FF58"/>
<circle opacity="0.49" cx="1290.26" cy="617.274" r="1.68592" transform="rotate(39.1258 1290.26 617.274)" fill="#02FF58"/>
<circle opacity="0.49" cx="1319.56" cy="604.798" r="1.14694" transform="rotate(136.767 1319.56 604.798)" fill="#02FF58"/>
<circle opacity="0.49" cx="1130.98" cy="580.752" r="2.0476" transform="rotate(39.1258 1130.98 580.752)" fill="#02FF58"/>
<circle opacity="0.49" cx="1358.59" cy="500.678" r="1.39299" transform="rotate(136.767 1358.59 500.678)" fill="#02FF58"/>
<g opacity="0.4" filter="url(#filter34_f_75_4205)">
<ellipse cx="1081.46" cy="851.596" rx="9.14286" ry="685.067" transform="rotate(-171.317 1081.46 851.596)" fill="#DDFFE9"/>
</g>
<defs>
<filter id="filter0_f_75_4205" x="679.946" y="-462.663" width="683.352" height="1355.58" filterUnits="userSpaceOnUse" color-interpolation-filters="sRGB">
<feFlood flood-opacity="0" result="BackgroundImageFix"/>
<feBlend mode="normal" in="SourceGraphic" in2="BackgroundImageFix" result="shape"/>
<feGaussianBlur stdDeviation="22.2867" result="effect1_foregroundBlur_75_4205"/>
</filter>
<filter id="filter1_f_75_4205" x="966.237" y="-428.081" width="678.527" height="1328.1" filterUnits="userSpaceOnUse" color-interpolation-filters="sRGB">
<feFlood flood-opacity="0" result="BackgroundImageFix"/>
<feBlend mode="normal" in="SourceGraphic" in2="BackgroundImageFix" result="shape"/>
<feGaussianBlur stdDeviation="11.1434" result="effect1_foregroundBlur_75_4205"/>
</filter>
<filter id="filter2_f_75_4205" x="839.244" y="-542.207" width="750.492" height="1380.22" filterUnits="userSpaceOnUse" color-interpolation-filters="sRGB">
<feFlood flood-opacity="0" result="BackgroundImageFix"/>
<feBlend mode="normal" in="SourceGraphic" in2="BackgroundImageFix" result="shape"/>
<feGaussianBlur stdDeviation="20.4295" result="effect1_foregroundBlur_75_4205"/>
</filter>
<filter id="filter3_f_75_4205" x="258.414" y="-558.012" width="1918.3" height="1000.53" filterUnits="userSpaceOnUse" color-interpolation-filters="sRGB">
<feFlood flood-opacity="0" result="BackgroundImageFix"/>
<feBlend mode="normal" in="SourceGraphic" in2="BackgroundImageFix" result="shape"/>
<feGaussianBlur stdDeviation="178.294" result="effect1_foregroundBlur_75_4205"/>
</filter>
<filter id="filter4_f_75_4205" x="687.93" y="-16.0332" width="552.972" height="1318.41" filterUnits="userSpaceOnUse" color-interpolation-filters="sRGB">
<feFlood flood-opacity="0" result="BackgroundImageFix"/>
<feBlend mode="normal" in="SourceGraphic" in2="BackgroundImageFix" result="shape"/>
<feGaussianBlur stdDeviation="14.8578" result="effect1_foregroundBlur_75_4205"/>
</filter>
<filter id="filter5_f_75_4205" x="593.29" y="-3.17495" width="537.614" height="1314.03" filterUnits="userSpaceOnUse" color-interpolation-filters="sRGB">
<feFlood flood-opacity="0" result="BackgroundImageFix"/>
<feBlend mode="normal" in="SourceGraphic" in2="BackgroundImageFix" result="shape"/>
<feGaussianBlur stdDeviation="13.0006" result="effect1_foregroundBlur_75_4205"/>
</filter>
<filter id="filter6_f_75_4205" x="1055.38" y="-80.6465" width="298.566" height="716.159" filterUnits="userSpaceOnUse" color-interpolation-filters="sRGB">
<feFlood flood-opacity="0" result="BackgroundImageFix"/>
<feBlend mode="normal" in="SourceGraphic" in2="BackgroundImageFix" result="shape"/>
<feGaussianBlur stdDeviation="13.0006" result="effect1_foregroundBlur_75_4205"/>
</filter>
<filter id="filter7_f_75_4205" x="650.692" y="-520.191" width="816.309" height="1853" filterUnits="userSpaceOnUse" color-interpolation-filters="sRGB">
<feFlood flood-opacity="0" result="BackgroundImageFix"/>
<feBlend mode="normal" in="SourceGraphic" in2="BackgroundImageFix" result="shape"/>
<feGaussianBlur stdDeviation="22.2867" result="effect1_foregroundBlur_75_4205"/>
</filter>
<filter id="filter8_f_75_4205" x="1035.97" y="-500.538" width="827.393" height="1828.71" filterUnits="userSpaceOnUse" color-interpolation-filters="sRGB">
<feFlood flood-opacity="0" result="BackgroundImageFix"/>
<feBlend mode="normal" in="SourceGraphic" in2="BackgroundImageFix" result="shape"/>
<feGaussianBlur stdDeviation="11.1434" result="effect1_foregroundBlur_75_4205"/>
</filter>
<filter id="filter9_f_75_4205" x="861.536" y="-642.986" width="913.294" height="1883.63" filterUnits="userSpaceOnUse" color-interpolation-filters="sRGB">
<feFlood flood-opacity="0" result="BackgroundImageFix"/>
<feBlend mode="normal" in="SourceGraphic" in2="BackgroundImageFix" result="shape"/>
<feGaussianBlur stdDeviation="20.4295" result="effect1_foregroundBlur_75_4205"/>
</filter>
<filter id="filter10_f_75_4205" x="118.622" y="-521.737" width="2378.19" height="1081.86" filterUnits="userSpaceOnUse" color-interpolation-filters="sRGB">
<feFlood flood-opacity="0" result="BackgroundImageFix"/>
<feBlend mode="normal" in="SourceGraphic" in2="BackgroundImageFix" result="shape"/>
<feGaussianBlur stdDeviation="178.294" result="effect1_foregroundBlur_75_4205"/>
</filter>
<filter id="filter11_f_75_4205" x="688.2" y="89.3111" width="645.221" height="1821.75" filterUnits="userSpaceOnUse" color-interpolation-filters="sRGB">
<feFlood flood-opacity="0" result="BackgroundImageFix"/>
<feBlend mode="normal" in="SourceGraphic" in2="BackgroundImageFix" result="shape"/>
<feGaussianBlur stdDeviation="14.8578" result="effect1_foregroundBlur_75_4205"/>
</filter>
<filter id="filter12_f_75_4205" x="557.807" y="113.209" width="626.686" height="1817.94" filterUnits="userSpaceOnUse" color-interpolation-filters="sRGB">
<feFlood flood-opacity="0" result="BackgroundImageFix"/>
<feBlend mode="normal" in="SourceGraphic" in2="BackgroundImageFix" result="shape"/>
<feGaussianBlur stdDeviation="13.0006" result="effect1_foregroundBlur_75_4205"/>
</filter>
<filter id="filter13_f_75_4205" x="1144.09" y="-8.6589" width="340.344" height="979.285" filterUnits="userSpaceOnUse" color-interpolation-filters="sRGB">
<feFlood flood-opacity="0" result="BackgroundImageFix"/>
<feBlend mode="normal" in="SourceGraphic" in2="BackgroundImageFix" result="shape"/>
<feGaussianBlur stdDeviation="13.0006" result="effect1_foregroundBlur_75_4205"/>
</filter>
<filter id="filter14_f_75_4205" x="654.772" y="-638.22" width="1233.26" height="1233.26" filterUnits="userSpaceOnUse" color-interpolation-filters="sRGB">
<feFlood flood-opacity="0" result="BackgroundImageFix"/>
<feBlend mode="normal" in="SourceGraphic" in2="BackgroundImageFix" result="shape"/>
<feGaussianBlur stdDeviation="196.571" result="effect1_foregroundBlur_75_4205"/>
</filter>
<filter id="filter15_f_75_4205" x="-16.9172" y="-1846.49" width="2312.06" height="3722" filterUnits="userSpaceOnUse" color-interpolation-filters="sRGB">
<feFlood flood-opacity="0" result="BackgroundImageFix"/>
<feBlend mode="normal" in="SourceGraphic" in2="BackgroundImageFix" result="shape"/>
<feGaussianBlur stdDeviation="88" result="effect1_foregroundBlur_75_4205"/>
</filter>
<filter id="filter17_f_75_4205" x="1190.63" y="-170.081" width="678.527" height="1328.1" filterUnits="userSpaceOnUse" color-interpolation-filters="sRGB">
<feFlood flood-opacity="0" result="BackgroundImageFix"/>
<feBlend mode="normal" in="SourceGraphic" in2="BackgroundImageFix" result="shape"/>
<feGaussianBlur stdDeviation="11.1434" result="effect1_foregroundBlur_75_4205"/>
</filter>
<filter id="filter18_f_75_4205" x="1245.66" y="-284.207" width="750.492" height="1380.22" filterUnits="userSpaceOnUse" color-interpolation-filters="sRGB">
<feFlood flood-opacity="0" result="BackgroundImageFix"/>
<feBlend mode="normal" in="SourceGraphic" in2="BackgroundImageFix" result="shape"/>
<feGaussianBlur stdDeviation="20.4295" result="effect1_foregroundBlur_75_4205"/>
</filter>
<filter id="filter19_f_75_4205" x="658.685" y="-300.012" width="1918.3" height="1000.53" filterUnits="userSpaceOnUse" color-interpolation-filters="sRGB">
<feFlood flood-opacity="0" result="BackgroundImageFix"/>
<feBlend mode="normal" in="SourceGraphic" in2="BackgroundImageFix" result="shape"/>
<feGaussianBlur stdDeviation="178.294" result="effect1_foregroundBlur_75_4205"/>
</filter>
<filter id="filter23_f_75_4205" x="1368.39" y="-262.191" width="816.309" height="1853" filterUnits="userSpaceOnUse" color-interpolation-filters="sRGB">
<feFlood flood-opacity="0" result="BackgroundImageFix"/>
<feBlend mode="normal" in="SourceGraphic" in2="BackgroundImageFix" result="shape"/>
<feGaussianBlur stdDeviation="22.2867" result="effect1_foregroundBlur_75_4205"/>
</filter>
<filter id="filter24_f_75_4205" x="972.035" y="-242.538" width="827.393" height="1828.71" filterUnits="userSpaceOnUse" color-interpolation-filters="sRGB">
<feFlood flood-opacity="0" result="BackgroundImageFix"/>
<feBlend mode="normal" in="SourceGraphic" in2="BackgroundImageFix" result="shape"/>
<feGaussianBlur stdDeviation="11.1434" result="effect1_foregroundBlur_75_4205"/>
</filter>
<filter id="filter25_f_75_4205" x="1060.56" y="-384.986" width="913.294" height="1883.63" filterUnits="userSpaceOnUse" color-interpolation-filters="sRGB">
<feFlood flood-opacity="0" result="BackgroundImageFix"/>
<feBlend mode="normal" in="SourceGraphic" in2="BackgroundImageFix" result="shape"/>
<feGaussianBlur stdDeviation="20.4295" result="effect1_foregroundBlur_75_4205"/>
</filter>
<filter id="filter26_f_75_4205" x="338.581" y="-263.738" width="2378.19" height="1081.86" filterUnits="userSpaceOnUse" color-interpolation-filters="sRGB">
<feFlood flood-opacity="0" result="BackgroundImageFix"/>
<feBlend mode="normal" in="SourceGraphic" in2="BackgroundImageFix" result="shape"/>
<feGaussianBlur stdDeviation="178.294" result="effect1_foregroundBlur_75_4205"/>
</filter>
<filter id="filter29_f_75_4205" x="1350.96" y="249.341" width="340.344" height="979.285" filterUnits="userSpaceOnUse" color-interpolation-filters="sRGB">
<feFlood flood-opacity="0" result="BackgroundImageFix"/>
<feBlend mode="normal" in="SourceGraphic" in2="BackgroundImageFix" result="shape"/>
<feGaussianBlur stdDeviation="13.0006" result="effect1_foregroundBlur_75_4205"/>
</filter>
<filter id="filter30_f_75_4205" x="947.358" y="-380.22" width="1233.26" height="1233.26" filterUnits="userSpaceOnUse" color-interpolation-filters="sRGB">
<feFlood flood-opacity="0" result="BackgroundImageFix"/>
<feBlend mode="normal" in="SourceGraphic" in2="BackgroundImageFix" result="shape"/>
<feGaussianBlur stdDeviation="196.571" result="effect1_foregroundBlur_75_4205"/>
</filter>
<filter id="filter31_f_75_4205" x="540.253" y="-1588.49" width="2312.06" height="3722" filterUnits="userSpaceOnUse" color-interpolation-filters="sRGB">
<feFlood flood-opacity="0" result="BackgroundImageFix"/>
<feBlend mode="normal" in="SourceGraphic" in2="BackgroundImageFix" result="shape"/>
<feGaussianBlur stdDeviation="88" result="effect1_foregroundBlur_75_4205"/>
</filter>
<filter id="filter32_f_75_4205" x="1101.57" y="405" width="7.45387" height="7.45387" filterUnits="userSpaceOnUse" color-interpolation-filters="sRGB">
<feFlood flood-opacity="0" result="BackgroundImageFix"/>
<feBlend mode="normal" in="SourceGraphic" in2="BackgroundImageFix" result="shape"/>
<feGaussianBlur stdDeviation="1.14286" result="effect1_foregroundBlur_75_4205"/>
</filter>
<filter id="filter33_f_75_4205" x="1109.99" y="407.232" width="7.45391" height="7.45392" filterUnits="userSpaceOnUse" color-interpolation-filters="sRGB">
<feFlood flood-opacity="0" result="BackgroundImageFix"/>
<feBlend mode="normal" in="SourceGraphic" in2="BackgroundImageFix" result="shape"/>
<feGaussianBlur stdDeviation="1.14286" result="effect1_foregroundBlur_75_4205"/>
</filter>
<filter id="filter34_f_75_4205" x="895.913" y="92.6531" width="371.098" height="1517.89" filterUnits="userSpaceOnUse" color-interpolation-filters="sRGB">
<feFlood flood-opacity="0" result="BackgroundImageFix"/>
<feBlend mode="normal" in="SourceGraphic" in2="BackgroundImageFix" result="shape"/>
<feGaussianBlur stdDeviation="40.8629" result="effect1_foregroundBlur_75_4205"/>
</filter>
<linearGradient id="paint0_linear_75_4205" x1="1298.77" y1="-625.968" x2="464.004" y2="1717.81" gradientUnits="userSpaceOnUse">
<stop offset="0.214779" stop-color="#53A2FF"/>
<stop offset="0.781583" stop-color="#53A2FF" stop-opacity="0"/>
</linearGradient>
<linearGradient id="paint1_linear_75_4205" x1="1565.92" y1="-615.561" x2="713.367" y2="1722.27" gradientUnits="userSpaceOnUse">
<stop offset="0.214779" stop-color="#53A2FF"/>
<stop offset="0.781583" stop-color="#53A2FF" stop-opacity="0"/>
</linearGradient>
<linearGradient id="paint2_linear_75_4205" x1="1460.26" y1="-712.769" x2="598.705" y2="1621.94" gradientUnits="userSpaceOnUse">
<stop offset="0.214779" stop-color="#53A2FF"/>
<stop offset="0.781583" stop-color="#53A2FF" stop-opacity="0"/>
</linearGradient>
<linearGradient id="paint3_linear_75_4205" x1="1140.37" y1="211.953" x2="848.962" y2="880.383" gradientUnits="userSpaceOnUse">
<stop stop-color="#81BBFF"/>
<stop offset="1" stop-color="#81BBFF" stop-opacity="0"/>
</linearGradient>
<linearGradient id="paint4_linear_75_4205" x1="1067.92" y1="111.961" x2="770.604" y2="862.107" gradientUnits="userSpaceOnUse">
<stop stop-color="#81BBFF"/>
<stop offset="1" stop-color="#81BBFF" stop-opacity="0"/>
</linearGradient>
<linearGradient id="paint5_linear_75_4205" x1="1292.58" y1="36.4493" x2="1019.65" y2="795.853" gradientUnits="userSpaceOnUse">
<stop stop-color="#81BBFF"/>
<stop offset="1" stop-color="#81BBFF" stop-opacity="0"/>
</linearGradient>
<linearGradient id="paint6_linear_75_4205" x1="1378.55" y1="-765.652" x2="401.203" y2="2510.98" gradientUnits="userSpaceOnUse">
<stop offset="0.214779" stop-color="#10F184"/>
<stop offset="0.781583" stop-color="#002A16" stop-opacity="0"/>
</linearGradient>
<linearGradient id="paint7_linear_75_4205" x1="1745.95" y1="-770.527" x2="743.755" y2="2499.22" gradientUnits="userSpaceOnUse">
<stop offset="0.214779" stop-color="#10F184"/>
<stop offset="0.781583" stop-color="#002A16" stop-opacity="0"/>
</linearGradient>
<linearGradient id="paint8_linear_75_4205" x1="1593.95" y1="-896.366" x2="579.184" y2="2369.74" gradientUnits="userSpaceOnUse">
<stop offset="0.214779" stop-color="#10F184"/>
<stop offset="0.781583" stop-color="#002A16" stop-opacity="0"/>
</linearGradient>
<linearGradient id="paint9_linear_75_4205" x1="1221.33" y1="395.727" x2="869.392" y2="1334.03" gradientUnits="userSpaceOnUse">
<stop stop-color="#81FFC2"/>
<stop offset="1" stop-color="#81FFC2" stop-opacity="0"/>
</linearGradient>
<linearGradient id="paint10_linear_75_4205" x1="1114.72" y1="263.702" x2="760.538" y2="1314.58" gradientUnits="userSpaceOnUse">
<stop stop-color="#81FFC2"/>
<stop offset="1" stop-color="#81FFC2" stop-opacity="0"/>
</linearGradient>
<linearGradient id="paint11_linear_75_4205" x1="1417.62" y1="143.935" x2="1097.59" y2="1205.77" gradientUnits="userSpaceOnUse">
<stop stop-color="#04FF85"/>
<stop offset="1" stop-color="#81FFC2" stop-opacity="0"/>
</linearGradient>
<linearGradient id="paint12_linear_75_4205" x1="1536.63" y1="-367.968" x2="2371.39" y2="1975.81" gradientUnits="userSpaceOnUse">
<stop offset="0.214779" stop-color="#53A2FF"/>
<stop offset="0.781583" stop-color="#53A2FF" stop-opacity="0"/>
</linearGradient>
<linearGradient id="paint13_linear_75_4205" x1="1269.47" y1="-357.561" x2="2122.03" y2="1980.27" gradientUnits="userSpaceOnUse">
<stop offset="0.214779" stop-color="#53A2FF"/>
<stop offset="0.781583" stop-color="#53A2FF" stop-opacity="0"/>
</linearGradient>
<linearGradient id="paint14_linear_75_4205" x1="1375.13" y1="-454.769" x2="2236.69" y2="1879.94" gradientUnits="userSpaceOnUse">
<stop offset="0.214779" stop-color="#53A2FF"/>
<stop offset="0.781583" stop-color="#53A2FF" stop-opacity="0"/>
</linearGradient>
<linearGradient id="paint15_linear_75_4205" x1="1695.03" y1="469.953" x2="1986.43" y2="1138.38" gradientUnits="userSpaceOnUse">
<stop stop-color="#81BBFF"/>
<stop offset="1" stop-color="#81BBFF" stop-opacity="0"/>
</linearGradient>
<linearGradient id="paint16_linear_75_4205" x1="1767.47" y1="369.961" x2="2064.79" y2="1120.11" gradientUnits="userSpaceOnUse">
<stop stop-color="#81BBFF"/>
<stop offset="1" stop-color="#81BBFF" stop-opacity="0"/>
</linearGradient>
<linearGradient id="paint17_linear_75_4205" x1="1542.81" y1="294.449" x2="1815.74" y2="1053.85" gradientUnits="userSpaceOnUse">
<stop stop-color="#81BBFF"/>
<stop offset="1" stop-color="#81BBFF" stop-opacity="0"/>
</linearGradient>
<linearGradient id="paint18_linear_75_4205" x1="1456.85" y1="-507.652" x2="2434.19" y2="2768.98" gradientUnits="userSpaceOnUse">
<stop offset="0.214779" stop-color="#10F184"/>
<stop offset="0.781583" stop-color="#002A16" stop-opacity="0"/>
</linearGradient>
<linearGradient id="paint19_linear_75_4205" x1="1089.45" y1="-512.527" x2="2091.64" y2="2757.22" gradientUnits="userSpaceOnUse">
<stop offset="0.214779" stop-color="#10F184"/>
<stop offset="0.781583" stop-color="#002A16" stop-opacity="0"/>
</linearGradient>
<linearGradient id="paint20_linear_75_4205" x1="1241.44" y1="-638.366" x2="2256.21" y2="2627.74" gradientUnits="userSpaceOnUse">
<stop offset="0.214779" stop-color="#10F184"/>
<stop offset="0.781583" stop-color="#002A16" stop-opacity="0"/>
</linearGradient>
<linearGradient id="paint21_linear_75_4205" x1="1614.07" y1="653.726" x2="1966" y2="1592.03" gradientUnits="userSpaceOnUse">
<stop stop-color="#81FFC2"/>
<stop offset="1" stop-color="#81FFC2" stop-opacity="0"/>
</linearGradient>
<linearGradient id="paint22_linear_75_4205" x1="1720.68" y1="521.702" x2="2074.86" y2="1572.58" gradientUnits="userSpaceOnUse">
<stop stop-color="#81FFC2"/>
<stop offset="1" stop-color="#81FFC2" stop-opacity="0"/>
</linearGradient>
<linearGradient id="paint23_linear_75_4205" x1="1417.77" y1="401.935" x2="1737.81" y2="1463.77" gradientUnits="userSpaceOnUse">
<stop stop-color="#04FF85"/>
<stop offset="1" stop-color="#81FFC2" stop-opacity="0"/>
</linearGradient>
</defs>
</svg>
